<svg width="140" height="28" viewBox="0 0 140 28" fill="none" xmlns="http://www.w3.org/2000/svg"><g clip-path="url(#clip0_332_261)"><path d="M18.0178 3.17238C17.3141 2.78181 15.297 3.0233 12.8744 3.77323C8.63441 6.67142 5.05598 10.9412 4.80627 17.7977C4.76081 17.9617 4.34261 17.7754 4.25989 17.7247C3.11494 15.5302 2.66133 13.2194 3.61734 9.88586C3.79553 9.58919 3.21295 9.22398 3.10821 9.32829C2.89836 9.53848 2.02358 10.4704 1.44258 11.4781C-1.43733 16.474 0.446004 22.8752 5.48459 25.6766C10.5221 28.4824 16.8834 26.6725 19.6883 21.6335C22.9333 15.8175 19.9202 4.23488 18.0179 3.17255L18.0178 3.17238Z" fill="#82B541"/><path d="M36.0494 5.96362C30.0764 5.96362 25.7408 10.4041 25.7408 16.5222C25.7408 22.6905 30.0651 26.9986 36.2575 26.9986C39.3853 26.9986 41.8616 26.0206 43.8309 24.0072C44.4191 23.3721 44.4824 22.76 44.4824 22.5261C44.4824 21.5287 43.7407 20.8042 42.7188 20.8042C42.2037 20.8042 41.7728 20.9988 41.2786 21.4557C40.1635 22.4948 38.695 23.5562 36.2575 23.5562C32.868 23.5562 30.1114 21.0114 29.9378 17.7435H43.428C44.895 17.7435 45.6076 17.0577 45.6076 15.6473C45.6076 15.2321 45.6076 14.9325 45.5241 14.3413C44.7974 9.09579 41.2558 5.96432 36.0497 5.96432L36.0494 5.96362ZM36.0494 9.239C39.2882 9.239 41.3665 11.3031 41.4947 14.6344H29.942C30.2453 11.5513 32.8521 9.239 36.0492 9.239H36.0494Z" fill="#000"/><path d="M58.4893 5.96362C55.7759 5.96362 53.0894 7.5238 52.0399 9.69069V8.35154C52.0399 6.27699 50.432 6.17189 50.11 6.17189C49.1573 6.17189 48.1392 6.74441 48.1392 8.35154V24.526C48.1392 26.6803 49.8506 26.7892 50.1935 26.7892C50.5364 26.7892 52.2487 26.6803 52.2487 24.526V15.8553C52.2487 12.0827 54.3865 9.44771 57.4472 9.44771C60.4118 9.44771 61.8534 11.3932 61.8534 15.3961V24.526C61.8534 26.6803 63.5657 26.7892 63.9086 26.7892C64.2515 26.7892 65.9629 26.6803 65.9629 24.526V14.1056C65.9629 10.1697 63.9995 5.96485 58.4893 5.96485V5.96362Z" fill="#000"/><path d="M84.557 6.17212C83.6073 6.17212 82.9186 6.72602 82.5085 7.8158L76.8862 21.9539L71.3067 7.8158C70.8699 6.70967 70.1863 6.17212 69.2165 6.17212C68.0835 6.17212 67.1614 7.05617 67.1614 8.14307C67.1614 8.4121 67.192 8.76096 67.4194 9.30586L73.8807 24.5623C74.6507 26.4028 75.9171 26.789 76.8444 26.789C77.771 26.789 79.0382 26.4028 79.8097 24.5632L86.3131 9.22192C86.5352 8.68376 86.5696 8.28864 86.5696 8.10162C86.5696 7.00213 85.7034 6.17238 84.557 6.17238V6.17212Z" fill="#000"/><path d="M96.5022 5.96345C93.8738 5.96345 91.4258 6.69545 89.6101 8.02306C88.9943 8.4479 88.6946 8.97793 88.6946 9.64435C88.6946 10.562 89.3953 11.2813 90.2914 11.2813C90.679 11.2813 91.1128 11.127 91.5108 10.8482C93.0718 9.80759 94.5387 9.32233 96.1265 9.32233C99.1648 9.32233 100.909 10.8676 100.909 13.5623V14.0088C94.0885 14.0162 87.1512 14.84 87.1512 20.7735C87.1512 25.044 90.8008 26.956 94.4175 26.956C97.2978 26.956 99.5982 25.8147 101.074 23.6537V24.6929C101.074 26.2404 102.113 26.7891 103.005 26.7891C103.193 26.7891 104.85 26.7302 104.85 24.6929V13.8117C104.85 8.89635 101.729 5.9624 96.5018 5.9624L96.5022 5.96345ZM100.044 17.0344H100.909V17.9811C100.909 21.4435 98.7042 23.6806 95.2932 23.6806C94.3674 23.6806 91.3455 23.4651 91.3455 20.6899C91.3454 17.4131 96.3099 17.0344 100.044 17.0344Z" fill="#000"/><path d="M115.554 9.90598C117.352 9.90598 117.443 8.50686 117.443 8.22655C117.443 7.39461 116.947 6.50532 115.554 6.50532H111.857V2.76559C111.857 1.09507 110.773 0.502441 109.844 0.502441C109.501 0.502441 107.79 0.611297 107.79 2.76559V20.5243C107.79 24.6226 109.811 26.7888 113.637 26.7888C114.627 26.7888 115.591 26.6136 116.222 26.3199C116.945 25.9591 117.359 25.3658 117.359 24.6927C117.359 23.743 116.671 23.0543 115.721 23.0543C115.538 23.0543 115.277 23.0998 114.989 23.1825C114.637 23.2705 114.399 23.3047 114.138 23.3047C112.581 23.3047 111.857 22.2888 111.857 20.1069V9.90423H115.554V9.90598Z" fill="#000"/><path d="M129.141 5.96362C122.926 5.96362 118.417 10.3691 118.417 16.4383C118.417 19.3932 119.509 22.0864 121.492 24.0214C123.46 25.9408 126.176 26.9979 129.142 26.9979C135.279 26.9979 139.908 22.4583 139.908 16.4384C139.908 10.3692 135.379 5.9638 129.142 5.9638L129.141 5.96362ZM129.141 23.5135C124.879 23.5135 122.65 19.954 122.65 16.4378C122.65 11.606 126.015 9.40557 129.141 9.40557C132.268 9.40557 135.632 11.606 135.632 16.4378C135.632 21.2995 132.268 23.5135 129.141 23.5135Z" fill="#000"/></g><defs><clipPath id="clip0_332_261"><path fill="#fff" transform="translate(0 .415)" d="M0 0H140V26.67H0z"/></clipPath></defs></svg>