<svg width="34" height="24" viewBox="0 0 34 24" fill="none" xmlns="http://www.w3.org/2000/svg"><mask id="mask0_2001_66" style="mask-type:alpha" maskUnits="userSpaceOnUse" x="0" y="0" width="34" height="24"><path d="M0 4C0 1.79086 1.79086 0 4 0H30C32.2091 0 34 1.79086 34 4V20C34 22.2091 32.2091 24 30 24H4C1.79086 24 0 22.2091 0 20V4Z" fill="#D9D9D9"/></mask><g mask="url(#mask0_2001_66)"><g clip-path="url(#clip0_2001_66)"><path d="M0 0H48V24H0V0Z" fill="#F2A800"/><path d="M0 0H48V16H0V0Z" fill="#0033A0"/><path d="M0 0H48V8H0V0Z" fill="#D90012"/></g><g clip-path="url(#clip1_2001_66)"><path d="M-1 0H35V24H-1V0Z" fill="#fff"/><path d="M14.6 0H19.4V24H14.6V0ZM-1 9.6H35V14.4H-1V9.6Z" fill="red"/><path d="M5.95615 2.34473C6.5163 2.4183 7.08367 2.4183 7.64383 2.34473C7.31864 3.96538 7.31864 5.63448 7.64383 7.25513C7.08367 7.18156 6.5163 7.18156 5.95615 7.25513C6.28133 5.63448 6.28133 3.96538 5.95615 2.34473Z" fill="red"/><path d="M9.25519 3.95605C9.18162 4.51621 9.18162 5.08358 9.25519 5.64373C7.63454 5.31855 5.96544 5.31855 4.34479 5.64373C4.41836 5.08358 4.41836 4.51621 4.34479 3.95605C5.96544 4.28124 7.63454 4.28124 9.25519 3.95605Z" fill="red"/><path d="M26.3561 2.34473C26.9163 2.4183 27.4837 2.4183 28.0438 2.34473C27.7186 3.96538 27.7186 5.63448 28.0438 7.25513C27.4837 7.18156 26.9163 7.18156 26.3561 7.25513C26.6813 5.63448 26.6813 3.96538 26.3561 2.34473Z" fill="red"/><path d="M29.6552 3.95605C29.5816 4.51621 29.5816 5.08358 29.6552 5.64373C28.0345 5.31855 26.3654 5.31855 24.7448 5.64373C24.8184 5.08358 24.8184 4.51621 24.7448 3.95605C26.3654 4.28124 28.0345 4.28124 29.6552 3.95605Z" fill="red"/><path d="M5.95615 16.7449C6.5163 16.8184 7.08367 16.8184 7.64383 16.7449C7.31864 18.3655 7.31864 20.0346 7.64383 21.6553C7.08367 21.5817 6.5163 21.5817 5.95615 21.6553C6.28133 20.0346 6.28133 18.3655 5.95615 16.7449Z" fill="red"/><path d="M9.25519 18.3562C9.18162 18.9164 9.18162 19.4837 9.25519 20.0439C7.63454 19.7187 5.96544 19.7187 4.34479 20.0439C4.41836 19.4837 4.41836 18.9164 4.34479 18.3562C5.96544 18.6814 7.63454 18.6814 9.25519 18.3562Z" fill="red"/><path d="M26.3561 16.7449C26.9163 16.8184 27.4837 16.8184 28.0438 16.7449C27.7186 18.3655 27.7186 20.0346 28.0438 21.6553C27.4837 21.5817 26.9163 21.5817 26.3561 21.6553C26.6813 20.0346 26.6813 18.3655 26.3561 16.7449Z" fill="red"/><path d="M29.6552 18.3562C29.5816 18.9164 29.5816 19.4837 29.6552 20.0439C28.0345 19.7187 26.3654 19.7187 24.7448 20.0439C24.8184 19.4837 24.8184 18.9164 24.7448 18.3562C26.3654 18.6814 28.0345 18.6814 29.6552 18.3562Z" fill="red"/></g><g clip-path="url(#clip2_2001_66)"><path d="M0 0H34V24H0V0Z" fill="#fff"/><path d="M0 0H34V8H0V0Z" fill="#FF6820"/><path d="M0 16H34V24H0V16Z" fill="#046A38"/><path d="M17 15.7C18.9299 15.7 20.4944 14.0435 20.4944 12C20.4944 9.9566 18.9299 8.30005 17 8.30005C15.0701 8.30005 13.5056 9.9566 13.5056 12C13.5056 14.0435 15.0701 15.7 17 15.7Z" fill="#07038D"/><path d="M17 15.2C18.6691 15.2 20.0222 13.7674 20.0222 12C20.0222 10.2327 18.6691 8.80005 17 8.80005C15.3309 8.80005 13.9778 10.2327 13.9778 12C13.9778 13.7674 15.3309 15.2 17 15.2Z" fill="#fff"/><path d="M17 12.6401C17.3338 12.6401 17.6045 12.3536 17.6045 12.0001C17.6045 11.6466 17.3338 11.3601 17 11.3601C16.6662 11.3601 16.3956 11.6466 16.3956 12.0001C16.3956 12.3536 16.6662 12.6401 17 12.6401Z" fill="#07038D"/><path d="M17 8.80005L17.1134 10.7257L17 11.6791L16.8867 10.7257L17 8.80005Z" fill="#07038D"/><path d="M17.3772 8.96629C17.4496 8.97638 17.5161 8.92242 17.5256 8.84576C17.5351 8.7691 17.4842 8.69878 17.4118 8.68868C17.3394 8.67859 17.2729 8.73255 17.2634 8.80921C17.2539 8.88587 17.3048 8.9562 17.3772 8.96629Z" fill="#07038D"/><path d="M17 15.2002L16.8867 13.2746L17 12.3211L17.1133 13.2746L17 15.2002Z" fill="#07038D"/><path d="M16.6228 15.034C16.5504 15.0239 16.484 15.0778 16.4744 15.1545C16.4649 15.2311 16.5159 15.3015 16.5883 15.3116C16.6607 15.3217 16.7271 15.2677 16.7366 15.191C16.7462 15.1144 16.6952 15.044 16.6228 15.034Z" fill="#07038D"/><path d="M17.8082 8.95548L17.3862 10.8309L17.0525 11.6439L17.2193 10.6763L17.8082 8.95548Z" fill="#07038D"/><path d="M18.079 9.12878C18.1316 9.18285 18.2089 9.18861 18.2518 9.14166C18.2946 9.0947 18.2867 9.01281 18.2341 8.95874C18.1815 8.90467 18.1042 8.8989 18.0613 8.94586C18.0185 8.99281 18.0264 9.07471 18.079 9.12878Z" fill="#07038D"/><path d="M16.1918 15.0448L16.6138 13.1693L16.9475 12.3563L16.7808 13.3239L16.1918 15.0448Z" fill="#07038D"/><path d="M15.921 14.8715C15.8684 14.8174 15.7911 14.8116 15.7483 14.8586C15.7054 14.9055 15.7133 14.9874 15.7659 15.0415C15.8185 15.0956 15.8959 15.1013 15.9387 15.0544C15.9815 15.0074 15.9736 14.9255 15.921 14.8715Z" fill="#07038D"/><path d="M18.509 9.23395L17.7027 10.9598L17.1536 11.7168L17.5023 10.8293L18.509 9.23395Z" fill="#07038D"/><path d="M18.7565 9.56433C18.8128 9.61578 18.8958 9.61131 18.9418 9.55434C18.9879 9.49738 18.9795 9.40949 18.9232 9.35805C18.8668 9.3066 18.7838 9.31107 18.7378 9.36804C18.6917 9.425 18.7001 9.51288 18.7565 9.56433Z" fill="#07038D"/><path d="M15.491 14.7661L16.2973 13.0402L16.8464 12.2832L16.4977 13.1707L15.491 14.7661Z" fill="#07038D"/><path d="M15.2435 14.4357C15.1872 14.3842 15.1042 14.3887 15.0582 14.4457C15.0121 14.5026 15.0205 14.5905 15.0768 14.642C15.1332 14.6934 15.2162 14.6889 15.2622 14.632C15.3083 14.575 15.2999 14.4871 15.2435 14.4357Z" fill="#07038D"/><path d="M19.1476 9.7509L17.9171 11.1928L17.2038 11.7593L17.7779 10.9956L19.1476 9.7509Z" fill="#07038D"/><path d="M19.2858 10.1292C19.3264 10.195 19.4094 10.2138 19.4712 10.1711C19.533 10.1285 19.5502 10.0406 19.5096 9.97484C19.469 9.90905 19.386 9.89026 19.3242 9.93288C19.2624 9.9755 19.2452 10.0634 19.2858 10.1292Z" fill="#07038D"/><path d="M14.8524 14.2491L16.083 12.8072L16.7962 12.2407L16.2221 13.0044L14.8524 14.2491Z" fill="#07038D"/><path d="M14.7142 13.8708C14.6736 13.805 14.5906 13.7862 14.5288 13.8289C14.467 13.8715 14.4498 13.9594 14.4904 14.0252C14.531 14.091 14.614 14.1097 14.6758 14.0671C14.7376 14.0245 14.7548 13.9366 14.7142 13.8708Z" fill="#07038D"/><path d="M19.6169 10.3985L18.0996 11.4658L17.263 11.8417L17.9853 11.2616L19.6169 10.3985Z" fill="#07038D"/><path d="M19.6714 10.8315C19.7002 10.9017 19.7775 10.9336 19.8442 10.9028C19.9109 10.8719 19.9416 10.79 19.9129 10.7199C19.8842 10.6497 19.8068 10.6178 19.7401 10.6486C19.6735 10.6795 19.6427 10.7613 19.6714 10.8315Z" fill="#07038D"/><path d="M14.3831 13.6018L15.9004 12.5344L16.737 12.1586L16.0147 12.7386L14.3831 13.6018Z" fill="#07038D"/><path d="M14.3286 13.1687C14.2998 13.0985 14.2225 13.0666 14.1558 13.0975C14.0891 13.1283 14.0584 13.2102 14.0871 13.2804C14.1158 13.3506 14.1932 13.3825 14.2599 13.3516C14.3265 13.3208 14.3573 13.2389 14.3286 13.1687Z" fill="#07038D"/><path d="M19.9289 11.2021L18.1789 11.8062L17.283 11.8867L18.1396 11.5138L19.9289 11.2021Z" fill="#07038D"/><path d="M19.8575 11.5964C19.8627 11.6753 19.9291 11.7328 20.0058 11.7249C20.0825 11.717 20.1405 11.6467 20.1352 11.5678C20.13 11.489 20.0636 11.4314 19.9869 11.4393C19.9102 11.4472 19.8522 11.5176 19.8575 11.5964Z" fill="#07038D"/><path d="M14.0711 12.7979L15.8211 12.1938L16.717 12.1133L15.8604 12.4862L14.0711 12.7979Z" fill="#07038D"/><path d="M14.1425 12.4036C14.1373 12.3247 14.0709 12.2672 13.9942 12.2751C13.9175 12.283 13.8595 12.3533 13.8648 12.4322C13.87 12.511 13.9364 12.5686 14.0131 12.5607C14.0898 12.5528 14.1478 12.4824 14.1425 12.4036Z" fill="#07038D"/><path d="M19.9711 12.0945L18.1697 11.9938L17.3543 11.9057L18.2721 11.9426L19.9711 12.0945Z" fill="#07038D"/><path d="M19.8999 12.3994C19.8713 12.476 19.8912 12.5463 19.9445 12.5565C19.9978 12.5666 20.0643 12.5127 20.0929 12.4361C20.1215 12.3595 20.1015 12.2891 20.0482 12.279C19.995 12.2689 19.9285 12.3228 19.8999 12.3994Z" fill="#07038D"/><path d="M14.029 11.9055L15.8303 12.0062L16.6457 12.0943L15.728 12.0574L14.029 11.9055Z" fill="#07038D"/><path d="M14.1001 11.6006C14.1288 11.524 14.1088 11.4537 14.0555 11.4435C14.0022 11.4334 13.9358 11.4873 13.9071 11.5639C13.8785 11.6405 13.8985 11.7109 13.9518 11.721C14.0051 11.7311 14.0715 11.6772 14.1001 11.6006Z" fill="#07038D"/><path d="M19.9202 12.7852L18.1906 12.5034L17.2918 12.1262L18.1339 12.1854L19.9202 12.7852Z" fill="#07038D"/><path d="M19.6211 13.1806C19.6221 13.2572 19.6994 13.3391 19.7939 13.3635C19.8883 13.3879 19.9642 13.3455 19.9632 13.2689C19.9623 13.1923 19.8849 13.1104 19.7905 13.086C19.696 13.0616 19.6202 13.1039 19.6211 13.1806Z" fill="#07038D"/><path d="M14.0798 11.215L15.8094 11.4968L16.7082 11.8741L15.8662 11.8148L14.0798 11.215Z" fill="#07038D"/><path d="M14.3789 10.8197C14.378 10.743 14.3006 10.6612 14.2062 10.6368C14.1117 10.6124 14.0359 10.6547 14.0368 10.7314C14.0378 10.808 14.1151 10.8899 14.2096 10.9143C14.304 10.9387 14.3799 10.8963 14.3789 10.8197Z" fill="#07038D"/><path d="M19.617 13.6021L17.9855 12.7382L17.2628 12.1583L18.0994 12.5346L19.617 13.6021Z" fill="#07038D"/><path d="M19.2975 13.8569C19.2504 13.9151 19.2572 14.0029 19.3126 14.0532C19.3679 14.1035 19.4509 14.0972 19.4979 14.0391C19.545 13.981 19.5382 13.8931 19.4829 13.8428C19.4275 13.7925 19.3445 13.7988 19.2975 13.8569Z" fill="#07038D"/><path d="M14.383 10.3979L16.0145 11.2618L16.7372 11.8417L15.9006 11.4654L14.383 10.3979Z" fill="#07038D"/><path d="M14.7025 10.1431C14.7496 10.0849 14.7428 9.99705 14.6874 9.94676C14.6321 9.89647 14.5491 9.90281 14.5021 9.96093C14.455 10.019 14.4618 10.1069 14.5171 10.1572C14.5725 10.2075 14.6555 10.2012 14.7025 10.1431Z" fill="#07038D"/><path d="M19.1293 14.2733L17.7658 12.9718L17.2221 12.2163L17.9415 12.8232L19.1293 14.2733Z" fill="#07038D"/><path d="M18.7675 14.4178C18.705 14.4594 18.6868 14.5473 18.7267 14.6141C18.7666 14.6808 18.8496 14.7011 18.9121 14.6594C18.9745 14.6178 18.9928 14.5299 18.9529 14.4631C18.913 14.3964 18.83 14.3761 18.7675 14.4178Z" fill="#07038D"/><path d="M14.8707 9.72674L16.2342 11.0282L16.7779 11.7837L16.0584 11.1768L14.8707 9.72674Z" fill="#07038D"/><path d="M15.2325 9.58224C15.2949 9.54057 15.3132 9.45269 15.2733 9.38595C15.2334 9.31921 15.1504 9.29889 15.0879 9.34056C15.0254 9.38223 15.0072 9.47012 15.0471 9.53686C15.087 9.6036 15.17 9.62392 15.2325 9.58224Z" fill="#07038D"/><path d="M18.5001 14.7879L17.4963 13.1405L17.1626 12.2605L17.7147 13.0545L18.5001 14.7879Z" fill="#07038D"/><path d="M18.1126 14.8107C18.0415 14.8314 18.0035 14.9133 18.0278 14.9936C18.0521 15.0739 18.1294 15.1222 18.2005 15.1015C18.2717 15.0808 18.3096 14.9989 18.2853 14.9186C18.261 14.8383 18.1837 14.79 18.1126 14.8107Z" fill="#07038D"/><path d="M15.4999 9.2114L16.5037 10.8588L16.8374 11.7387L16.2853 10.9448L15.4999 9.2114Z" fill="#07038D"/><path d="M15.8874 9.18856C15.9585 9.16784 15.9965 9.08594 15.9722 9.00565C15.9479 8.92535 15.8706 8.87705 15.7995 8.89778C15.7283 8.9185 15.6904 9.0004 15.7147 9.0807C15.739 9.161 15.8163 9.20929 15.8874 9.18856Z" fill="#07038D"/><path d="M17.7591 15.1093L17.1867 13.2372L17.1016 12.2915L17.4519 13.212L17.7591 15.1093Z" fill="#07038D"/><path d="M17.385 15.0192C17.3083 15.0171 17.2504 15.0841 17.2557 15.1687C17.2609 15.2533 17.3273 15.3237 17.404 15.3258C17.4807 15.3279 17.5386 15.261 17.5333 15.1763C17.5281 15.0917 17.4617 15.0214 17.385 15.0192Z" fill="#07038D"/><path d="M16.2409 8.89021L16.8133 10.7623L16.8984 11.708L16.5481 10.7875L16.2409 8.89021Z" fill="#07038D"/><path d="M16.615 8.98026C16.6917 8.98237 16.7496 8.91545 16.7444 8.83081C16.7391 8.74616 16.6727 8.67584 16.596 8.67373C16.5193 8.67163 16.4614 8.73854 16.4667 8.82319C16.4719 8.90783 16.5384 8.97816 16.615 8.98026Z" fill="#07038D"/></g></g><defs><clipPath id="clip0_2001_66"><path d="M0 4C0 1.79086 1.79086 0 4 0H30C32.2091 0 34 1.79086 34 4V20C34 22.2091 32.2091 24 30 24H4C1.79086 24 0 22.2091 0 20V4Z" fill="#fff"/></clipPath><clipPath id="clip1_2001_66"><path fill="#fff" transform="translate(-1)" d="M0 0H36V24H0z"/></clipPath><clipPath id="clip2_2001_66"><path fill="#fff" d="M0 0H34V24H0z"/></clipPath></defs></svg>