<svg width="35" height="24" viewBox="0 0 35 24" fill="none" xmlns="http://www.w3.org/2000/svg"><mask id="mask0_2001_1288" style="mask-type:alpha" maskUnits="userSpaceOnUse" x="0" y="0" width="35" height="24"><path d="M0.666626 4C0.666626 1.79086 2.45749 0 4.66663 0H30.6666C32.8758 0 34.6666 1.79086 34.6666 4V20C34.6666 22.2091 32.8758 24 30.6666 24H4.66663C2.45749 24 0.666626 22.2091 0.666626 20V4Z" fill="#D9D9D9"/></mask><g mask="url(#mask0_2001_1288)"><g clip-path="url(#clip0_2001_1288)"><path d="M0.666626 0H48.6666V24H0.666626V0Z" fill="#F2A800"/><path d="M0.666626 0H48.6666V16H0.666626V0Z" fill="#0033A0"/><path d="M0.666626 0H48.6666V8H0.666626V0Z" fill="#D90012"/></g><g clip-path="url(#clip1_2001_1288)"><path d="M-0.333374 0H35.6666V24H-0.333374V0Z" fill="#fff"/><path d="M15.2666 0H20.0666V24H15.2666V0ZM-0.333374 9.6H35.6666V14.4H-0.333374V9.6Z" fill="red"/><path d="M6.62278 2.34473C7.18293 2.4183 7.7503 2.4183 8.31046 2.34473C7.98527 3.96538 7.98527 5.63448 8.31046 7.25513C7.7503 7.18156 7.18293 7.18156 6.62278 7.25513C6.94797 5.63448 6.94797 3.96538 6.62278 2.34473Z" fill="red"/><path d="M9.92182 3.95605C9.84825 4.51621 9.84825 5.08358 9.92182 5.64373C8.30117 5.31855 6.63207 5.31855 5.01142 5.64373C5.08499 5.08358 5.08499 4.51621 5.01142 3.95605C6.63207 4.28124 8.30117 4.28124 9.92182 3.95605Z" fill="red"/><path d="M27.0228 2.34473C27.5829 2.4183 28.1503 2.4183 28.7105 2.34473C28.3853 3.96538 28.3853 5.63448 28.7105 7.25513C28.1503 7.18156 27.5829 7.18156 27.0228 7.25513C27.348 5.63448 27.348 3.96538 27.0228 2.34473Z" fill="red"/><path d="M30.3218 3.95605C30.2483 4.51621 30.2483 5.08358 30.3218 5.64373C28.7012 5.31855 27.0321 5.31855 25.4114 5.64373C25.485 5.08358 25.485 4.51621 25.4114 3.95605C27.0321 4.28124 28.7012 4.28124 30.3218 3.95605Z" fill="red"/><path d="M6.62278 16.7449C7.18293 16.8184 7.7503 16.8184 8.31046 16.7449C7.98527 18.3655 7.98527 20.0346 8.31046 21.6553C7.7503 21.5817 7.18293 21.5817 6.62278 21.6553C6.94797 20.0346 6.94797 18.3655 6.62278 16.7449Z" fill="red"/><path d="M9.92182 18.3562C9.84825 18.9164 9.84825 19.4837 9.92182 20.0439C8.30117 19.7187 6.63207 19.7187 5.01142 20.0439C5.08499 19.4837 5.08499 18.9164 5.01142 18.3562C6.63207 18.6814 8.30117 18.6814 9.92182 18.3562Z" fill="red"/><path d="M27.0228 16.7449C27.5829 16.8184 28.1503 16.8184 28.7105 16.7449C28.3853 18.3655 28.3853 20.0346 28.7105 21.6553C28.1503 21.5817 27.5829 21.5817 27.0228 21.6553C27.348 20.0346 27.348 18.3655 27.0228 16.7449Z" fill="red"/><path d="M30.3218 18.3562C30.2483 18.9164 30.2483 19.4837 30.3218 20.0439C28.7012 19.7187 27.0321 19.7187 25.4114 20.0439C25.485 19.4837 25.485 18.9164 25.4114 18.3562C27.0321 18.6814 28.7012 18.6814 30.3218 18.3562Z" fill="red"/></g><g clip-path="url(#clip2_2001_1288)"><path d="M34.6666 0H0.666626V12H34.6666V0Z" fill="#fff"/><path d="M34.6666 12H0.666626V24H34.6666V12Z" fill="#D52B1E"/><path d="M34.6666 8H0.666626V16H34.6666V8Z" fill="#0039A6"/></g></g><defs><clipPath id="clip0_2001_1288"><path d="M0.666626 4C0.666626 1.79086 2.45749 0 4.66663 0H30.6666C32.8758 0 34.6666 1.79086 34.6666 4V20C34.6666 22.2091 32.8758 24 30.6666 24H4.66663C2.45749 24 0.666626 22.2091 0.666626 20V4Z" fill="#fff"/></clipPath><clipPath id="clip1_2001_1288"><path fill="#fff" transform="translate(-.333)" d="M0 0H36V24H0z"/></clipPath><clipPath id="clip2_2001_1288"><path fill="#fff" transform="translate(.667)" d="M0 0H34V24H0z"/></clipPath></defs></svg>