<svg width="35" height="24" viewBox="0 0 35 24" fill="none" xmlns="http://www.w3.org/2000/svg"><g clip-path="url(#clip0_2001_2248)"><path d="M-0.333313 0H35.6667V24H-0.333313V0Z" fill="#fff"/><path d="M15.2667 0H20.0667V24H15.2667V0ZM-0.333313 9.6H35.6667V14.4H-0.333313V9.6Z" fill="red"/><path d="M6.62283 2.34485C7.18299 2.41842 7.75036 2.41842 8.31051 2.34485C7.98533 3.9655 7.98533 5.6346 8.31051 7.25525C7.75036 7.18168 7.18299 7.18168 6.62283 7.25525C6.94802 5.6346 6.94802 3.9655 6.62283 2.34485Z" fill="red"/><path d="M9.92188 3.95618C9.8483 4.51633 9.8483 5.0837 9.92188 5.64386C8.30123 5.31867 6.63212 5.31867 5.01148 5.64386C5.08505 5.0837 5.08505 4.51633 5.01148 3.95618C6.63212 4.28136 8.30123 4.28136 9.92188 3.95618Z" fill="red"/><path d="M27.0228 2.34485C27.583 2.41842 28.1504 2.41842 28.7105 2.34485C28.3853 3.9655 28.3853 5.6346 28.7105 7.25525C28.1504 7.18168 27.583 7.18168 27.0228 7.25525C27.348 5.6346 27.348 3.9655 27.0228 2.34485Z" fill="red"/><path d="M30.3219 3.95618C30.2483 4.51633 30.2483 5.0837 30.3219 5.64386C28.7012 5.31867 27.0321 5.31867 25.4115 5.64386C25.485 5.0837 25.485 4.51633 25.4115 3.95618C27.0321 4.28136 28.7012 4.28136 30.3219 3.95618Z" fill="red"/><path d="M6.62283 16.7448C7.18299 16.8183 7.75036 16.8183 8.31051 16.7448C7.98533 18.3654 7.98533 20.0345 8.31051 21.6552C7.75036 21.5816 7.18299 21.5816 6.62283 21.6552C6.94802 20.0345 6.94802 18.3654 6.62283 16.7448Z" fill="red"/><path d="M9.92188 18.3561C9.8483 18.9162 9.8483 19.4836 9.92188 20.0438C8.30123 19.7186 6.63212 19.7186 5.01148 20.0438C5.08505 19.4836 5.08505 18.9162 5.01148 18.3561C6.63212 18.6813 8.30123 18.6813 9.92188 18.3561Z" fill="red"/><path d="M27.0228 16.7448C27.583 16.8183 28.1504 16.8183 28.7105 16.7448C28.3853 18.3654 28.3853 20.0345 28.7105 21.6552C28.1504 21.5816 27.583 21.5816 27.0228 21.6552C27.348 20.0345 27.348 18.3654 27.0228 16.7448Z" fill="red"/><path d="M30.3219 18.3561C30.2483 18.9162 30.2483 19.4836 30.3219 20.0438C28.7012 19.7186 27.0321 19.7186 25.4115 20.0438C25.485 19.4836 25.485 18.9162 25.4115 18.3561C27.0321 18.6813 28.7012 18.6813 30.3219 18.3561Z" fill="red"/></g><defs><clipPath id="clip0_2001_2248"><path fill="#fff" transform="translate(-.333)" d="M0 0H36V24H0z"/></clipPath></defs></svg>