<svg width="90" height="27" viewBox="0 0 90 27" fill="none" xmlns="http://www.w3.org/2000/svg"><g clip-path="url(#clip0_304_2872)"><path d="M9.74717 4.31287V11.5086H3.13642V4.31287H0V21.4901H3.13726V14.5279H9.74632V21.4901H12.8844V4.31287H9.74717ZM22.9262 15.9381C22.9262 16.6266 22.6527 17.2869 22.1659 17.7738C21.679 18.2606 21.0187 18.5341 20.3302 18.5341C19.6417 18.5341 18.9814 18.2606 18.4946 17.7738C18.0077 17.2869 17.7342 16.6266 17.7342 15.9381V8.58022H14.7583V15.9381C14.7583 17.4145 15.3448 18.8303 16.3887 19.8742C17.4326 20.9181 18.8484 21.5046 20.3247 21.5046C21.801 21.5046 23.2169 20.9181 24.2608 19.8742C25.3047 18.8303 25.8911 17.4145 25.8911 15.9381V8.58022H22.9262V15.9381ZM44.9771 9.33843C44.9771 7.82966 45.9747 7.35164 47.0675 7.35164C47.9488 7.35164 49.112 8.02239 49.8736 8.83579L51.8222 6.53824C50.8492 5.22221 48.8759 4.31287 47.2602 4.31287C44.0312 4.31287 41.6963 6.20372 41.6963 9.33843C41.6963 15.1545 48.8046 13.3086 48.8046 16.5639C48.8046 17.5675 47.8299 18.4539 46.7142 18.4539C44.9542 18.4539 44.3836 17.5938 43.5753 16.6836L41.4119 18.9328C42.7958 20.6309 44.5025 21.4935 46.5461 21.4935C49.6138 21.4935 52.0811 19.5798 52.0811 16.5877C52.0811 10.1315 44.972 12.1378 44.972 9.33843M88.9531 18.746C87.1947 18.746 86.6946 17.9852 86.6946 16.8203V11.6623H89.4286V9.0489H86.6946V5.60089L83.6771 6.95513V17.4614C83.6771 20.1486 85.5314 21.5029 88.0735 21.5029C88.4725 21.5097 88.8716 21.4774 89.2639 21.4078L90 18.6976C89.668 18.7205 89.2868 18.7434 88.9531 18.7434M34.2543 8.66598C32.7804 8.66598 31.7513 9.0939 30.7562 10.0695V4.4156H27.776V14.8955C27.776 18.8181 30.6119 21.5063 33.7992 21.5063C37.3347 21.5063 40.4448 18.7706 40.4448 15.0874C40.4448 11.45 37.5826 8.66853 34.2543 8.66853M34.2357 18.5065C33.7915 18.5065 33.3517 18.4191 32.9413 18.2491C32.531 18.0791 32.1581 17.83 31.8441 17.5159C31.53 17.2018 31.2809 16.829 31.1109 16.4186C30.9409 16.0083 30.8534 15.5685 30.8534 15.1243C30.8534 14.6802 30.9409 14.2404 31.1109 13.83C31.2809 13.4197 31.53 13.0468 31.8441 12.7327C32.1581 12.4187 32.531 12.1695 32.9413 11.9996C33.3517 11.8296 33.7915 11.7421 34.2357 11.7421C35.1327 11.7421 35.993 12.0985 36.6272 12.7327C37.2615 13.367 37.6179 14.2273 37.6179 15.1243C37.6179 16.0213 37.2615 16.8816 36.6272 17.5159C35.993 18.1502 35.1327 18.5065 34.2357 18.5065ZM66.6204 14.9312C66.6204 11.2412 63.5171 8.5123 59.9748 8.5123C56.7883 8.5123 53.9516 11.1996 53.9516 15.1231V25.6089H56.9318V19.9474C57.9252 20.9213 58.9559 21.3509 60.4282 21.3509C63.7565 21.3509 66.6204 18.5694 66.6204 14.9312ZM63.7981 14.8938C63.7981 15.7908 63.4418 16.6511 62.8075 17.2854C62.1732 17.9197 61.3129 18.276 60.4159 18.276C59.5189 18.276 58.6586 17.9197 58.0243 17.2854C57.39 16.6511 57.0337 15.7908 57.0337 14.8938C57.0337 13.9968 57.39 13.1365 58.0243 12.5022C58.6586 11.8679 59.5189 11.5116 60.4159 11.5116C61.3129 11.5116 62.1732 11.8679 62.8075 12.5022C63.4418 13.1365 63.7981 13.9968 63.7981 14.8938Z" fill="#33475B"/><path d="M76.2504 8.36789V5.37327C76.6461 5.18832 76.9812 4.89477 77.2165 4.52681C77.4519 4.15884 77.578 3.73159 77.58 3.29478V3.226C77.58 1.95242 76.5475 0.919965 75.2739 0.919965H75.2052C74.5936 0.919965 74.007 1.16292 73.5746 1.59539C73.1421 2.02785 72.8991 2.6144 72.8991 3.226V3.29478C72.9012 3.73159 73.0272 4.15884 73.2626 4.52681C73.498 4.89477 73.833 5.18832 74.2288 5.37327V8.36789C73.0914 8.54204 72.0203 9.01361 71.1238 9.73487L62.9108 3.33808C62.9694 3.12666 63 2.9093 63.0034 2.6911C63.0044 2.17717 62.853 1.67448 62.5682 1.24663C62.2835 0.818778 61.8783 0.484978 61.4038 0.287452C60.9294 0.0899266 60.407 0.0375501 59.9028 0.136948C59.3986 0.236346 58.9351 0.483052 58.5711 0.845861C58.2071 1.20867 57.9589 1.67128 57.8579 2.17518C57.7568 2.67908 57.8075 3.20163 58.0035 3.67673C58.1994 4.15182 58.5319 4.55813 58.9588 4.84425C59.3858 5.13037 59.8879 5.28344 60.4019 5.28412C60.8515 5.282 61.2927 5.16197 61.6814 4.936L69.7687 11.2292C69.0422 12.3268 68.6631 13.6177 68.681 14.9338C68.6989 16.2499 69.1128 17.5301 69.8689 18.6075L67.4091 21.0681C67.2103 21.0045 67.0032 20.9707 66.7944 20.9679C66.3726 20.9682 65.9603 21.0936 65.6097 21.3282C65.259 21.5628 64.9858 21.896 64.8245 22.2858C64.6632 22.6756 64.6211 23.1045 64.7035 23.5182C64.7859 23.932 64.9891 24.312 65.2874 24.6103C65.5857 24.9086 65.9657 25.1118 66.3794 25.1942C66.7932 25.2766 67.222 25.2344 67.6119 25.0732C68.0017 24.9119 68.3349 24.6387 68.5695 24.288C68.8041 23.9374 68.9295 23.5251 68.9298 23.1033C68.9271 22.8945 68.8933 22.6874 68.8296 22.4886L71.263 20.0543C72.0565 20.6652 72.9793 21.0864 73.9608 21.2855C74.9422 21.4847 75.9562 21.4566 76.9251 21.2033C77.8939 20.9501 78.792 20.4784 79.5504 19.8245C80.3089 19.1705 80.9076 18.3517 81.3006 17.4306C81.6937 16.5095 81.8707 15.5107 81.8182 14.5107C81.7656 13.5106 81.4848 12.5359 80.9974 11.6611C80.5099 10.7863 79.8286 10.0347 79.0058 9.46391C78.183 8.89308 77.2405 8.51817 76.2504 8.36789ZM75.2417 18.2169C74.792 18.2293 74.3443 18.1514 73.9252 17.9879C73.5061 17.8243 73.124 17.5784 72.8016 17.2647C72.4791 16.951 72.2228 16.5758 72.0478 16.1614C71.8728 15.7469 71.7826 15.3016 71.7826 14.8517C71.7826 14.4018 71.8728 13.9565 72.0478 13.542C72.2228 13.1276 72.4791 12.7524 72.8016 12.4387C73.124 12.125 73.5061 11.8791 73.9252 11.7155C74.3443 11.552 74.792 11.4741 75.2417 11.4865C76.1133 11.517 76.9391 11.8846 77.5451 12.5119C78.151 13.1391 78.4899 13.9771 78.4904 14.8492C78.4908 15.7214 78.1528 16.5597 77.5474 17.1875C76.9421 17.8154 76.1167 18.1838 75.2451 18.2152" fill="#FF7A59"/></g><defs><clipPath id="clip0_304_2872"><path fill="#fff" transform="translate(0 .09)" d="M0 0H90V26.321H0z"/></clipPath></defs></svg>