<svg width="100" height="30" viewBox="0 0 100 30" fill="none" xmlns="http://www.w3.org/2000/svg"><g clip-path="url(#clip0_304_2758)"><path d="M21.48 5.88651C21.46 5.74645 21.34 5.66642 21.24 5.66642C21.14 5.66642 19.16 5.6264 19.16 5.6264C19.16 5.6264 17.5 4.02576 17.34 3.84569C17.18 3.68562 16.86 3.72564 16.74 3.76566C16.74 3.76566 16.42 3.8657 15.9 4.02576C15.82 3.74565 15.68 3.40551 15.5 3.04537C14.92 1.92492 14.04 1.32468 13 1.32468C12.92 1.32468 12.86 1.32468 12.78 1.34469C12.74 1.30467 12.72 1.26466 12.68 1.24465C12.22 0.764456 11.64 0.52436 10.94 0.544368C9.60002 0.584384 8.26002 1.56478 7.16002 3.28546C6.40002 4.50595 5.82002 6.02656 5.64002 7.20703C4.10002 7.68722 3.02002 8.02736 2.98002 8.02736C2.20002 8.26746 2.18002 8.28746 2.08002 9.02776C2.04002 9.58799 2.28882e-05 25.3743 2.28882e-05 25.3743L17.12 28.3355L24.54 26.4947C24.52 26.4947 21.5 6.02656 21.48 5.88651ZM15.04 4.30587C14.64 4.42592 14.2 4.56598 13.72 4.72604C13.72 4.04577 13.62 3.08538 13.32 2.28506C14.34 2.44513 14.84 3.60559 15.04 4.30587ZM12.82 4.98615C11.92 5.26626 10.94 5.56638 9.96002 5.8665C10.24 4.80607 10.76 3.76566 11.4 3.06538C11.64 2.80527 11.98 2.52516 12.36 2.3651C12.76 3.14541 12.84 4.24585 12.82 4.98615ZM10.98 1.44473C11.3 1.44473 11.56 1.50475 11.78 1.66482C11.42 1.84489 11.06 2.125 10.74 2.48514C9.88002 3.40551 9.22002 4.82608 8.96002 6.20663C8.14002 6.46674 7.34002 6.70683 6.62002 6.92692C7.10002 4.74605 8.92002 1.50475 10.98 1.44473Z" fill="#95BF47"/><path d="M21.24 5.66637C21.14 5.66637 19.16 5.62636 19.16 5.62636C19.16 5.62636 17.5 4.02572 17.34 3.84565C17.28 3.78562 17.2 3.74561 17.12 3.74561V28.3354L24.54 26.4947C24.54 26.4947 21.52 6.02652 21.5 5.88646C21.46 5.74641 21.34 5.66637 21.24 5.66637Z" fill="#5E8E3E"/><path d="M13 9.4878L12.14 12.7091C12.14 12.7091 11.18 12.2689 10.04 12.3489C8.36004 12.449 8.36004 13.5094 8.36004 13.7695C8.46004 15.2101 12.24 15.5302 12.46 18.9116C12.62 21.5726 11.06 23.3934 8.78004 23.5334C6.06004 23.6735 4.56004 22.0728 4.56004 22.0728L5.14004 19.6119C5.14004 19.6119 6.66004 20.7523 7.86004 20.6723C8.64004 20.6323 8.94004 19.972 8.90004 19.5318C8.78004 17.6511 5.70004 17.7711 5.50004 14.6699C5.34004 12.0688 7.04004 9.44779 10.8 9.20769C12.26 9.10765 13 9.4878 13 9.4878Z" fill="#fff"/><path d="M34.58 16.3506C33.72 15.8904 33.28 15.4903 33.28 14.9501C33.28 14.2698 33.9 13.8296 34.86 13.8296C35.98 13.8296 36.98 14.2898 36.98 14.2898L37.76 11.8888C37.76 11.8888 37.04 11.3286 34.92 11.3286C31.96 11.3286 29.9 13.0293 29.9 15.4102C29.9 16.7708 30.86 17.7912 32.14 18.5315C33.18 19.1117 33.54 19.5319 33.54 20.1521C33.54 20.7924 33.02 21.3126 32.06 21.3126C30.64 21.3126 29.28 20.5723 29.28 20.5723L28.44 22.9733C28.44 22.9733 29.68 23.8136 31.78 23.8136C34.82 23.8136 37.02 22.313 37.02 19.6119C37 18.1513 35.9 17.1109 34.58 16.3506Z" fill="#000"/><path d="M46.7001 11.2889C45.2001 11.2889 44.0201 12.0091 43.1201 13.0896L43.0801 13.0696L44.3801 6.26685H41.0001L37.7001 23.5938H41.0801L42.2001 17.6714C42.6401 15.4305 43.8001 14.05 44.8801 14.05C45.6401 14.05 45.9401 14.5702 45.9401 15.3105C45.9401 15.7706 45.9001 16.3509 45.8001 16.8111L44.5201 23.5938H47.9001L49.2201 16.591C49.3601 15.8507 49.4601 14.9703 49.4601 14.3701C49.4801 12.4493 48.4801 11.2889 46.7001 11.2889Z" fill="#000"/><path d="M57.14 11.2888C53.06 11.2888 50.36 14.9703 50.36 19.0719C50.36 21.693 51.98 23.8138 55.02 23.8138C59.02 23.8138 61.72 20.2324 61.72 16.0307C61.74 13.6097 60.32 11.2888 57.14 11.2888ZM55.48 21.2328C54.32 21.2328 53.84 20.2524 53.84 19.0119C53.84 17.0711 54.84 13.9099 56.68 13.9099C57.88 13.9099 58.28 14.9503 58.28 15.9507C58.28 18.0315 57.26 21.2328 55.48 21.2328Z" fill="#000"/><path d="M70.4001 11.2888C68.1201 11.2888 66.8201 13.3096 66.8201 13.3096H66.7801L66.9801 11.4889H63.9801C63.8401 12.7094 63.5601 14.5901 63.3001 15.9907L60.9401 28.3957H64.3201L65.2601 23.3737H65.3401C65.3401 23.3737 66.0401 23.8138 67.3201 23.8138C71.3001 23.8138 73.9001 19.7322 73.9001 15.6105C73.9001 13.3296 72.8801 11.2888 70.4001 11.2888ZM67.1601 21.2728C66.2801 21.2728 65.7601 20.7726 65.7601 20.7726L66.3201 17.6113C66.7201 15.4905 67.8201 14.0899 69.0001 14.0899C70.0401 14.0899 70.3601 15.0503 70.3601 15.9507C70.3601 18.1516 69.0601 21.2728 67.1601 21.2728Z" fill="#000"/><path d="M78.7401 6.42676C77.6601 6.42676 76.8 7.2871 76.8 8.38754C76.8 9.38794 77.44 10.0882 78.4 10.0882H78.4401C79.5001 10.0882 80.4001 9.36793 80.4201 8.12744C80.4201 7.14705 79.7601 6.42676 78.7401 6.42676Z" fill="#000"/><path d="M74.0001 23.5736H77.3801L79.6801 11.5688H76.2801L74.0001 23.5736Z" fill="#000"/><path d="M88.3 11.5488H85.94L86.06 10.9886C86.26 9.82813 86.94 8.80772 88.08 8.80772C88.68 8.80772 89.16 8.9878 89.16 8.9878L89.82 6.32673C89.82 6.32673 89.24 6.02661 87.98 6.02661C86.78 6.02661 85.58 6.36675 84.66 7.14706C83.5 8.12745 82.96 9.54802 82.7 10.9886L82.6 11.5488H81.02L80.52 14.1098H82.1L80.3 23.5936H83.68L85.48 14.1098H87.82L88.3 11.5488Z" fill="#000"/><path d="M96.4601 11.5688C96.4601 11.5688 94.3401 16.911 93.4001 19.8322H93.3601C93.3001 18.8918 92.5201 11.5688 92.5201 11.5688H88.9601L91.0001 22.5933C91.0401 22.8334 91.0201 22.9934 90.9201 23.1535C90.5201 23.9138 89.8601 24.6541 89.0801 25.1943C88.4401 25.6545 87.7201 25.9546 87.1601 26.1547L88.1001 29.0358C88.7801 28.8958 90.2201 28.3155 91.4201 27.1951C92.9601 25.7545 94.4001 23.5136 95.8601 20.4724L100 11.5688H96.4601Z" fill="#000"/></g><defs><clipPath id="clip0_304_2758"><path fill="#fff" transform="translate(0 .464)" d="M0 0H100V28.571H0z"/></clipPath></defs></svg>