<svg width="140" height="40" viewBox="0 0 140 40" fill="none" xmlns="http://www.w3.org/2000/svg"><g clip-path="url(#clip0_339_2728)"><path d="M30.072 7.59096C30.044 7.39488 29.876 7.28284 29.736 7.28284C29.596 7.28284 26.824 7.22681 26.824 7.22681C26.824 7.22681 24.5 4.98592 24.276 4.73382C24.052 4.50973 23.604 4.56575 23.436 4.62177C23.436 4.62177 22.988 4.76183 22.26 4.98592C22.148 4.59376 21.952 4.11757 21.7 3.61337C20.888 2.04474 19.656 1.20441 18.2 1.20441C18.088 1.20441 18.004 1.20441 17.892 1.23242C17.836 1.17639 17.808 1.12037 17.752 1.09236C17.108 0.420092 16.296 0.083958 15.316 0.111969C13.44 0.167992 11.564 1.54054 10.024 3.9495C8.95998 5.65819 8.14798 7.78704 7.89598 9.4397C5.73998 10.112 4.22798 10.5882 4.17198 10.5882C3.07998 10.9243 3.05198 10.9523 2.91198 11.9887C2.85598 12.773 -2.28882e-05 34.8739 -2.28882e-05 34.8739L23.968 39.0195L34.356 36.4425C34.328 36.4425 30.1 7.78704 30.072 7.59096ZM21.056 5.37808C20.496 5.54614 19.88 5.74222 19.208 5.96631C19.208 5.01393 19.068 3.66939 18.648 2.54894C20.076 2.77303 20.776 4.39768 21.056 5.37808ZM17.948 6.33046C16.688 6.72261 15.316 7.14278 13.944 7.56295C14.336 6.07835 15.064 4.62177 15.96 3.64138C16.296 3.27723 16.772 2.88508 17.304 2.66099C17.864 3.75343 17.976 5.29404 17.948 6.33046ZM15.372 1.37247C15.82 1.37247 16.184 1.45651 16.492 1.6806C15.988 1.9327 15.484 2.32485 15.036 2.82906C13.832 4.11757 12.908 6.10637 12.544 8.03914C11.396 8.40329 10.276 8.73942 9.26798 9.04754C9.93998 5.99432 12.488 1.45651 15.372 1.37247Z" fill="#95BF47"/><path d="M29.736 7.28283C29.596 7.28283 26.824 7.2268 26.824 7.2268C26.824 7.2268 24.5 4.98591 24.276 4.73381C24.192 4.64977 24.08 4.59375 23.968 4.59375V39.0195L34.356 36.4425C34.356 36.4425 30.128 7.78703 30.1 7.59095C30.044 7.39487 29.876 7.28283 29.736 7.28283Z" fill="#5E8E3E"/><path d="M18.2001 12.6329L16.9961 17.1427C16.9961 17.1427 15.6521 16.5265 14.0561 16.6385C11.7041 16.7786 11.7041 18.2632 11.7041 18.6273C11.8441 20.6441 17.1361 21.0923 17.4441 25.8262C17.6681 29.5517 15.4841 32.1007 12.2921 32.2968C8.48406 32.4929 6.38406 30.252 6.38406 30.252L7.19606 26.8066C7.19606 26.8066 9.32406 28.4032 11.0041 28.2912C12.0961 28.2352 12.5161 27.3108 12.4601 26.6945C12.2921 24.0615 7.98006 24.2296 7.70006 19.8878C7.47606 16.2464 9.85606 12.5769 15.1201 12.2408C17.1641 12.1007 18.2001 12.6329 18.2001 12.6329Z" fill="#fff"/><path d="M48.4121 22.2408C47.2081 21.5965 46.5921 21.0363 46.5921 20.28C46.5921 19.3276 47.4601 18.7114 48.8041 18.7114C50.3721 18.7114 51.7721 19.3556 51.7721 19.3556L52.8641 15.9943C52.8641 15.9943 51.8561 15.21 48.8881 15.21C44.7441 15.21 41.8601 17.5909 41.8601 20.9242C41.8601 22.829 43.2041 24.2576 44.9961 25.294C46.4521 26.1063 46.9561 26.6946 46.9561 27.5629C46.9561 28.4593 46.2281 29.1876 44.8841 29.1876C42.8961 29.1876 40.9921 28.1511 40.9921 28.1511L39.8161 31.5125C39.8161 31.5125 41.5521 32.689 44.4921 32.689C48.7481 32.689 51.8281 30.5881 51.8281 26.8066C51.8001 24.7618 50.2601 23.3052 48.4121 22.2408Z" fill="#000"/><path d="M65.3801 15.1541C63.2801 15.1541 61.6281 16.1625 60.3681 17.6751L60.3121 17.6471L62.1321 8.12329H57.4001L52.7801 32.381H57.5121L59.0801 24.0897C59.6961 20.9524 61.3201 19.0196 62.8321 19.0196C63.8961 19.0196 64.3161 19.7479 64.3161 20.7844C64.3161 21.4286 64.2601 22.2409 64.1201 22.8852L62.3281 32.381H67.0601L68.9081 22.5771C69.1041 21.5407 69.2441 20.3082 69.2441 19.4678C69.2721 16.7788 67.8721 15.1541 65.3801 15.1541Z" fill="#000"/><path d="M79.9961 15.1541C74.2841 15.1541 70.5041 20.3081 70.5041 26.0504C70.5041 29.7199 72.7721 32.6891 77.0281 32.6891C82.6281 32.6891 86.4081 27.6751 86.4081 21.7927C86.4361 18.4034 84.4481 15.1541 79.9961 15.1541ZM77.6721 29.0756C76.0481 29.0756 75.3761 27.7031 75.3761 25.9664C75.3761 23.2493 76.7761 18.8235 79.3521 18.8235C81.0321 18.8235 81.5921 20.2801 81.5921 21.6807C81.5921 24.5938 80.1641 29.0756 77.6721 29.0756Z" fill="#000"/><path d="M98.5601 15.1541C95.3681 15.1541 93.5481 17.9832 93.5481 17.9832H93.4921L93.7721 15.4342H89.5721C89.3761 17.1428 88.9841 19.7759 88.6201 21.7367L85.3161 39.1036H90.0481L91.3641 32.0728H91.4761C91.4761 32.0728 92.4561 32.6891 94.2481 32.6891C99.8201 32.6891 103.46 26.9748 103.46 21.2045C103.46 18.0112 102.032 15.1541 98.5601 15.1541ZM94.0241 29.1316C92.7921 29.1316 92.0641 28.4314 92.0641 28.4314L92.8481 24.0056C93.4081 21.0364 94.9481 19.0756 96.6001 19.0756C98.0561 19.0756 98.5041 20.4202 98.5041 21.6807C98.5041 24.7619 96.6841 29.1316 94.0241 29.1316Z" fill="#000"/><path d="M110.236 8.34741C108.724 8.34741 107.52 9.55189 107.52 11.0925C107.52 12.4931 108.416 13.4735 109.76 13.4735H109.816C111.3 13.4735 112.56 12.4651 112.588 10.7284C112.588 9.35582 111.664 8.34741 110.236 8.34741Z" fill="#000"/><path d="M103.6 32.3529H108.332L111.552 15.5461H106.792L103.6 32.3529Z" fill="#000"/><path d="M123.62 15.5182H120.316L120.484 14.7339C120.764 13.1092 121.716 11.6807 123.312 11.6807C124.152 11.6807 124.824 11.9328 124.824 11.9328L125.748 8.20728C125.748 8.20728 124.936 7.78711 123.172 7.78711C121.492 7.78711 119.812 8.2633 118.524 9.35574C116.9 10.7283 116.144 12.7171 115.78 14.7339L115.64 15.5182H113.428L112.728 19.1036H114.94L112.42 32.3809H117.152L119.672 19.1036H122.948L123.62 15.5182Z" fill="#000"/><path d="M135.044 15.5461C135.044 15.5461 132.076 23.0251 130.76 27.1148H130.704C130.62 25.7982 129.528 15.5461 129.528 15.5461H124.544L127.4 30.9803C127.456 31.3164 127.428 31.5405 127.288 31.7646C126.728 32.8291 125.804 33.8655 124.712 34.6218C123.816 35.266 122.808 35.6862 122.024 35.9663L123.34 39.9999C124.292 39.8038 126.308 38.9915 127.988 37.4229C130.144 35.4061 132.16 32.2688 134.204 28.0111L140 15.5461H135.044Z" fill="#000"/></g><defs><clipPath id="clip0_339_2728"><path fill="#fff" d="M0 0H140V40H0z"/></clipPath></defs></svg>