<svg width="44" height="44" viewBox="0 0 44 44" fill="none" xmlns="http://www.w3.org/2000/svg"><g opacity=".3"><path d="M22 38.5C31.1127 38.5 38.5 31.1127 38.5 22C38.5 12.8873 31.1127 5.5 22 5.5C12.8873 5.5 5.5 12.8873 5.5 22C5.5 31.1127 12.8873 38.5 22 38.5Z" stroke="#7F52FF" stroke-width="2.6" stroke-linecap="round" stroke-linejoin="round"/><path d="M16.575 18.5625C16.575 18.9836 16.2336 19.325 15.8125 19.325C15.3914 19.325 15.05 18.9836 15.05 18.5625C15.05 18.1414 15.3914 17.8 15.8125 17.8C16.2336 17.8 16.575 18.1414 16.575 18.5625Z" fill="#7F52FF" stroke="#7F52FF" stroke-width="2.6"/><path d="M28.1875 20.625C29.3266 20.625 30.25 19.7016 30.25 18.5625C30.25 17.4234 29.3266 16.5 28.1875 16.5C27.0484 16.5 26.125 17.4234 26.125 18.5625C26.125 19.7016 27.0484 20.625 28.1875 20.625Z" fill="#7F52FF"/><path d="M28.875 26.125C27.4484 28.5914 25.0542 30.25 22 30.25C18.9458 30.25 16.5516 28.5914 15.125 26.125" stroke="#7F52FF" stroke-width="2.6" stroke-linecap="round" stroke-linejoin="round"/></g></svg>