<svg width="34" height="32" viewBox="0 0 34 32" fill="none" xmlns="http://www.w3.org/2000/svg"><path d="M15.1572 1.36924C15.8448 -0.261118 18.1552 -0.261119 18.8428 1.36924L21.8676 8.54109C22.1563 9.22553 22.8006 9.6936 23.5407 9.75664L31.2963 10.4172C33.0593 10.5674 33.7733 12.7647 32.4352 13.9224L26.5491 19.0155C25.9873 19.5015 25.7413 20.2589 25.91 20.9823L27.6784 28.5624C28.0804 30.2855 26.2113 31.6435 24.6967 30.7287L18.034 26.7045C17.3982 26.3205 16.6018 26.3205 15.966 26.7045L9.30333 30.7287C7.78872 31.6435 5.91962 30.2855 6.32161 28.5624L8.08997 20.9823C8.25873 20.2589 8.01265 19.5015 7.45091 19.0155L1.56481 13.9224C0.226735 12.7647 0.940667 10.5674 2.70372 10.4172L10.4593 9.75664C11.1994 9.6936 11.8437 9.22554 12.1324 8.54109L15.1572 1.36924Z" fill="#F7CE3C"/></svg>