<svg width="130" height="27" viewBox="0 0 130 27" fill="none" xmlns="http://www.w3.org/2000/svg"><path fill-rule="evenodd" clip-rule="evenodd" d="M39.9309 0.143799H4.08695C1.81856 0.143799 -0.0177424 1.9981 0.000129354 4.24848V17.9308C0.000129354 20.1991 1.83657 22.0354 4.10495 22.0354H21.0817L28.8411 26.3561L27.0768 22.0354H39.9309C42.1994 22.0354 44.0356 20.1991 44.0356 17.9308V4.24848C44.0356 1.9801 42.1994 0.143799 39.9309 0.143799ZM3.3309 3.31232C2.82681 3.34833 2.44874 3.52836 2.1967 3.87041C1.94466 4.19447 1.85465 4.60854 1.90865 5.07662C2.97083 11.8278 3.961 16.3825 4.87915 18.7409C5.23922 19.605 5.65328 20.0192 6.13937 19.9832C6.89548 19.9291 7.79564 18.8849 8.85781 16.8506C9.41591 15.6983 10.2801 13.9701 11.4503 11.6657C12.4224 15.0682 13.7546 17.6248 15.4289 19.335C15.897 19.8211 16.3831 20.0371 16.8511 20.0011C17.2653 19.9651 17.5892 19.749 17.8053 19.3529C17.9853 19.0109 18.0573 18.6148 18.0213 18.1648C17.9133 16.5265 18.0754 14.2402 18.5255 11.3057C18.9935 8.28116 19.5696 6.10279 20.2717 4.80657C20.4157 4.53653 20.4697 4.26647 20.4518 3.94243C20.4157 3.52835 20.2357 3.1863 19.8937 2.91626C19.5517 2.64622 19.1735 2.5202 18.7595 2.55619C18.2374 2.5922 17.8413 2.84424 17.5713 3.34833C16.4551 5.38267 15.6629 8.67722 15.1949 13.25C14.5108 11.5217 13.9346 9.48735 13.4846 7.09295C13.2866 6.03078 12.8005 5.52669 12.0083 5.5807C11.4682 5.6167 11.0182 5.97677 10.6581 6.66088L6.71546 14.1681C6.06735 11.5577 5.45525 8.37117 4.89716 4.60854C4.77114 3.67239 4.24904 3.2403 3.3309 3.31232ZM38.0227 4.60859C39.3009 4.87865 40.2551 5.56276 40.9032 6.69694C41.4793 7.66911 41.7673 8.83931 41.7673 10.2435C41.7673 12.0978 41.2993 13.7901 40.363 15.3384C39.2829 17.1387 37.8786 18.0388 36.1324 18.0388C35.8264 18.0388 35.5023 18.0028 35.1601 17.9308C33.882 17.6608 32.9278 16.9767 32.2797 15.8425C31.7036 14.8523 31.4156 13.6641 31.4156 12.2778C31.4156 10.4236 31.8837 8.73128 32.8198 7.20103C33.918 5.40073 35.3222 4.50058 37.0506 4.50058C37.3566 4.50058 37.6807 4.53659 38.0227 4.60859ZM37.2666 14.3482C37.9327 13.7541 38.3828 12.8719 38.6348 11.6838C38.7068 11.2697 38.7608 10.8196 38.7608 10.3516C38.7608 9.82947 38.6528 9.27138 38.4367 8.71328C38.1667 8.01116 37.8066 7.6331 37.3745 7.54308C36.7265 7.41706 36.0964 7.77713 35.5023 8.65927C35.0162 9.34338 34.7101 10.0635 34.5481 10.8016C34.458 11.2157 34.422 11.6658 34.422 12.1159C34.422 12.6379 34.5301 13.196 34.7461 13.7541C35.0162 14.4562 35.3762 14.8342 35.8083 14.9243C36.2584 15.0143 36.7444 14.8163 37.2666 14.3482ZM29.6153 6.69694C28.9671 5.56276 27.995 4.87865 26.7348 4.60859C26.3926 4.53659 26.0687 4.50058 25.7625 4.50058C24.0343 4.50058 22.6301 5.40073 21.5319 7.20103C20.5957 8.73128 20.1277 10.4236 20.1277 12.2778C20.1277 13.6641 20.4157 14.8523 20.9918 15.8425C21.6399 16.9767 22.5941 17.6608 23.8722 17.9308C24.2143 18.0028 24.5384 18.0388 24.8445 18.0388C26.5907 18.0388 27.995 17.1387 29.0751 15.3384C30.0113 13.7901 30.4793 12.0978 30.4793 10.2435C30.4793 8.83931 30.1913 7.66911 29.6153 6.69694ZM27.3468 11.6838C27.0949 12.8719 26.6447 13.7541 25.9786 14.3482C25.4565 14.8163 24.9705 15.0143 24.5204 14.9243C24.0883 14.8342 23.7282 14.4562 23.4582 13.7541C23.2422 13.196 23.1341 12.6379 23.1341 12.1159C23.1341 11.6658 23.1701 11.2157 23.2602 10.8016C23.4222 10.0635 23.7282 9.34338 24.2143 8.65927C24.8085 7.77713 25.4386 7.41706 26.0866 7.54308C26.5187 7.6331 26.8788 8.01116 27.1488 8.71328C27.3649 9.27138 27.4729 9.82947 27.4729 10.3516C27.4729 10.8196 27.4369 11.2697 27.3468 11.6838Z" fill="#7F54B3"/><path fill-rule="evenodd" clip-rule="evenodd" d="M48.5903 6.53475C47.3841 7.72295 46.79 9.23519 46.79 11.0715C46.79 13.0338 47.3841 14.6361 48.5724 15.8423C49.7605 17.0485 51.3088 17.6606 53.2351 17.6606C53.7932 17.6606 54.4233 17.5706 55.1074 17.3725V14.456C54.4773 14.6361 53.9372 14.7261 53.4691 14.7261C52.5149 14.7261 51.7588 14.4021 51.1827 13.772C50.6067 13.1238 50.3186 12.2597 50.3186 11.1615C50.3186 10.1353 50.6067 9.28921 51.1648 8.64109C51.7408 7.97499 52.4429 7.65093 53.3071 7.65093C53.8652 7.65093 54.4593 7.74094 55.1074 7.92098V5.00449C54.5133 4.84246 53.8472 4.77045 53.145 4.77045C51.3088 4.75244 49.7965 5.34655 48.5903 6.53475ZM61.0844 4.75244C59.4282 4.75244 58.1319 5.31054 57.1957 6.40872C56.2596 7.50691 55.8096 9.05517 55.8096 11.0355C55.8096 13.1779 56.2776 14.8161 57.1957 15.9503C58.1139 17.0846 59.4642 17.6606 61.2285 17.6606C62.9387 17.6606 64.2529 17.0846 65.171 15.9503C66.0892 14.8161 66.5573 13.2139 66.5573 11.1615C66.5573 9.10917 66.0892 7.52491 65.1531 6.40872C64.1989 5.31054 62.8486 4.75244 61.0844 4.75244ZM62.5066 14.114C62.1825 14.6181 61.6965 14.8702 61.0844 14.8702C60.5083 14.8702 60.0762 14.6181 59.7702 14.114C59.4642 13.6099 59.3201 12.6017 59.3201 11.0715C59.3201 8.71311 59.9142 7.54291 61.1204 7.54291C62.3806 7.54291 63.0287 8.73112 63.0287 11.1255C63.0107 12.6017 62.8307 13.6099 62.5066 14.114ZM75.4508 5.0945L74.8027 7.84897C74.6407 8.55108 74.4787 9.2712 74.3347 10.0093L73.9746 11.9177C73.6325 10.0093 73.1644 7.74094 72.5703 5.0945H68.3937L66.8273 17.3546H69.9599L70.806 8.91114L72.9484 17.3546H75.1808L77.2331 8.92914L78.1152 17.3546H81.3918L79.7355 5.0945H75.4508ZM90.4473 5.0945L89.7992 7.84897C89.6371 8.55108 89.4751 9.2712 89.3311 10.0093L88.971 11.9177C88.629 10.0093 88.1609 7.74094 87.5668 5.0945H83.3901L81.8239 17.3546H84.9563L85.8025 8.91114L87.9448 17.3546H90.1773L92.2116 8.92914L93.0937 17.3546H96.3703L94.714 5.0945H90.4473ZM100.637 12.5118H103.572V9.97332H100.637V7.72294H104.022V5.11251H97.3245V17.3725H104.04V14.7622H100.637V12.5118ZM113.365 10.5674C113.707 10.0093 113.887 9.43323 113.887 8.83913C113.887 7.68694 113.437 6.76879 112.537 6.10267C111.637 5.43656 110.395 5.0945 108.846 5.0945H104.994V17.3546H108.306V11.7737H108.36L111.043 17.3546H114.535L111.889 11.8276C112.519 11.5396 113.023 11.1255 113.365 10.5674ZM108.288 10.3694V7.4529C109.08 7.4709 109.638 7.59692 109.981 7.84897C110.323 8.10101 110.485 8.49707 110.485 9.07317C110.485 9.9193 109.747 10.3514 108.288 10.3694ZM115.831 6.53475C114.625 7.72295 114.031 9.23519 114.031 11.0715C114.031 13.0338 114.625 14.6361 115.814 15.8423C117.002 17.0485 118.55 17.6606 120.477 17.6606C121.035 17.6606 121.665 17.5706 122.348 17.3725V14.456C121.719 14.6361 121.178 14.7261 120.71 14.7261C119.756 14.7261 119.001 14.4021 118.424 13.772C117.848 13.1238 117.56 12.2597 117.56 11.1615C117.56 10.1353 117.848 9.28921 118.406 8.64109C118.982 7.97499 119.684 7.65093 120.548 7.65093C121.106 7.65093 121.701 7.74094 122.348 7.92098V5.00449C121.755 4.84246 121.089 4.77045 120.387 4.77045C118.568 4.75244 117.038 5.34655 115.831 6.53475ZM126.58 14.7261V12.4937H129.513V9.95531H126.58V7.70495H129.981V5.0945H123.285V17.3546H130V14.7441H126.58V14.7261Z" fill="#000"/></svg>