<svg width="130" height="30" viewBox="0 0 130 30" fill="none" xmlns="http://www.w3.org/2000/svg"><g clip-path="url(#clip0_304_2728)"><path d="M75.3747 12.1216H70.2588V12.6628C71.859 12.6628 72.1163 13.0048 72.1163 15.0286V18.6771C72.1163 20.7006 71.8593 21.0712 70.2588 21.0712C69.0302 20.9003 68.2011 20.2446 67.058 18.9905L65.7434 17.5656C67.5152 17.2516 68.4582 16.1404 68.4582 14.8861C68.4582 13.3188 67.1152 12.1216 64.6 12.1216H59.5701V12.6628C61.1703 12.6628 61.4275 13.0048 61.4275 15.0286V18.6771C61.4275 20.7006 61.1703 21.0712 59.5701 21.0712V21.6127H65.2573V21.0712C63.6571 21.0712 63.3998 20.7006 63.3998 18.6771V17.6512H63.8855L67.058 21.6127H75.3747C79.4615 21.6127 81.2335 19.4468 81.2335 16.8527C81.2335 14.2591 79.4617 12.1216 75.3747 12.1216ZM63.4 16.767V12.9767H64.5716C65.8575 12.9767 66.4293 13.8602 66.4293 14.8863C66.4293 15.884 65.8575 16.7673 64.5716 16.7673L63.4 16.767ZM75.4606 20.7292H75.2604C74.2318 20.7292 74.0888 20.4728 74.0888 19.1616V12.9767C74.0888 12.9767 75.3463 12.9767 75.4606 12.9767C78.4329 12.9767 78.9756 15.1426 78.9756 16.8244C78.9756 18.5628 78.4326 20.7292 75.4606 20.7292Z" fill="#00749A"/><path d="M43.6517 17.8222L45.6238 12.0074C46.1956 10.3259 45.9383 9.84151 44.1093 9.84151V9.27124H49.4822V9.84151C47.6817 9.84151 47.2531 10.269 46.5386 12.3496L43.2802 22.0973H42.9088L39.9934 13.176L37.0214 22.0973H36.6498L33.4775 12.3496C32.7916 10.269 32.3344 9.84151 30.6766 9.84151V9.27124H37.0214V9.84151C35.335 9.84151 34.8775 10.2404 35.478 12.0074L37.3927 17.8222L40.2793 9.27124H40.8225L43.6517 17.8222Z" fill="#00749A"/><path d="M53.3685 21.983C50.2249 21.983 47.6526 19.6745 47.6526 16.8524C47.6526 14.0594 50.2251 11.7505 53.3685 11.7505C56.5123 11.7505 59.0844 14.0594 59.0844 16.8524C59.0844 19.6745 56.5123 21.983 53.3685 21.983ZM53.3685 12.6347C50.7395 12.6347 49.8247 15 49.8247 16.8527C49.8247 18.7341 50.7395 21.0712 53.3685 21.0712C56.0267 21.0712 56.9412 18.7341 56.9412 16.8527C56.9412 15 56.0267 12.6347 53.3685 12.6347Z" fill="#00749A"/><path d="M88.2923 21.0427V21.6127H81.7476V21.0427C83.6626 21.0427 84.0055 20.5583 84.0055 17.7077V13.1477C84.0055 10.2971 83.6626 9.84127 81.7476 9.84127V9.271H87.6634C90.607 9.271 92.2366 10.7816 92.2366 12.8057C92.2366 14.7723 90.607 16.3113 87.6634 16.3113H86.0343V17.7075C86.0343 20.5583 86.3773 21.0427 88.2923 21.0427ZM87.6634 10.2971H86.0343V15.2567H87.6634C89.2641 15.2567 90.007 14.1452 90.007 12.8057C90.007 11.4376 89.2641 10.2971 87.6634 10.2971Z" fill="#464342"/><path d="M111.87 18.9336L111.727 19.4465C111.47 20.3871 111.155 20.7292 109.126 20.7292H108.726C107.24 20.7292 106.983 20.3871 106.983 18.3636V17.0526C109.212 17.0526 109.384 17.2519 109.384 18.7342H109.927V14.4871H109.384C109.384 15.9692 109.212 16.1687 106.983 16.1687V12.9767H108.555C110.584 12.9767 110.898 13.3188 111.155 14.2594L111.299 14.8006H111.756L111.556 12.1216H103.153V12.6628C104.753 12.6628 105.011 13.0048 105.011 15.0286V18.6771C105.011 20.5283 104.792 20.9946 103.531 21.0611C102.331 20.8785 101.508 20.2261 100.382 18.9905L99.0667 17.5656C100.839 17.2516 101.782 16.1404 101.782 14.8861C101.782 13.3188 100.439 12.1216 97.9238 12.1216H92.8939V12.6628C94.4941 12.6628 94.7513 13.0048 94.7513 15.0286V18.6771C94.7513 20.7006 94.4943 21.0712 92.8939 21.0712V21.6127H98.5813V21.0712C96.9811 21.0712 96.7236 20.7006 96.7236 18.6771V17.6512H97.2095L100.382 21.6127H112.128L112.299 18.9339L111.87 18.9336ZM96.7234 16.767V12.9767H97.8949C99.1811 12.9767 99.7529 13.8602 99.7529 14.8863C99.7529 15.884 99.1811 16.7673 97.8949 16.7673L96.7234 16.767Z" fill="#464342"/><path d="M117.672 21.983C116.529 21.983 115.528 21.3846 115.1 21.0138C114.957 21.1566 114.7 21.5841 114.642 21.983H114.099V18.0501H114.671C114.9 19.9311 116.214 21.0426 117.9 21.0426C118.815 21.0426 119.558 20.5297 119.558 19.6748C119.558 18.9338 118.901 18.3636 117.729 17.8221L116.1 17.0526C114.957 16.5107 114.099 15.5701 114.099 14.3162C114.099 12.9482 115.385 11.7798 117.157 11.7798C118.101 11.7798 118.901 12.1218 119.387 12.5207C119.529 12.4067 119.672 12.093 119.758 11.7507H120.301V15.1143H119.701C119.501 13.7745 118.758 12.663 117.243 12.663C116.443 12.663 115.7 13.119 115.7 13.8319C115.7 14.5728 116.3 14.9717 117.672 15.5989L119.244 16.3683C120.616 17.0238 121.158 18.0789 121.158 18.9338C121.158 20.7291 119.587 21.983 117.672 21.983Z" fill="#464342"/><path d="M126.474 21.983C125.331 21.983 124.33 21.3846 123.902 21.0138C123.759 21.1566 123.502 21.5841 123.445 21.983H122.902V18.0501H123.473C123.702 19.9311 125.016 21.0426 126.703 21.0426C127.617 21.0426 128.36 20.5297 128.36 19.6748C128.36 18.9338 127.703 18.3636 126.531 17.8221L124.902 17.0526C123.759 16.5107 122.901 15.5701 122.901 14.3162C122.901 12.9482 124.188 11.7798 125.96 11.7798C126.903 11.7798 127.703 12.1218 128.189 12.5207C128.332 12.4067 128.475 12.093 128.56 11.7507H129.103V15.1143H128.503C128.303 13.7745 127.56 12.663 126.046 12.663C125.245 12.663 124.502 13.119 124.502 13.8319C124.502 14.5728 125.102 14.9717 126.474 15.5989L128.046 16.3683C129.418 17.0238 129.96 18.0789 129.96 18.9338C129.96 20.7291 128.389 21.983 126.474 21.983Z" fill="#464342"/><path d="M2.0957 15.2496C2.0957 20.2424 5.00513 24.5571 9.22404 26.6017L3.19074 10.1162C2.48895 11.6849 2.0957 13.4209 2.0957 15.2496Z" fill="#464342"/><path d="M23.2822 14.6131C23.2822 13.0542 22.7207 11.9747 22.2392 11.1344C21.598 10.0954 20.9971 9.21547 20.9971 8.17646C20.9971 7.01695 21.8789 5.93761 23.121 5.93761C23.177 5.93761 23.2302 5.94457 23.2849 5.94769C21.0346 3.89174 18.0366 2.63647 14.7438 2.63647C10.3251 2.63647 6.43764 4.8974 4.17609 8.3219C4.47283 8.33078 4.75249 8.33702 4.99002 8.33702C6.31297 8.33702 8.36081 8.17693 8.36081 8.17693C9.04263 8.13685 9.12301 9.13555 8.44192 9.21595C8.44192 9.21595 7.75674 9.29636 6.9943 9.3362L11.6002 22.9989L14.3681 14.7202L12.3975 9.33572C11.7164 9.29588 11.0712 9.21547 11.0712 9.21547C10.3896 9.17563 10.4695 8.13637 11.1511 8.17646C11.1511 8.17646 13.2399 8.33654 14.4827 8.33654C15.8054 8.33654 17.8535 8.17646 17.8535 8.17646C18.5358 8.13637 18.6159 9.13507 17.9346 9.21547C17.9346 9.21547 17.2479 9.29588 16.487 9.33572L21.0577 22.895L22.3193 18.6907C22.8661 16.946 23.2822 15.6929 23.2822 14.6131Z" fill="#464342"/><path d="M14.9657 16.353L11.1708 27.3502C12.3039 27.6824 13.5022 27.8641 14.7438 27.8641C16.2167 27.8641 17.6292 27.6101 18.9439 27.1491C18.91 27.095 18.8792 27.0377 18.8539 26.9753L14.9657 16.353Z" fill="#464342"/><path d="M25.8419 9.198C25.8963 9.59978 25.9271 10.0311 25.9271 10.495C25.9271 11.775 25.6874 13.2139 24.9654 15.013L21.102 26.1528C24.8622 23.966 27.3914 19.9033 27.3914 15.2499C27.3916 13.0569 26.8299 10.9947 25.8419 9.198Z" fill="#464342"/><path d="M14.7438 0.546387C6.61427 0.546387 0 7.14218 0 15.2496C0 23.3579 6.61427 29.9535 14.7438 29.9535C22.873 29.9535 29.4883 23.3579 29.4883 15.2496C29.488 7.14218 22.873 0.546387 14.7438 0.546387ZM14.7438 29.2795C6.98706 29.2795 0.676035 22.9857 0.676035 15.2496C0.676035 7.51396 6.98682 1.22058 14.7438 1.22058C22.5002 1.22058 28.8108 7.51396 28.8108 15.2496C28.8108 22.9857 22.5002 29.2795 14.7438 29.2795Z" fill="#464342"/></g><defs><clipPath id="clip0_304_2728"><path fill="#fff" transform="translate(0 .546)" d="M0 0H129.96V29.407H0z"/></clipPath></defs></svg>