<svg width="44" height="44" viewBox="0 0 44 44" fill="none" xmlns="http://www.w3.org/2000/svg">
<g opacity="0.3">
<path d="M16.5 30.25H5.5C5.13533 30.25 4.78559 30.1051 4.52773 29.8473C4.26987 29.5894 4.125 29.2397 4.125 28.875V17.875C4.125 14.5929 5.42879 11.4453 7.74955 9.12455C10.0703 6.80379 13.2179 5.5 16.5 5.5C19.7821 5.5 22.9297 6.80379 25.2504 9.12455C27.5712 11.4453 28.875 14.5929 28.875 17.875C28.875 21.1571 27.5712 24.3047 25.2504 26.6254C22.9297 28.9462 19.7821 30.25 16.5 30.25Z" stroke="#7F52FF" stroke-width="2.6" stroke-linecap="round" stroke-linejoin="round"/>
<path d="M15.8297 30.25C16.6829 32.6632 18.2634 34.7525 20.3535 36.23C22.4436 37.7076 24.9404 38.5006 27.5 38.5H38.5C38.8647 38.5 39.2144 38.3551 39.4723 38.0973C39.7301 37.8394 39.875 37.4897 39.875 37.125V26.125C39.8749 22.9603 38.6623 19.9158 36.4866 17.6176C34.3108 15.3194 31.3372 13.9421 28.1772 13.7689" stroke="#7F52FF" stroke-width="2.6" stroke-linecap="round" stroke-linejoin="round"/>
</g>
</svg>
