<svg width="52" height="52" viewBox="0 0 52 52" fill="none" xmlns="http://www.w3.org/2000/svg">
<g opacity="0.5">
<path d="M26.8125 43.875H9.75C9.31902 43.875 8.9057 43.7038 8.60095 43.399C8.29621 43.0943 8.125 42.681 8.125 42.25V25.1875C8.125 20.2313 10.0939 15.478 13.5984 11.9734C17.103 8.46886 21.8563 6.5 26.8125 6.5C29.2666 6.5 31.6966 6.98337 33.9639 7.9225C36.2312 8.86164 38.2913 10.2381 40.0266 11.9734C41.7619 13.7087 43.1384 15.7688 44.0775 18.0361C45.0166 20.3034 45.5 22.7334 45.5 25.1875C45.5 27.6416 45.0166 30.0716 44.0775 32.3389C43.1384 34.6062 41.7619 36.6663 40.0266 38.4016C38.2913 40.1369 36.2312 41.5134 33.9639 42.4525C31.6966 43.3916 29.2666 43.875 26.8125 43.875Z" stroke="#7F52FF" stroke-width="2.8" stroke-linecap="round" stroke-linejoin="round"/>
<path d="M27.85 26C27.85 26.573 27.3855 27.0375 26.8125 27.0375C26.2395 27.0375 25.775 26.573 25.775 26C25.775 25.427 26.2395 24.9625 26.8125 24.9625C27.3855 24.9625 27.85 25.427 27.85 26Z" fill="#7F52FF" stroke="#7F52FF" stroke-width="2.8"/>
<path d="M18.9125 26C18.9125 26.573 18.448 27.0375 17.875 27.0375C17.302 27.0375 16.8375 26.573 16.8375 26C16.8375 25.427 17.302 24.9625 17.875 24.9625C18.448 24.9625 18.9125 25.427 18.9125 26Z" fill="#7F52FF" stroke="#7F52FF" stroke-width="2.8"/>
<path d="M36.7875 26C36.7875 26.573 36.323 27.0375 35.75 27.0375C35.177 27.0375 34.7125 26.573 34.7125 26C34.7125 25.427 35.177 24.9625 35.75 24.9625C36.323 24.9625 36.7875 25.427 36.7875 26Z" fill="#7F52FF" stroke="#7F52FF" stroke-width="2.8"/>
</g>
</svg>
