<svg width="34" height="35" viewBox="0 0 34 35" fill="none" xmlns="http://www.w3.org/2000/svg">
<path d="M12.9518 5.93711H16.7811V13.5956H12.9518C10.837 13.5956 9.12259 11.8812 9.12259 9.76634C9.12259 7.65152 10.837 5.93711 12.9518 5.93711Z" fill="url(#paint0_radial_298_5797)" stroke="#4F5156" stroke-width="0.436714"/>
<path d="M12.9518 5.93711H16.7811V13.5956H12.9518C10.837 13.5956 9.12259 11.8812 9.12259 9.76634C9.12259 7.65152 10.837 5.93711 12.9518 5.93711Z" fill="url(#paint1_radial_298_5797)" stroke="#4F5156" stroke-width="0.436714"/>
<path d="M21.0462 5.93711H17.217V13.5956H21.0462C23.161 13.5956 24.8755 11.8812 24.8755 9.76634C24.8755 7.65152 23.161 5.93711 21.0462 5.93711Z" fill="url(#paint2_radial_298_5797)" stroke="#4F5156" stroke-width="0.436714"/>
<path d="M21.0462 5.93711H17.217V13.5956H21.0462C23.161 13.5956 24.8755 11.8812 24.8755 9.76634C24.8755 7.65152 23.161 5.93711 21.0462 5.93711Z" fill="url(#paint3_radial_298_5797)" stroke="#4F5156" stroke-width="0.436714"/>
<path d="M21.0462 21.6893C23.161 21.6893 24.8755 19.9749 24.8755 17.8601C24.8755 15.7453 23.161 14.0309 21.0462 14.0309C18.9314 14.0309 17.217 15.7453 17.217 17.8601C17.217 19.9749 18.9314 21.6893 21.0462 21.6893Z" fill="url(#paint4_radial_298_5797)" stroke="#4F5156" stroke-width="0.436714"/>
<path d="M21.0462 21.6893C23.161 21.6893 24.8755 19.9749 24.8755 17.8601C24.8755 15.7453 23.161 14.0309 21.0462 14.0309C18.9314 14.0309 17.217 15.7453 17.217 17.8601C17.217 19.9749 18.9314 21.6893 21.0462 21.6893Z" fill="url(#paint5_radial_298_5797)" stroke="#4F5156" stroke-width="0.436714"/>
<path d="M12.9518 14.0309H16.7811V21.6893H12.9518C10.837 21.6893 9.12259 19.9749 9.12259 17.8601C9.12259 15.7453 10.837 14.0309 12.9518 14.0309Z" fill="url(#paint6_radial_298_5797)" stroke="#4F5156" stroke-width="0.436714"/>
<path d="M12.9518 14.0309H16.7811V21.6893H12.9518C10.837 21.6893 9.12259 19.9749 9.12259 17.8601C9.12259 15.7453 10.837 14.0309 12.9518 14.0309Z" fill="url(#paint7_radial_298_5797)" stroke="#4F5156" stroke-width="0.436714"/>
<path d="M12.9518 22.1266H16.7811V25.9558C16.7811 28.0706 15.0667 29.785 12.9518 29.785C10.837 29.785 9.12259 28.0706 9.12259 25.9558C9.12259 23.841 10.837 22.1266 12.9518 22.1266Z" fill="url(#paint8_radial_298_5797)" stroke="#4F5156" stroke-width="0.436714"/>
<path d="M12.9518 22.1266H16.7811V25.9558C16.7811 28.0706 15.0667 29.785 12.9518 29.785C10.837 29.785 9.12259 28.0706 9.12259 25.9558C9.12259 23.841 10.837 22.1266 12.9518 22.1266Z" fill="url(#paint9_radial_298_5797)" stroke="#4F5156" stroke-width="0.436714"/>
<g filter="url(#filter0_b_298_5797)">
<mask id="path-11-inside-1_298_5797" fill="white">
<path d="M0 8.72023C0 4.3788 3.51942 0.859375 7.86085 0.859375H26.1372C30.4786 0.859375 33.998 4.3788 33.998 8.72023V26.9966C33.998 31.338 30.4786 34.8574 26.1372 34.8574H7.86085C3.51942 34.8574 0 31.338 0 26.9966V8.72023Z"/>
</mask>
<path d="M0 8.72023C0 4.3788 3.51942 0.859375 7.86085 0.859375H26.1372C30.4786 0.859375 33.998 4.3788 33.998 8.72023V26.9966C33.998 31.338 30.4786 34.8574 26.1372 34.8574H7.86085C3.51942 34.8574 0 31.338 0 26.9966V8.72023Z" fill="url(#paint10_linear_298_5797)"/>
<path d="M0 8.72023C0 4.3788 3.51942 0.859375 7.86085 0.859375H26.1372C30.4786 0.859375 33.998 4.3788 33.998 8.72023V26.9966C33.998 31.338 30.4786 34.8574 26.1372 34.8574H7.86085C3.51942 34.8574 0 31.338 0 26.9966V8.72023Z" fill="url(#paint11_linear_298_5797)" fill-opacity="0.9"/>
<path d="M0 8.72023C0 4.13761 3.71495 0.422661 8.29757 0.422661H25.7005C30.2831 0.422661 33.998 4.13761 33.998 8.72023V8.72023C33.998 4.61999 30.4786 1.29609 26.1372 1.29609H7.86085C3.51942 1.29609 0 4.61999 0 8.72023V8.72023ZM33.998 34.8574H0H33.998ZM0 34.8574V0.859375V34.8574ZM33.998 0.859375V34.8574V0.859375Z" fill="#4F5156" mask="url(#path-11-inside-1_298_5797)"/>
</g>
<path d="M8.90424 9.76634C8.90424 7.53092 10.7164 5.71875 12.9518 5.71875H16.9994V13.8139H12.9518C10.7164 13.8139 8.90424 12.0018 8.90424 9.76634V9.76634Z" fill="url(#paint12_radial_298_5797)"/>
<path d="M8.90424 9.76634C8.90424 7.53092 10.7164 5.71875 12.9518 5.71875H16.9994V13.8139H12.9518C10.7164 13.8139 8.90424 12.0018 8.90424 9.76634V9.76634Z" fill="url(#paint13_radial_298_5797)"/>
<path d="M25.0938 9.76634C25.0938 7.53092 23.2816 5.71875 21.0462 5.71875H16.9986V13.8139H21.0462C23.2816 13.8139 25.0938 12.0018 25.0938 9.76634V9.76634Z" fill="url(#paint14_radial_298_5797)"/>
<path d="M25.0938 9.76634C25.0938 7.53092 23.2816 5.71875 21.0462 5.71875H16.9986V13.8139H21.0462C23.2816 13.8139 25.0938 12.0018 25.0938 9.76634V9.76634Z" fill="url(#paint15_radial_298_5797)"/>
<path d="M25.0938 17.8601C25.0938 15.6247 23.2816 13.8125 21.0462 13.8125V13.8125C18.8108 13.8125 16.9986 15.6247 16.9986 17.8601V17.8601C16.9986 20.0955 18.8108 21.9077 21.0462 21.9077V21.9077C23.2816 21.9077 25.0938 20.0955 25.0938 17.8601V17.8601Z" fill="url(#paint16_radial_298_5797)"/>
<path d="M25.0938 17.8601C25.0938 15.6247 23.2816 13.8125 21.0462 13.8125V13.8125C18.8108 13.8125 16.9986 15.6247 16.9986 17.8601V17.8601C16.9986 20.0955 18.8108 21.9077 21.0462 21.9077V21.9077C23.2816 21.9077 25.0938 20.0955 25.0938 17.8601V17.8601Z" fill="url(#paint17_radial_298_5797)"/>
<path d="M8.90424 17.8601C8.90424 15.6247 10.7164 13.8125 12.9518 13.8125H16.9994V21.9077H12.9518C10.7164 21.9077 8.90424 20.0955 8.90424 17.8601V17.8601Z" fill="url(#paint18_radial_298_5797)"/>
<path d="M8.90424 17.8601C8.90424 15.6247 10.7164 13.8125 12.9518 13.8125H16.9994V21.9077H12.9518C10.7164 21.9077 8.90424 20.0955 8.90424 17.8601V17.8601Z" fill="url(#paint19_radial_298_5797)"/>
<path d="M8.90424 25.9558C8.90424 23.7204 10.7164 21.9082 12.9518 21.9082H16.9994V25.9558C16.9994 28.1912 15.1873 30.0034 12.9518 30.0034V30.0034C10.7164 30.0034 8.90424 28.1912 8.90424 25.9558V25.9558Z" fill="url(#paint20_radial_298_5797)"/>
<path d="M8.90424 25.9558C8.90424 23.7204 10.7164 21.9082 12.9518 21.9082H16.9994V25.9558C16.9994 28.1912 15.1873 30.0034 12.9518 30.0034V30.0034C10.7164 30.0034 8.90424 28.1912 8.90424 25.9558V25.9558Z" fill="url(#paint21_radial_298_5797)"/>
<defs>
<filter id="filter0_b_298_5797" x="-6.98743" y="-6.12805" width="47.9729" height="47.9729" filterUnits="userSpaceOnUse" color-interpolation-filters="sRGB">
<feFlood flood-opacity="0" result="BackgroundImageFix"/>
<feGaussianBlur in="BackgroundImageFix" stdDeviation="3.49371"/>
<feComposite in2="SourceAlpha" operator="in" result="effect1_backgroundBlur_298_5797"/>
<feBlend mode="normal" in="SourceGraphic" in2="effect1_backgroundBlur_298_5797" result="shape"/>
</filter>
<radialGradient id="paint0_radial_298_5797" cx="0" cy="0" r="1" gradientUnits="userSpaceOnUse" gradientTransform="translate(12.9518 9.76634) rotate(45) scale(5.72416)">
<stop stop-color="#FF6342"/>
<stop offset="1" stop-color="#F34628"/>
</radialGradient>
<radialGradient id="paint1_radial_298_5797" cx="0" cy="0" r="1" gradientUnits="userSpaceOnUse" gradientTransform="translate(12.9518 9.76634) rotate(45) scale(5.72416)">
<stop stop-color="#FF6342"/>
<stop offset="1" stop-color="#F34628"/>
</radialGradient>
<radialGradient id="paint2_radial_298_5797" cx="0" cy="0" r="1" gradientUnits="userSpaceOnUse" gradientTransform="translate(21.0462 9.76634) rotate(133.531) scale(5.58289)">
<stop stop-color="#FF867C"/>
<stop offset="1" stop-color="#FF756C"/>
</radialGradient>
<radialGradient id="paint3_radial_298_5797" cx="0" cy="0" r="1" gradientUnits="userSpaceOnUse" gradientTransform="translate(21.0462 9.76634) rotate(133.531) scale(5.58289)">
<stop stop-color="#FF867C"/>
<stop offset="1" stop-color="#FF756C"/>
</radialGradient>
<radialGradient id="paint4_radial_298_5797" cx="0" cy="0" r="1" gradientUnits="userSpaceOnUse" gradientTransform="translate(21.0462 17.8601) rotate(90) scale(4.04759)">
<stop stop-color="#1FC3F6"/>
<stop offset="1" stop-color="#41CDFB"/>
</radialGradient>
<radialGradient id="paint5_radial_298_5797" cx="0" cy="0" r="1" gradientUnits="userSpaceOnUse" gradientTransform="translate(21.0462 17.8601) rotate(90) scale(4.04759)">
<stop stop-color="#1FC3F6"/>
<stop offset="1" stop-color="#41CDFB"/>
</radialGradient>
<radialGradient id="paint6_radial_298_5797" cx="0" cy="0" r="1" gradientUnits="userSpaceOnUse" gradientTransform="translate(12.9518 17.8601) rotate(90) scale(4.04759)">
<stop stop-color="#AC64F7"/>
<stop offset="1" stop-color="#A155F2"/>
</radialGradient>
<radialGradient id="paint7_radial_298_5797" cx="0" cy="0" r="1" gradientUnits="userSpaceOnUse" gradientTransform="translate(12.9518 17.8601) rotate(90) scale(4.04759)">
<stop stop-color="#AC64F7"/>
<stop offset="1" stop-color="#A155F2"/>
</radialGradient>
<radialGradient id="paint8_radial_298_5797" cx="0" cy="0" r="1" gradientUnits="userSpaceOnUse" gradientTransform="translate(12.9518 25.9558) rotate(90) scale(4.04759)">
<stop stop-color="#00DD8C"/>
<stop offset="1" stop-color="#00C984"/>
</radialGradient>
<radialGradient id="paint9_radial_298_5797" cx="0" cy="0" r="1" gradientUnits="userSpaceOnUse" gradientTransform="translate(12.9518 25.9558) rotate(90) scale(4.04759)">
<stop stop-color="#00DD8C"/>
<stop offset="1" stop-color="#00C984"/>
</radialGradient>
<linearGradient id="paint10_linear_298_5797" x1="16.999" y1="0.859375" x2="16.999" y2="34.8574" gradientUnits="userSpaceOnUse">
<stop stop-opacity="0.4"/>
<stop offset="1" stop-opacity="0.1"/>
</linearGradient>
<linearGradient id="paint11_linear_298_5797" x1="16.999" y1="0.859375" x2="16.999" y2="34.8574" gradientUnits="userSpaceOnUse">
<stop stop-color="#332F2E"/>
<stop offset="1" stop-color="#151718"/>
</linearGradient>
<radialGradient id="paint12_radial_298_5797" cx="0" cy="0" r="1" gradientUnits="userSpaceOnUse" gradientTransform="translate(12.9518 9.76634) rotate(45) scale(5.72416)">
<stop stop-color="#FF6342"/>
<stop offset="1" stop-color="#F34628"/>
</radialGradient>
<radialGradient id="paint13_radial_298_5797" cx="0" cy="0" r="1" gradientUnits="userSpaceOnUse" gradientTransform="translate(12.9518 9.76634) rotate(45) scale(5.72416)">
<stop stop-color="#FF6342"/>
<stop offset="1" stop-color="#F34628"/>
</radialGradient>
<radialGradient id="paint14_radial_298_5797" cx="0" cy="0" r="1" gradientUnits="userSpaceOnUse" gradientTransform="translate(21.0462 9.76634) rotate(133.531) scale(5.58289)">
<stop stop-color="#FF867C"/>
<stop offset="1" stop-color="#FF756C"/>
</radialGradient>
<radialGradient id="paint15_radial_298_5797" cx="0" cy="0" r="1" gradientUnits="userSpaceOnUse" gradientTransform="translate(21.0462 9.76634) rotate(133.531) scale(5.58289)">
<stop stop-color="#FF867C"/>
<stop offset="1" stop-color="#FF756C"/>
</radialGradient>
<radialGradient id="paint16_radial_298_5797" cx="0" cy="0" r="1" gradientUnits="userSpaceOnUse" gradientTransform="translate(21.0462 17.8601) rotate(90) scale(4.04759)">
<stop stop-color="#1FC3F6"/>
<stop offset="1" stop-color="#41CDFB"/>
</radialGradient>
<radialGradient id="paint17_radial_298_5797" cx="0" cy="0" r="1" gradientUnits="userSpaceOnUse" gradientTransform="translate(21.0462 17.8601) rotate(90) scale(4.04759)">
<stop stop-color="#1FC3F6"/>
<stop offset="1" stop-color="#41CDFB"/>
</radialGradient>
<radialGradient id="paint18_radial_298_5797" cx="0" cy="0" r="1" gradientUnits="userSpaceOnUse" gradientTransform="translate(12.9518 17.8601) rotate(90) scale(4.04759)">
<stop stop-color="#AC64F7"/>
<stop offset="1" stop-color="#A155F2"/>
</radialGradient>
<radialGradient id="paint19_radial_298_5797" cx="0" cy="0" r="1" gradientUnits="userSpaceOnUse" gradientTransform="translate(12.9518 17.8601) rotate(90) scale(4.04759)">
<stop stop-color="#AC64F7"/>
<stop offset="1" stop-color="#A155F2"/>
</radialGradient>
<radialGradient id="paint20_radial_298_5797" cx="0" cy="0" r="1" gradientUnits="userSpaceOnUse" gradientTransform="translate(12.9518 25.9558) rotate(90) scale(4.04759)">
<stop stop-color="#00DD8C"/>
<stop offset="1" stop-color="#00C984"/>
</radialGradient>
<radialGradient id="paint21_radial_298_5797" cx="0" cy="0" r="1" gradientUnits="userSpaceOnUse" gradientTransform="translate(12.9518 25.9558) rotate(90) scale(4.04759)">
<stop stop-color="#00DD8C"/>
<stop offset="1" stop-color="#00C984"/>
</radialGradient>
</defs>
</svg>
