<svg width="34" height="24" viewBox="0 0 34 24" fill="none" xmlns="http://www.w3.org/2000/svg">
<mask id="mask0_2001_749" style="mask-type:alpha" maskUnits="userSpaceOnUse" x="0" y="0" width="34" height="24">
<path d="M0 4C0 1.79086 1.79086 0 4 0H30C32.2091 0 34 1.79086 34 4V20C34 22.2091 32.2091 24 30 24H4C1.79086 24 0 22.2091 0 20V4Z" fill="#D9D9D9"/>
</mask>
<g mask="url(#mask0_2001_749)">
<g clip-path="url(#clip0_2001_749)">
<path d="M0 0H48V24H0V0Z" fill="#F2A800"/>
<path d="M0 0H48V16H0V0Z" fill="#0033A0"/>
<path d="M0 0H48V8H0V0Z" fill="#D90012"/>
</g>
<g clip-path="url(#clip1_2001_749)">
<path d="M-1 0H35V24H-1V0Z" fill="white"/>
<path d="M14.6 0H19.4V24H14.6V0ZM-1 9.6H35V14.4H-1V9.6Z" fill="#FF0000"/>
<path d="M5.95615 2.34473C6.5163 2.4183 7.08367 2.4183 7.64383 2.34473C7.31864 3.96538 7.31864 5.63448 7.64383 7.25513C7.08367 7.18156 6.5163 7.18156 5.95615 7.25513C6.28133 5.63448 6.28133 3.96538 5.95615 2.34473Z" fill="#FF0000"/>
<path d="M9.25519 3.95605C9.18162 4.51621 9.18162 5.08358 9.25519 5.64373C7.63454 5.31855 5.96544 5.31855 4.34479 5.64373C4.41836 5.08358 4.41836 4.51621 4.34479 3.95605C5.96544 4.28124 7.63454 4.28124 9.25519 3.95605Z" fill="#FF0000"/>
<path d="M26.3561 2.34473C26.9163 2.4183 27.4837 2.4183 28.0438 2.34473C27.7186 3.96538 27.7186 5.63448 28.0438 7.25513C27.4837 7.18156 26.9163 7.18156 26.3561 7.25513C26.6813 5.63448 26.6813 3.96538 26.3561 2.34473Z" fill="#FF0000"/>
<path d="M29.6552 3.95605C29.5816 4.51621 29.5816 5.08358 29.6552 5.64373C28.0345 5.31855 26.3654 5.31855 24.7448 5.64373C24.8184 5.08358 24.8184 4.51621 24.7448 3.95605C26.3654 4.28124 28.0345 4.28124 29.6552 3.95605Z" fill="#FF0000"/>
<path d="M5.95615 16.7446C6.5163 16.8182 7.08367 16.8182 7.64383 16.7446C7.31864 18.3653 7.31864 20.0344 7.64383 21.655C7.08367 21.5815 6.5163 21.5815 5.95615 21.655C6.28133 20.0344 6.28133 18.3653 5.95615 16.7446Z" fill="#FF0000"/>
<path d="M9.25519 18.356C9.18162 18.9161 9.18162 19.4835 9.25519 20.0436C7.63454 19.7185 5.96544 19.7185 4.34479 20.0436C4.41836 19.4835 4.41836 18.9161 4.34479 18.356C5.96544 18.6811 7.63454 18.6811 9.25519 18.356Z" fill="#FF0000"/>
<path d="M26.3561 16.7446C26.9163 16.8182 27.4837 16.8182 28.0438 16.7446C27.7186 18.3653 27.7186 20.0344 28.0438 21.655C27.4837 21.5815 26.9163 21.5815 26.3561 21.655C26.6813 20.0344 26.6813 18.3653 26.3561 16.7446Z" fill="#FF0000"/>
<path d="M29.6552 18.356C29.5816 18.9161 29.5816 19.4835 29.6552 20.0436C28.0345 19.7185 26.3654 19.7185 24.7448 20.0436C24.8184 19.4835 24.8184 18.9161 24.7448 18.356C26.3654 18.6811 28.0345 18.6811 29.6552 18.356Z" fill="#FF0000"/>
</g>
<g clip-path="url(#clip2_2001_749)">
<path d="M0 0H34V24H0V0Z" fill="#CC092F"/>
<path d="M0 0H22.6667V24H0V0Z" fill="#FFD200"/>
<path d="M0 0H11.3333V24H0V0Z" fill="#0046AE"/>
<path d="M16.0837 4.88661C16.0324 4.88333 15.9816 4.90293 15.9386 4.94261C15.9895 4.96384 16.0243 5.03016 16.0238 5.10506V5.30301H15.8836C15.8308 5.30378 15.784 5.25544 15.7685 5.18424C15.7156 5.31056 15.7156 5.46746 15.7685 5.59378C15.7835 5.52192 15.8305 5.47285 15.8836 5.47362H16.0238V6.42512C16.024 6.46008 16.0164 6.49425 16.0022 6.52288C15.988 6.55151 15.9678 6.57316 15.9445 6.58482C16.0113 6.59768 16.0689 6.7244 16.0847 6.7937C16.1005 6.72456 16.158 6.59768 16.2249 6.58482C16.2013 6.57347 16.1809 6.55193 16.1665 6.52327C16.1521 6.49461 16.1444 6.46027 16.1446 6.42512V5.47357H16.2848C16.3376 5.4728 16.3845 5.52114 16.3999 5.5924C16.4528 5.46605 16.4528 5.30917 16.3999 5.18282C16.3849 5.25466 16.3379 5.3037 16.2848 5.30293H16.1446V5.10501C16.144 5.0305 16.1783 4.96437 16.2288 4.94253C16.1857 4.90288 16.135 4.8833 16.0837 4.88658V4.88661Z" fill="black"/>
<path d="M16.0837 4.92727C16.0555 4.92744 16.0274 4.93388 16.0006 4.94637C16.0168 4.9659 16.0299 4.99016 16.0389 5.01749C16.048 5.04483 16.0527 5.07459 16.0528 5.10474V5.30269C16.0527 5.30546 16.0523 5.30821 16.0518 5.3109V5.34229H16.0296C16.0277 5.34301 16.0257 5.34349 16.0238 5.34367H15.8835C15.8408 5.34327 15.8003 5.3169 15.7723 5.27133C15.763 5.30909 15.7581 5.34874 15.7578 5.38874C15.758 5.42863 15.7625 5.46824 15.7714 5.50613C15.7994 5.45967 15.8403 5.43274 15.8835 5.43245H16.0528C16.0526 5.43655 16.0518 5.44053 16.0518 5.44469V5.46517C16.0523 5.46784 16.0526 5.47058 16.0528 5.47335V6.42485C16.0514 6.48277 16.0323 6.53701 16.0005 6.57365C16.0214 6.59202 16.04 6.61509 16.0556 6.64194C16.067 6.6641 16.0767 6.68789 16.0847 6.7129C16.0926 6.6879 16.1023 6.66413 16.1137 6.64194C16.1291 6.61573 16.1474 6.59314 16.1678 6.57503C16.152 6.55673 16.1392 6.53385 16.1302 6.50795C16.1212 6.48205 16.1162 6.45372 16.1156 6.42487V5.43373H16.1388C16.1407 5.43301 16.1427 5.43256 16.1446 5.43239H16.2848C16.3059 5.4326 16.3268 5.43915 16.3459 5.45162C16.3651 5.46409 16.3822 5.48219 16.396 5.50471C16.4054 5.46695 16.4103 5.4273 16.4105 5.38733C16.4104 5.34743 16.4058 5.30783 16.397 5.26994C16.369 5.31639 16.328 5.34333 16.2848 5.34362H16.1446C16.1426 5.34343 16.1407 5.34298 16.1388 5.34223H16.1166V5.31085C16.116 5.30816 16.1157 5.30541 16.1156 5.30263V5.10471C16.1157 5.07491 16.1204 5.04548 16.1292 5.01841C16.138 4.99134 16.1509 4.96724 16.1668 4.94773C16.1401 4.93455 16.112 4.92764 16.0837 4.92725" fill="#FFD200"/>
<path d="M17.8388 8.37295C17.7569 8.2945 17.6869 8.19378 17.6329 8.07668C17.5125 7.80407 17.4617 7.4694 17.4617 7.1293C17.4617 6.98554 17.5758 6.8237 17.5758 6.70743C17.5766 6.61343 17.5727 6.51948 17.5642 6.42626C17.6047 6.43404 17.6754 6.53546 17.6754 6.53546C17.6754 6.53546 17.673 6.24378 17.6077 6.19282C17.6077 6.19282 17.6341 6.15447 17.7295 6.1505C17.7027 6.0546 17.57 5.93754 17.57 5.93754C17.5786 5.91875 17.5906 5.90364 17.6048 5.89386C17.6415 5.86845 17.6806 5.85053 17.7208 5.8406C17.6767 5.82711 17.6331 5.81023 17.5903 5.79007C17.4668 5.73178 17.346 5.6625 17.2286 5.5826C17.0786 5.47639 16.913 5.42167 16.7452 5.42287C16.6776 5.4229 16.5782 5.42548 16.5199 5.48026C16.4665 5.53026 16.4709 5.5953 16.4522 5.61812C16.4082 5.67188 16.3328 5.66999 16.2965 5.66999C16.0615 5.66999 16.0528 6.02495 16.0528 6.02495C16.0528 6.02495 16.1129 5.8966 16.2191 5.8966C16.3957 5.8966 16.5295 6.03244 16.5295 6.08362C16.5295 6.10434 16.5113 6.10818 16.5102 6.10818C16.3948 6.10818 16.2207 6.01442 16.1282 6.00988V6.07404C16.3347 6.17546 16.544 6.31903 16.544 6.95183C16.544 7.35031 16.5102 7.7569 16.369 8.07671C16.3146 8.1938 16.2442 8.29449 16.1621 8.37298L17.0005 8.58631L17.8388 8.37298V8.37295Z" fill="black"/>
<path d="M17.0004 8.10624L16.1621 8.37291C16.1239 8.35664 15.9446 8.27798 15.8188 8.17907C15.5973 8.00488 15.4824 7.83158 15.2192 7.81456V7.53195C15.2192 7.38096 15.258 7.24494 15.258 7.10056C15.147 7.05856 14.839 6.52696 14.5549 6.29102C14.1369 6.67326 13.8133 7.30075 13.8133 7.58931V15.9496C13.8133 16.0741 13.7601 16.2499 13.7601 16.2499C13.9127 16.1588 14.1924 15.6185 14.2513 15.4131V15.5114C14.4818 15.363 14.6505 14.9731 14.7261 14.7715L14.731 14.8738C14.9369 14.619 15.199 13.1128 15.199 13.1128L15.6357 13.7188C15.6357 13.7188 15.4778 14.1715 15.4162 14.2526C15.4454 14.2573 15.4748 14.2596 15.5042 14.2594C15.4755 14.3177 15.2559 14.7641 15.1871 14.9324C15.1227 15.0899 15.0772 15.0198 14.9782 15.0198C14.8961 15.0198 14.71 15.2045 14.6794 15.2792C14.6463 15.3556 14.6271 15.4423 14.6233 15.5317C14.6233 15.6181 14.6881 15.7365 14.6881 15.7365C14.6905 15.7156 14.6972 15.6961 14.7075 15.6805L14.9028 16.0191C14.9223 16.0495 15.0094 16.0694 15.0401 16.03C15.1169 15.9314 15.1913 15.8625 15.2596 15.7201C15.2948 15.6468 15.2975 15.5627 15.3379 15.4839L15.804 14.6007L15.8156 14.6922C15.8853 14.4933 16.2208 14.1133 16.2208 14.1133L16.5717 14.3413C16.5717 14.3413 15.9165 16.4676 15.3349 16.7945C15.3349 16.7945 15.5879 16.9463 15.8986 17.1741L16.0379 17.2792C16.077 17.2127 16.1182 17.1388 16.1588 17.0621C16.3446 16.7112 16.5262 16.3045 16.5262 16.3045C16.5389 16.4101 16.4408 16.7363 16.2748 17.1386L16.1704 17.3843L16.2961 17.4881C16.6039 17.7495 16.893 18.0501 17 18.3263L17.0756 18.0594L17 17.7925V8.4603L17.0378 8.32696L17.0004 8.10624Z" fill="black"/>
<path d="M17 17.7927C16.8914 17.6264 16.6644 17.4232 16.4092 17.2357C16.7178 16.454 16.8706 15.2183 16.7989 14.9723C16.7989 14.9723 16.6723 15.6131 16.5175 15.9784C16.3742 16.3166 16.1978 16.697 16.0273 16.9791C15.8991 16.9009 15.768 16.8325 15.6346 16.7743C16.1457 16.2184 16.6684 14.3811 16.6684 14.3811L16.1279 14.0275C16.1279 14.0275 15.9257 14.3603 15.8601 14.4221C15.8601 14.4221 15.832 14.2566 15.8156 14.1982C15.8156 14.1982 15.7381 14.2809 15.6957 14.2829L15.6735 14.0972C15.6201 14.1474 15.5313 14.1368 15.5313 14.1368C15.6093 14.0847 15.7015 13.7655 15.7015 13.7655L15.1854 12.7963C15.1854 12.7963 15.0042 14.0261 14.7977 14.2789V8.9834L14.9611 9.19769L15.2086 8.87143V8.62297L14.9891 8.91236V8.16289C15.0145 8.10915 15.0384 8.05405 15.0607 7.99772C15.0962 8.08516 15.211 8.35316 15.3459 8.51785C15.3681 8.39044 15.5142 8.26937 15.5142 8.26937C15.5142 8.26937 15.5665 8.46959 15.6466 8.51919C15.6748 8.44911 15.843 8.29396 15.843 8.29396C15.843 8.29396 15.6991 8.32481 15.6409 8.40183C15.5908 8.38601 15.578 8.10695 15.578 8.10695C15.578 8.10695 15.3663 8.25252 15.3295 8.35676C15.2891 8.34135 15.2263 8.11708 15.2018 8.02503C15.2542 8.01679 15.3068 8.0127 15.3595 8.01276C15.4198 8.01276 15.4971 8.05313 15.578 8.10695C15.6669 8.16604 15.7599 8.24087 15.843 8.29399C15.9493 8.36199 16.1103 8.3758 16.1572 8.37863C16.1009 8.43385 16.0417 8.48313 15.9803 8.52607C15.9803 8.52607 16.2336 8.52276 16.4116 8.39772C16.4762 8.34262 16.5383 8.28151 16.5972 8.21479C16.5701 8.32634 16.5288 8.42997 16.4753 8.52057C16.7367 8.48935 16.8668 8.27865 16.9037 8.20796C16.9272 8.29824 16.9598 8.38328 17.0004 8.46049H17.0949V17.5272L17 17.7927ZM15.0742 7.12807L15.079 7.29735V7.79567C14.9842 7.74961 14.8651 7.52972 14.8073 7.41343V7.34516C14.808 7.31911 14.8124 7.29354 14.8204 7.27004C14.8284 7.24654 14.8397 7.22564 14.8537 7.20865L14.7967 7.18001C14.7687 7.22182 14.7525 7.27671 14.7513 7.33425V7.37385L14.5811 7.63188L14.4138 7.2742V7.18684C14.4138 7.12796 14.4459 7.06231 14.4728 7.01756L14.4167 6.98889C14.3884 7.04068 14.3587 7.11047 14.3587 7.17591V7.24687L14.1662 7.52676L14.0686 7.23052C14.1858 7.00132 14.3758 6.74468 14.555 6.56055C14.555 6.56055 14.9434 7.06404 15.0742 7.12807ZM14.0897 7.61135V8.02231L13.9544 8.19975V7.58953C13.9582 7.51665 13.9741 7.44604 14.0007 7.38337L14.0897 7.61135ZM14.5113 7.76969V8.02361L14.3557 8.22977V7.43527L14.5113 7.76969ZM14.3005 8.22841L14.1448 8.02364V7.72607L14.3005 7.49535V8.22841ZM15.0112 7.91988C14.9751 7.99201 14.8804 8.16844 14.7782 8.24617V7.54857C14.8016 7.60364 14.9092 7.84924 15.0112 7.91988ZM14.7231 7.58404V8.22839L14.5674 8.02361V7.79564L14.7231 7.58404ZM14.0897 8.27071V8.91372L13.9543 8.73487V8.44953L14.0897 8.27071ZM14.3004 8.47687V8.70756L14.1447 8.91231V8.27207L14.3004 8.47687ZM14.5112 8.27212V8.91239L14.3555 8.70623V8.47825L14.5112 8.27212ZM14.723 8.47825V8.70623L14.5673 8.91236V8.27212L14.723 8.47825ZM14.9337 8.91372L14.778 8.70756V8.49327C14.8317 8.447 14.8857 8.36196 14.9337 8.27212L14.9337 8.91372ZM14.5392 9.19767L14.7036 8.98196V14.2788L14.723 14.7129L14.3749 15.2098V8.98055L14.5392 9.19767ZM14.281 15.0119C14.281 15.1821 14.0608 15.5791 13.9542 15.6699V8.98345L14.1166 9.19775L14.281 8.98201V15.0119Z" fill="#B07E5B"/>
<path d="M15.6463 14.437L15.7662 14.3209L15.7846 14.4534L15.2924 15.398C15.2561 15.4669 15.2257 15.6424 15.2257 15.6424C15.2257 15.6424 15.1725 15.6069 15.1725 15.5427C15.1725 15.4798 15.1783 15.4049 15.1783 15.4049C15.1642 15.4252 15.1473 15.4413 15.1287 15.4523C15.1101 15.4633 15.0902 15.469 15.07 15.469C15.07 15.3916 15.176 15.3076 15.1802 15.1974C15.0994 15.282 15.0291 15.2386 14.9356 15.2793C14.8337 15.3236 14.8054 15.384 14.7741 15.3817C14.7557 15.3803 14.7391 15.3355 14.7461 15.308C14.7583 15.2603 14.8842 15.1284 14.9723 15.1046C14.9934 15.0989 15.1594 15.1556 15.1928 15.0827L15.5757 14.2487C15.5889 14.2452 15.6017 14.2387 15.6134 14.2295C15.6134 14.2295 15.6121 14.3829 15.6463 14.437H15.6463ZM14.8754 15.372C14.882 15.3822 14.8816 15.3981 14.8744 15.4075L14.8202 15.4743C14.8125 15.4829 14.8013 15.4811 14.7951 15.4702C14.7885 15.4601 14.7889 15.4442 14.7961 15.4347L14.8502 15.3679C14.8519 15.3658 14.854 15.3642 14.8561 15.3632C14.8583 15.3623 14.8606 15.362 14.8628 15.3624C14.8677 15.3633 14.8722 15.3667 14.8754 15.372ZM14.9576 15.4525C14.9736 15.4764 14.9729 15.5141 14.956 15.5367L14.9556 15.5372L14.8241 15.6996C14.8042 15.7206 14.776 15.7147 14.7611 15.6865C14.7479 15.6614 14.7496 15.6264 14.7651 15.6041L14.8966 15.443C14.9032 15.4352 14.9113 15.4304 14.9198 15.4293C14.9343 15.4282 14.9483 15.4368 14.9576 15.4525ZM15.0329 15.5781C15.0368 15.5838 15.0397 15.5905 15.0417 15.5978C15.0437 15.605 15.0447 15.6128 15.0445 15.6206C15.0444 15.6284 15.0431 15.6361 15.0409 15.6433C15.0386 15.6504 15.0354 15.6569 15.0314 15.6622L15.031 15.6628L14.8985 15.8252C14.8802 15.846 14.8534 15.8418 14.8387 15.8159L14.8386 15.8157C14.8308 15.8039 14.8266 15.7882 14.827 15.7721C14.8274 15.756 14.8322 15.7408 14.8405 15.7297L14.972 15.5686C14.9782 15.5608 14.986 15.556 14.9943 15.5549C15.009 15.5538 15.0233 15.5623 15.0329 15.5781ZM15.0783 15.6778C15.0854 15.677 15.0925 15.6785 15.0991 15.6823C15.1056 15.6861 15.1114 15.692 15.116 15.6996C15.1322 15.7242 15.1314 15.7626 15.1141 15.7856L14.9826 15.9467C14.9736 15.9559 14.9625 15.96 14.9515 15.9582C14.9404 15.9565 14.9303 15.949 14.9229 15.9373C14.9156 15.9255 14.9116 15.9104 14.9117 15.8947C14.9118 15.879 14.9161 15.864 14.9236 15.8525L15.0561 15.6901C15.0624 15.6827 15.0702 15.6783 15.0783 15.6778Z" fill="#CC092F"/>
<path d="M16.9996 8.10624L17.8379 8.37291C17.8761 8.35664 18.0554 8.27798 18.1812 8.17907C18.4027 8.00488 18.5176 7.83158 18.7808 7.81456V7.53195C18.7808 7.38096 18.742 7.24494 18.742 7.10056C18.853 7.05856 19.161 6.52696 19.4451 6.29102C19.8631 6.67326 20.1867 7.30075 20.1867 7.58931V15.9496C20.1867 16.0741 20.2399 16.2499 20.2399 16.2499C20.0873 16.1588 19.8076 15.6185 19.7487 15.4131V15.5114C19.5182 15.363 19.3495 14.9731 19.2739 14.7715L19.269 14.8738C19.0631 14.619 18.801 13.1128 18.801 13.1128L18.3643 13.7188C18.3643 13.7188 18.5222 14.1715 18.5838 14.2526C18.5546 14.2573 18.5252 14.2596 18.4958 14.2594C18.5245 14.3177 18.7441 14.7641 18.8129 14.9324C18.8773 15.0899 18.9228 15.0198 19.0218 15.0198C19.1039 15.0198 19.29 15.2045 19.3206 15.2792C19.3537 15.3556 19.3729 15.4423 19.3767 15.5317C19.3767 15.6181 19.3119 15.7365 19.3119 15.7365C19.3095 15.7156 19.3028 15.6961 19.2925 15.6805L19.0972 16.0191C19.0777 16.0495 18.9906 16.0694 18.9599 16.03C18.8831 15.9314 18.8087 15.8625 18.7404 15.7201C18.7052 15.6468 18.7025 15.5627 18.6621 15.4839L18.196 14.6007L18.1844 14.6922C18.1147 14.4933 17.7792 14.1133 17.7792 14.1133L17.4283 14.3413C17.4283 14.3413 18.0835 16.4676 18.6651 16.7945C18.6651 16.7945 18.4121 16.9463 18.1014 17.1741L17.9621 17.2792C17.923 17.2127 17.8818 17.1388 17.8412 17.0621C17.6554 16.7112 17.4738 16.3045 17.4738 16.3045C17.4611 16.4101 17.5592 16.7363 17.7252 17.1386L17.8296 17.3843L17.7039 17.4881C17.3961 17.7495 17.107 18.0501 17 18.3263L16.9244 18.0594L17 17.7925V8.4603L16.9622 8.32696L16.9996 8.10624Z" fill="black"/>
<path d="M17 17.7927C17.1086 17.6264 17.3356 17.4232 17.5908 17.2357C17.2822 16.454 17.1294 15.2183 17.2011 14.9723C17.2011 14.9723 17.3278 15.6131 17.4825 15.9784C17.6258 16.3166 17.8022 16.697 17.9728 16.9791C18.1009 16.9009 18.232 16.8325 18.3654 16.7743C17.8543 16.2184 17.3316 14.3811 17.3316 14.3811L17.8721 14.0275C17.8721 14.0275 18.0743 14.3603 18.1399 14.4221C18.1399 14.4221 18.168 14.2566 18.1844 14.1982C18.1844 14.1982 18.2619 14.2809 18.3043 14.2829L18.3265 14.0972C18.3799 14.1474 18.4687 14.1368 18.4687 14.1368C18.3907 14.0847 18.2985 13.7655 18.2985 13.7655L18.8146 12.7963C18.8146 12.7963 18.9958 14.0261 19.2023 14.2789V8.9834L19.0389 9.19769L18.7914 8.87143V8.62297L19.0109 8.91236V8.16289C18.9855 8.10915 18.9617 8.05405 18.9393 7.99772C18.9038 8.08516 18.789 8.35316 18.6541 8.51785C18.6319 8.39044 18.4858 8.26937 18.4858 8.26937C18.4858 8.26937 18.4335 8.46959 18.3534 8.51919C18.3252 8.44911 18.157 8.29396 18.157 8.29396C18.157 8.29396 18.3009 8.32481 18.3591 8.40183C18.4092 8.38601 18.422 8.10695 18.422 8.10695C18.422 8.10695 18.6337 8.25252 18.6705 8.35676C18.7109 8.34135 18.7737 8.11708 18.7982 8.02503C18.7458 8.01679 18.6932 8.0127 18.6405 8.01276C18.5802 8.01276 18.5029 8.05313 18.422 8.10695C18.3331 8.16604 18.2401 8.24087 18.157 8.29399C18.0507 8.36199 17.8897 8.3758 17.8428 8.37863C17.8991 8.43385 17.9583 8.48313 18.0197 8.52607C18.0197 8.52607 17.7664 8.52276 17.5885 8.39772C17.5238 8.34262 17.4617 8.28151 17.4028 8.21479C17.4299 8.32634 17.4712 8.42997 17.5247 8.52057C17.2633 8.48935 17.1332 8.27865 17.0963 8.20796C17.0728 8.29824 17.0402 8.38328 16.9996 8.46049H16.9052V17.5272L17 17.7927ZM18.9258 7.12807L18.921 7.29735V7.79567C19.0158 7.74961 19.1349 7.52972 19.1927 7.41343V7.34516C19.192 7.31911 19.1876 7.29354 19.1796 7.27004C19.1716 7.24654 19.1603 7.22564 19.1463 7.20865L19.2033 7.18001C19.2313 7.22182 19.2475 7.27671 19.2488 7.33425V7.37385L19.4189 7.63188L19.5862 7.2742V7.18684C19.5862 7.12796 19.5541 7.06231 19.5272 7.01756L19.5833 6.98889C19.6116 7.04068 19.6413 7.11047 19.6413 7.17591V7.24687L19.8338 7.52676L19.9314 7.23052C19.8142 7.00132 19.6242 6.74468 19.445 6.56055C19.445 6.56055 19.0566 7.06404 18.9258 7.12807ZM19.9103 7.61135V8.02231L20.0457 8.19975V7.58953C20.0418 7.51665 20.0259 7.44604 19.9993 7.38337L19.9103 7.61135ZM19.4887 7.76969V8.02361L19.6443 8.22977V7.43527L19.4887 7.76969ZM19.6995 8.22841L19.8552 8.02364V7.72607L19.6995 7.49535V8.22841ZM18.9888 7.91988C19.0249 7.99201 19.1196 8.16844 19.2218 8.24617V7.54857C19.1984 7.60364 19.0908 7.84924 18.9888 7.91988ZM19.277 7.58404V8.22839L19.4327 8.02361V7.79564L19.277 7.58404ZM19.9103 8.27071V8.91372L20.0457 8.73487V8.44953L19.9103 8.27071ZM19.6996 8.47687V8.70756L19.8553 8.91231V8.27207L19.6996 8.47687ZM19.4888 8.27212V8.91239L19.6445 8.70623V8.47825L19.4888 8.27212ZM19.277 8.47825V8.70623L19.4327 8.91236V8.27212L19.277 8.47825ZM19.0663 8.91372L19.222 8.70756V8.49327C19.1683 8.447 19.1143 8.36196 19.0663 8.27212L19.0663 8.91372ZM19.4608 9.19767L19.2964 8.98196V14.2788L19.277 14.7129L19.6251 15.2098V8.98055L19.4608 9.19767ZM19.719 15.0119C19.719 15.1821 19.9392 15.5791 20.0458 15.6699V8.98345L19.8834 9.19775L19.719 8.98201V15.0119Z" fill="#B07E5B"/>
<path d="M18.3537 14.437L18.2338 14.3209L18.2154 14.4534L18.7076 15.398C18.7439 15.4669 18.7743 15.6424 18.7743 15.6424C18.7743 15.6424 18.8275 15.6069 18.8275 15.5427C18.8275 15.4798 18.8217 15.4049 18.8217 15.4049C18.8358 15.4252 18.8527 15.4413 18.8713 15.4523C18.8899 15.4633 18.9098 15.469 18.93 15.469C18.93 15.3916 18.824 15.3076 18.8198 15.1974C18.9006 15.282 18.9709 15.2386 19.0644 15.2793C19.1663 15.3236 19.1946 15.384 19.2259 15.3817C19.2443 15.3803 19.2609 15.3355 19.2539 15.308C19.2417 15.2603 19.1158 15.1284 19.0277 15.1046C19.0066 15.0989 18.8406 15.1556 18.8072 15.0827L18.4243 14.2487C18.4111 14.2452 18.3983 14.2387 18.3866 14.2295C18.3866 14.2295 18.3879 14.3829 18.3537 14.437H18.3537ZM19.1246 15.372C19.118 15.3822 19.1184 15.3981 19.1256 15.4075L19.1797 15.4743C19.1875 15.4829 19.1987 15.4811 19.2049 15.4702C19.2115 15.4601 19.2111 15.4442 19.2039 15.4347L19.1498 15.3679C19.148 15.3658 19.146 15.3642 19.1439 15.3632C19.1417 15.3623 19.1394 15.362 19.1372 15.3624C19.1323 15.3633 19.1278 15.3667 19.1246 15.372ZM19.0424 15.4525C19.0264 15.4764 19.0271 15.5141 19.044 15.5367L19.0444 15.5372L19.1759 15.6996C19.1958 15.7206 19.224 15.7147 19.2389 15.6865C19.2521 15.6614 19.2504 15.6264 19.2349 15.6041L19.1034 15.443C19.0968 15.4352 19.0887 15.4304 19.0801 15.4293C19.0657 15.4282 19.0517 15.4368 19.0424 15.4525ZM18.9671 15.5781C18.9632 15.5838 18.9603 15.5905 18.9583 15.5978C18.9563 15.605 18.9553 15.6128 18.9555 15.6206C18.9556 15.6284 18.9569 15.6361 18.9591 15.6433C18.9614 15.6504 18.9646 15.6569 18.9686 15.6622L18.969 15.6628L19.1015 15.8252C19.1198 15.846 19.1466 15.8418 19.1613 15.8159L19.1614 15.8157C19.1692 15.8039 19.1734 15.7882 19.173 15.7721C19.1726 15.756 19.1678 15.7408 19.1595 15.7297L19.028 15.5686C19.0218 15.5608 19.014 15.556 19.0057 15.5549C18.991 15.5538 18.9767 15.5623 18.9671 15.5781ZM18.9217 15.6778C18.9146 15.677 18.9075 15.6785 18.9009 15.6823C18.8944 15.6861 18.8886 15.692 18.8839 15.6996C18.8678 15.7242 18.8686 15.7626 18.8859 15.7856L19.0174 15.9467C19.0264 15.9559 19.0375 15.96 19.0485 15.9582C19.0596 15.9565 19.0697 15.949 19.0771 15.9373C19.0844 15.9255 19.0884 15.9104 19.0883 15.8947C19.0882 15.879 19.0839 15.864 19.0764 15.8525L18.9439 15.6901C18.9376 15.6827 18.9298 15.6783 18.9217 15.6778Z" fill="#CC092F"/>
<path d="M16.8061 5.5103C17.0225 5.5103 17.1747 5.6496 17.3795 5.77784C17.4332 5.81144 17.4825 5.83867 17.5265 5.85974C17.5026 5.88552 17.4837 5.91934 17.4714 5.95806C17.4714 5.95806 17.5631 5.98206 17.6048 6.09051C17.6048 6.09051 17.5175 6.10448 17.5033 6.17648C17.5521 6.18168 17.6007 6.26867 17.6009 6.35262L17.4772 6.29798C17.4962 6.43286 17.5062 6.56998 17.5071 6.70752C17.5071 6.81648 17.396 6.9447 17.396 7.12936C17.396 7.70894 17.4994 7.93171 17.5729 8.11088C17.6017 8.18099 17.6251 8.26166 17.6735 8.32248C17.4616 8.1632 17.3041 7.96411 17.3041 7.77918V7.07886H17.249V7.77918C17.249 7.91328 17.2722 7.97576 17.2722 7.97576C17.3054 8.12414 17.3727 8.35315 17.4143 8.44536C17.2194 8.29662 17.1203 8.11035 17.1203 8.04128V7.07883H17.0652V8.05491L17.0759 8.12179C17.0522 8.17192 17.0215 8.23128 17.0004 8.25147C16.9794 8.23131 16.9496 8.17184 16.926 8.12179L16.9366 8.05491V7.07883H16.8815V8.04128C16.8815 8.11032 16.7825 8.29662 16.5875 8.44536C16.6292 8.35312 16.6964 8.12414 16.7296 7.97576C16.7296 7.97576 16.7529 7.91331 16.7529 7.77918V7.07886H16.6977V7.77918C16.6977 7.9639 16.5408 8.16331 16.3293 8.32248C16.3772 8.2616 16.4003 8.18059 16.4289 8.11088C16.5093 7.91494 16.6088 7.666 16.6088 6.95734C16.6088 6.69136 16.5809 6.51054 16.5324 6.38398C16.5176 6.34222 16.4977 6.23107 16.6107 6.23107C16.6692 6.23107 16.8031 6.37715 16.8031 6.37715C16.7978 6.30438 16.7711 6.23806 16.7296 6.19422C16.7212 6.18479 16.7141 6.17303 16.709 6.15965C16.7038 6.14626 16.7007 6.13154 16.6997 6.11638C16.7074 6.07534 16.7261 6.04013 16.7519 6.01808C16.7676 6.008 16.5217 5.94752 16.5217 5.79011C16.5217 5.75734 16.5363 5.7355 16.5875 5.7355C16.6544 5.7355 16.7633 5.8488 16.8602 5.8488C16.9317 5.8488 16.96 5.82422 17.0332 5.82422C17.1228 5.82422 17.3097 6.06366 17.3736 6.05491C17.3021 5.99158 17.1867 5.75184 17.012 5.75184C16.9513 5.75184 16.8964 5.77096 16.8398 5.77096C16.7673 5.77096 16.6958 5.67675 16.6174 5.67675C16.5649 5.67675 16.5062 5.68088 16.4975 5.66171C16.4823 5.62824 16.496 5.60883 16.5101 5.58118C16.5367 5.52899 16.6114 5.51384 16.6851 5.51022C16.7072 5.50912 16.7293 5.50859 16.75 5.50886L16.8061 5.51027L16.8061 5.5103Z" fill="#B07E5B"/>
<path d="M16.1033 5.88518C16.1378 5.80673 16.1992 5.76017 16.2645 5.76302C16.3128 5.76302 16.4722 5.7583 16.4722 5.7583C16.4934 5.83619 16.5902 5.96635 16.5902 6.10171C16.5902 6.10171 16.4919 5.85166 16.2177 5.85166C16.1783 5.85081 16.1392 5.86225 16.1033 5.88515L16.1033 5.88518ZM16.5493 6.14945C16.5493 6.14945 16.4909 6.23633 16.4782 6.2827C16.4204 6.25177 16.3195 6.10507 16.3195 6.10507C16.3195 6.10507 16.405 6.17553 16.5493 6.14945H16.5493Z" fill="#CC092F"/>
<path d="M16.4568 5.9194C16.4568 5.9194 16.3894 5.88889 16.3894 5.85694C16.3894 5.81625 16.4221 5.81625 16.4417 5.84796C16.451 5.86953 16.4562 5.89417 16.4568 5.91942L16.4568 5.9194Z" fill="black"/>
<path d="M16.7711 6.12072C16.848 6.12072 16.9103 6.05391 16.9103 5.97149C16.9103 5.88908 16.848 5.82227 16.7711 5.82227C16.6942 5.82227 16.6318 5.88908 16.6318 5.97149C16.6318 6.05391 16.6942 6.12072 16.7711 6.12072Z" fill="black"/>
<path d="M16.7709 6.10808C16.8243 6.10808 16.8677 6.04694 16.8677 5.97152C16.8677 5.8961 16.8243 5.83496 16.7709 5.83496C16.7175 5.83496 16.6742 5.8961 16.6742 5.97152C16.6742 6.04694 16.7175 6.10808 16.7709 6.10808Z" fill="#FFD200"/>
<path d="M16.771 6.03381C16.7954 6.03381 16.8153 6.0058 16.8153 5.97125C16.8153 5.9367 16.7954 5.90869 16.771 5.90869C16.7465 5.90869 16.7267 5.9367 16.7267 5.97125C16.7267 6.0058 16.7465 6.03381 16.771 6.03381Z" fill="black"/>
<path d="M15.2084 15.7852L15.5145 16.0209L15.4402 16.5016L15.1342 16.2659L15.2084 15.7852Z" fill="black"/>
<path d="M13.7828 11.166L13.6725 11.237L14.918 15.0882H15.0505L13.7828 11.166ZM15.2516 15.7079L15.1617 15.8389L15.2178 16.0137L15.327 15.9427L15.2516 15.7079Z" fill="black"/>
<path d="M14.1698 14.2026C14.1698 14.2026 14.2747 14.5085 14.3545 14.5505C14.3132 14.5346 14.1793 14.604 14.1793 14.604C14.1793 14.604 14.4154 14.9017 14.6157 14.9212C14.7855 14.9378 14.8679 14.8181 14.8679 14.8181L14.8339 14.5641C14.7603 14.4479 14.6675 14.359 14.5638 14.3053C14.3958 14.2227 14.1698 14.2027 14.1698 14.2027L14.1698 14.2026ZM14.9607 13.6546C14.9607 13.6546 14.8158 13.8297 14.7762 14.0324C14.7365 14.2352 14.802 14.4657 14.802 14.4657L14.9237 14.7863C14.9237 14.7863 15.0924 14.6595 15.1642 14.47C15.236 14.2805 15.2096 14.0247 15.2096 14.0247C15.2096 14.0247 15.076 14.095 15.059 14.126C15.0872 13.9158 14.9607 13.6546 14.9607 13.6546ZM14.4951 13.5727C14.4951 13.5727 14.3303 13.6514 14.1703 13.6378C14.0179 13.6248 13.8912 13.4441 13.8912 13.4441C13.8912 13.4441 14.0176 13.3234 14.0799 13.3395C14.0113 13.3041 13.9119 13.0615 13.9119 13.0615C13.9119 13.0615 14.0532 13.0012 14.1785 13.0679C14.3038 13.1346 14.4131 13.3285 14.4131 13.3285L14.4951 13.5727ZM14.5517 12.4367C14.5517 12.4367 14.6341 12.6776 14.6146 12.7613C14.6402 12.7056 14.7369 12.6188 14.7369 12.6188C14.7369 12.6188 14.7954 13.0087 14.7394 13.2496C14.6835 13.4904 14.5133 13.5821 14.5133 13.5821L14.3255 13.0665C14.3255 13.0665 14.2975 12.8754 14.3561 12.7242C14.4146 12.5729 14.5517 12.4367 14.5517 12.4367V12.4367ZM13.4798 11.7991C13.4798 11.7991 13.6579 11.7727 13.8208 11.868C13.957 11.9478 13.9987 12.0929 13.9987 12.0929L14.0658 12.3468C14.0658 12.3468 13.872 12.4494 13.7188 12.3709C13.5657 12.2925 13.4532 12.0328 13.4532 12.0328C13.4532 12.0328 13.5602 11.9755 13.6009 11.997C13.5416 11.9599 13.4798 11.7991 13.4798 11.7991V11.7992L13.4798 11.7991ZM14.0399 11.3279C14.0399 11.3279 14.118 11.4696 14.1203 11.6326C14.1412 11.5459 14.2387 11.4502 14.2387 11.4502C14.2387 11.4502 14.3391 11.793 14.3171 12.0364C14.295 12.2798 14.1507 12.4238 14.1507 12.4238L13.9706 11.9413C13.9706 11.9413 13.912 11.7436 13.9292 11.5902C13.9465 11.4368 14.0399 11.3279 14.0399 11.3279V11.3279ZM13.4231 10.4053C13.4231 10.4053 13.3909 10.668 13.4458 10.8194C13.4949 10.9545 13.5261 10.9841 13.5261 10.9841C13.4325 10.8969 13.291 10.8894 13.291 10.8894C13.291 10.8894 13.3414 11.1753 13.4617 11.3057C13.5821 11.4362 13.7677 11.4057 13.7677 11.4057C13.7677 11.4057 13.8897 11.1763 13.8812 10.9293C13.8727 10.6822 13.7337 10.4174 13.7337 10.4174C13.7337 10.4174 13.6789 10.5779 13.674 10.6977C13.6386 10.5742 13.4231 10.4053 13.4231 10.4053L13.4231 10.4053ZM14.8776 14.8071L14.8826 14.9015C14.9936 14.9029 15.0101 14.8873 15.0385 14.9367C15.066 14.9802 15.1103 14.9934 15.1478 14.9691C15.1697 14.9548 15.1866 14.929 15.1951 14.8971C15.2035 14.8653 15.2027 14.8301 15.1928 14.7991C15.1721 14.7351 15.13 14.7212 15.0894 14.7325C15.0645 14.7395 15.0481 14.7675 15.0269 14.783C14.9867 14.8123 14.8775 14.8072 14.8775 14.8072L14.8776 14.8071Z" fill="black"/>
<path d="M14.868 14.7353L14.922 14.7912C14.864 14.9249 14.846 14.9364 14.8606 14.9966C14.8662 15.0239 14.8655 15.0529 14.8586 15.0796C14.8517 15.1062 14.8389 15.1291 14.8221 15.1447C14.802 15.1633 14.7774 15.1699 14.7539 15.1631C14.7303 15.1564 14.7095 15.1367 14.6961 15.1085C14.6687 15.0498 14.6826 14.9921 14.7109 14.9494C14.7283 14.9232 14.7538 14.9185 14.7743 14.9013C14.8132 14.8687 14.8679 14.7353 14.8679 14.7353L14.868 14.7353ZM14.4921 13.6153L14.4971 13.7096C14.6081 13.711 14.6246 13.6955 14.653 13.7448C14.6805 13.7883 14.7248 13.8015 14.7623 13.7772C14.8078 13.7476 14.8278 13.6717 14.8073 13.6072C14.7866 13.5432 14.7444 13.5294 14.7039 13.5407C14.6789 13.5476 14.6625 13.5757 14.6414 13.5911C14.6012 13.6205 14.492 13.6153 14.492 13.6153L14.4921 13.6153Z" fill="black"/>
<path d="M14.5146 13.6484L14.5618 13.7156C14.4898 13.8349 14.4707 13.8423 14.4785 13.905C14.4838 13.9628 14.4618 14.0187 14.4242 14.0429C14.4022 14.0568 14.3773 14.0579 14.3547 14.0461C14.3322 14.0342 14.3139 14.0102 14.3037 13.9794C14.2831 13.9155 14.3032 13.8614 14.3359 13.8255C14.3559 13.8035 14.3817 13.8044 14.4037 13.792C14.4458 13.7683 14.5146 13.6485 14.5146 13.6485V13.6484ZM14.1185 12.4991L14.1235 12.5934C14.2345 12.5949 14.251 12.5793 14.2794 12.6287C14.2928 12.6499 14.3106 12.6644 14.3303 12.6703C14.35 12.6761 14.3705 12.6729 14.3888 12.6611C14.4106 12.6468 14.4276 12.6209 14.436 12.5891C14.4444 12.5572 14.4436 12.522 14.4337 12.491C14.413 12.427 14.3709 12.4132 14.3303 12.4245C14.3053 12.4314 14.2889 12.4595 14.2678 12.4749C14.2276 12.5043 14.1184 12.4991 14.1184 12.4991L14.1185 12.4991Z" fill="black"/>
<path d="M14.1492 12.4793L14.1964 12.5464C14.1245 12.6657 14.1054 12.6732 14.1131 12.7359C14.1184 12.7936 14.0964 12.8496 14.0589 12.8737C14.0369 12.8876 14.012 12.8888 13.9894 12.8769C13.9669 12.865 13.9485 12.8411 13.9384 12.8103C13.9178 12.7463 13.9379 12.6922 13.9706 12.6564C13.9906 12.6343 14.0163 12.6352 14.0384 12.6228C14.0805 12.5991 14.1492 12.4793 14.1492 12.4793ZM13.7205 11.3209L13.7255 11.4152C13.8364 11.4167 13.853 11.4011 13.8814 11.4504C13.8948 11.4716 13.9126 11.4862 13.9323 11.492C13.952 11.4979 13.9724 11.4947 13.9907 11.4829C14.0126 11.4686 14.0295 11.4427 14.038 11.4109C14.0464 11.379 14.0456 11.3438 14.0357 11.3128C14.015 11.2488 13.9729 11.2349 13.9322 11.2463C13.9074 11.2532 13.891 11.2813 13.8698 11.2967C13.8296 11.326 13.7204 11.3209 13.7204 11.3209H13.7205Z" fill="black"/>
<path d="M13.7512 11.3013L13.7984 11.3684C13.7265 11.4877 13.7073 11.4951 13.7151 11.5579C13.7204 11.6156 13.6984 11.6716 13.6609 11.6957C13.6389 11.7096 13.614 11.7108 13.5914 11.6989C13.5689 11.687 13.5506 11.6631 13.5404 11.6323C13.5197 11.5683 13.5399 11.5142 13.5725 11.4784C13.5926 11.4564 13.6183 11.4572 13.6404 11.4448C13.6825 11.4211 13.7512 11.3013 13.7512 11.3013L13.7512 11.3013Z" fill="black"/>
<path d="M15.2525 15.9217L15.4423 16.0678L15.3963 16.366L15.2064 16.2199L15.2525 15.9217ZM14.4216 13.3357C14.3818 13.359 14.3228 13.1145 14.2795 12.9806C14.235 12.8431 14.1448 12.6313 14.1704 12.6147C14.1985 12.5966 14.2356 12.7078 14.2811 12.8485C14.3266 12.9892 14.4589 13.3138 14.4216 13.3357V13.3357ZM14.013 12.048C13.9733 12.0714 13.9297 11.9113 13.8864 11.7773C13.842 11.6399 13.7987 11.5428 13.8243 11.5262C13.8525 11.5081 13.894 11.6286 13.9304 11.741C13.9656 11.8501 14.0503 12.0261 14.013 12.048L14.013 12.048ZM14.9582 14.9677C14.927 14.9795 14.7907 14.5767 14.6805 14.2359C14.5703 13.8951 14.4883 13.6194 14.5139 13.603C14.542 13.5848 14.6313 13.9067 14.7415 14.2476C14.8517 14.5884 14.9816 14.9588 14.9582 14.9677H14.9582Z" fill="#FFD200"/>
<path d="M15.1106 14.9222C15.1378 14.9222 15.1598 14.8911 15.1598 14.8527C15.1598 14.8143 15.1378 14.7832 15.1106 14.7832C15.0834 14.7832 15.0614 14.8143 15.0614 14.8527C15.0614 14.8911 15.0834 14.9222 15.1106 14.9222Z" fill="#FFD200"/>
<path d="M14.772 15.1077C14.7992 15.1077 14.8212 15.0766 14.8212 15.0382C14.8212 14.9999 14.7992 14.9688 14.772 14.9688C14.7448 14.9688 14.7228 14.9999 14.7228 15.0382C14.7228 15.0766 14.7448 15.1077 14.772 15.1077Z" fill="#FFD200"/>
<path d="M14.7249 13.7293C14.7521 13.7293 14.7741 13.6982 14.7741 13.6598C14.7741 13.6214 14.7521 13.5903 14.7249 13.5903C14.6977 13.5903 14.6757 13.6214 14.6757 13.6598C14.6757 13.6982 14.6977 13.7293 14.7249 13.7293Z" fill="#FFD200"/>
<path d="M14.3862 13.9959C14.4134 13.9959 14.4354 13.9648 14.4354 13.9264C14.4354 13.888 14.4134 13.8569 14.3862 13.8569C14.359 13.8569 14.3369 13.888 14.3369 13.9264C14.3369 13.9648 14.359 13.9959 14.3862 13.9959Z" fill="#FFD200"/>
<path d="M14.3513 12.6141C14.3785 12.6141 14.4006 12.583 14.4006 12.5446C14.4006 12.5062 14.3785 12.4751 14.3513 12.4751C14.3242 12.4751 14.3021 12.5062 14.3021 12.5446C14.3021 12.583 14.3242 12.6141 14.3513 12.6141Z" fill="#FFD200"/>
<path d="M14.0208 12.827C14.048 12.827 14.07 12.7959 14.07 12.7575C14.07 12.7191 14.048 12.688 14.0208 12.688C13.9936 12.688 13.9716 12.7191 13.9716 12.7575C13.9716 12.7959 13.9936 12.827 14.0208 12.827Z" fill="#FFD200"/>
<path d="M13.9534 11.4359C13.9806 11.4359 14.0026 11.4047 14.0026 11.3664C14.0026 11.328 13.9806 11.2969 13.9534 11.2969C13.9262 11.2969 13.9041 11.328 13.9041 11.3664C13.9041 11.4047 13.9262 11.4359 13.9534 11.4359Z" fill="#FFD200"/>
<path d="M13.6229 11.6488C13.6501 11.6488 13.6721 11.6176 13.6721 11.5793C13.6721 11.5409 13.6501 11.5098 13.6229 11.5098C13.5957 11.5098 13.5737 11.5409 13.5737 11.5793C13.5737 11.6176 13.5957 11.6488 13.6229 11.6488Z" fill="#FFD200"/>
<path d="M13.4779 10.5649C13.4779 10.5649 13.4731 10.757 13.5181 10.8659C13.5631 10.9748 13.6636 11.0183 13.6636 11.0183C13.6636 11.0183 13.6684 10.8263 13.6234 10.7174C13.5784 10.6085 13.4779 10.5649 13.4779 10.5649ZM13.3839 10.9993C13.3839 10.9993 13.502 11.0092 13.5702 11.083C13.6385 11.1568 13.6649 11.3106 13.6649 11.3106C13.6123 11.3145 13.5605 11.2923 13.5184 11.248C13.4501 11.1741 13.3839 10.9993 13.3839 10.9993ZM13.7546 10.6116C13.7305 10.6955 13.7187 10.7854 13.7199 10.8759C13.7244 11.0131 13.7811 11.1676 13.7811 11.1676C13.7811 11.1676 13.8323 11.0029 13.8278 10.8658C13.8233 10.7286 13.7684 10.6504 13.7546 10.6116ZM13.5557 11.8479C13.5952 11.9212 13.6454 11.9815 13.7031 12.0246C13.7924 12.0869 13.9254 12.0892 13.9254 12.0892C13.8827 12.0139 13.8297 11.9514 13.7697 11.9052C13.6804 11.8429 13.5557 11.8478 13.5557 11.8478V11.8479ZM13.5845 12.1135C13.5845 12.1135 13.6271 12.2314 13.705 12.2819C13.783 12.3324 13.9425 12.3283 13.9425 12.3283C13.9044 12.2619 13.8571 12.2072 13.8034 12.1676C13.7254 12.117 13.5845 12.1135 13.5845 12.1135ZM14.0334 11.4847C14.005 11.555 13.9904 11.6348 13.9909 11.7158C13.9955 11.837 14.0519 11.9694 14.0519 11.9694C14.0519 11.9694 14.0915 11.8176 14.0869 11.6964C14.0829 11.6203 14.0644 11.5471 14.0334 11.4847H14.0334ZM14.207 11.6401C14.207 11.6401 14.1264 11.7929 14.1148 11.95C14.1032 12.1071 14.1607 12.2685 14.1607 12.2685C14.1607 12.2685 14.2581 12.1304 14.2697 11.9733C14.2812 11.8163 14.207 11.6402 14.207 11.6402V11.6401ZM13.9847 13.0908C13.9936 13.1333 14.0083 13.1729 14.0281 13.2073C14.0556 13.2525 14.0862 13.2939 14.1194 13.3308C14.1603 13.3153 14.2031 13.3139 14.2444 13.3266C14.3136 13.3478 14.4057 13.4349 14.4057 13.4349C14.4057 13.4349 14.3066 13.2261 14.2037 13.1449C14.1363 13.0959 14.0599 13.077 13.9847 13.0908L13.9847 13.0908ZM13.9745 13.4497C13.9745 13.4497 14.1028 13.3724 14.2085 13.3923C14.3141 13.4123 14.4094 13.5302 14.4094 13.5302C14.4094 13.5302 14.2666 13.6 14.161 13.58C14.0913 13.5624 14.0267 13.5172 13.9745 13.4497H13.9745ZM14.5168 12.6076C14.5168 12.6076 14.4033 12.7773 14.3938 12.9246C14.3843 13.0719 14.4858 13.2091 14.4858 13.2091C14.4831 13.1562 14.4874 13.1031 14.4983 13.0525C14.5128 13.0066 14.5311 12.9635 14.553 12.9239C14.5619 12.8795 14.5652 12.8333 14.5627 12.7873C14.554 12.7244 14.5385 12.6638 14.5168 12.6076ZM14.6796 12.8041C14.6796 12.8041 14.5727 12.9569 14.5444 13.1205C14.5162 13.2841 14.5665 13.4585 14.5665 13.4585C14.5665 13.4585 14.6638 13.3502 14.6921 13.1866C14.7203 13.0231 14.6796 12.8041 14.6796 12.8041ZM14.9475 13.7903C14.9754 13.8738 14.9958 13.9618 15.0082 14.0525C15.0205 14.1719 15.0091 14.2132 15.0091 14.2132C15.0091 14.2132 14.959 14.2827 14.9366 14.3236C14.9077 14.3761 14.9035 14.4723 14.9035 14.4723C14.9035 14.4723 14.8029 14.2612 14.8184 14.1069C14.8339 13.9526 14.9475 13.7902 14.9475 13.7902V13.7903ZM15.1594 14.1207C15.1594 14.1207 15.0306 14.2408 14.9795 14.364C14.9491 14.4396 14.9403 14.5288 14.9549 14.6133C14.9843 14.6074 15.0124 14.5922 15.0372 14.5689C15.0619 14.5456 15.0826 14.5148 15.0978 14.4787C15.1489 14.3556 15.1594 14.1206 15.1594 14.1206L15.1594 14.1207ZM14.3132 14.6279C14.3132 14.6279 14.4988 14.6207 14.6122 14.6601C14.7257 14.6995 14.767 14.7853 14.767 14.7853C14.767 14.7853 14.6394 14.8696 14.526 14.8303C14.4125 14.7909 14.3132 14.6278 14.3132 14.6278L14.3132 14.6279ZM14.2818 14.3169C14.2818 14.3169 14.3656 14.5002 14.4738 14.5667C14.623 14.6583 14.7957 14.6139 14.7957 14.6139C14.7957 14.6139 14.7019 14.4516 14.5728 14.3799C14.4436 14.3082 14.2818 14.3169 14.2818 14.3169Z" fill="#007A50"/>
<path d="M20.6364 10.7187L20.6606 10.7911C20.6366 10.8038 20.6164 10.8279 20.6035 10.8593C20.5858 10.9085 20.6152 10.9781 20.6152 10.9781C20.6152 10.9781 20.4111 10.9529 20.3792 10.9822C20.3504 11.0086 20.3914 11.2082 20.3724 11.3767C20.346 11.6117 20.2804 11.5919 20.2777 11.6375C20.2751 11.6817 20.3028 11.7508 20.3028 11.7508C20.3028 11.7508 20.2645 11.7678 20.2564 11.7904C20.2433 11.8267 20.2655 11.8937 20.2496 11.9378L19.9431 12.7869C19.931 12.8204 19.8985 12.8332 19.8822 12.8784C19.8736 12.9112 19.8726 12.9471 19.8793 12.9808C19.8793 12.9808 19.8218 12.9856 19.8019 13.0408C19.7894 13.0845 19.7863 13.1325 19.7932 13.1787C19.7817 13.1816 19.7709 13.1881 19.7615 13.1978C19.7521 13.2075 19.7444 13.2201 19.739 13.2347C19.72 13.2875 19.7522 13.3152 19.7439 13.3384L19.4064 14.2736C19.3756 14.3589 19.2678 14.376 19.2053 14.5493C19.1878 14.5959 19.1809 14.649 19.1856 14.7012C19.1902 14.7535 19.2062 14.8025 19.2314 14.8415C19.2314 14.8415 19.1412 14.853 19.1173 14.9193C19.0929 14.9869 19.1122 15.0896 19.1772 15.1364C19.2423 15.1832 19.3134 15.1453 19.3378 15.0777C19.3617 15.0113 19.3136 14.9016 19.3136 14.9016C19.3508 14.9069 19.3882 14.896 19.4209 14.8703C19.4535 14.8447 19.4799 14.8056 19.4963 14.7582C19.5589 14.5848 19.5062 14.4531 19.5369 14.3678L19.8744 13.4326C19.8828 13.4094 19.9172 13.4295 19.9363 13.3767C19.9415 13.3621 19.9442 13.3459 19.9442 13.3296C19.9442 13.3132 19.9415 13.2971 19.9363 13.2825C19.967 13.2631 19.9929 13.2312 20.0108 13.191C20.0307 13.1358 20.0002 13.0668 20.0002 13.0668C20.0234 13.055 20.0434 13.033 20.0572 13.004C20.0735 12.9589 20.0615 12.9147 20.0736 12.8811L20.3802 12.032C20.3961 11.9879 20.4473 11.9728 20.4604 11.9364C20.4686 11.9139 20.4556 11.86 20.4556 11.86C20.4556 11.86 20.512 11.8521 20.5358 11.8231C20.5604 11.7933 20.5106 11.7293 20.6297 11.561C20.7151 11.4403 20.8529 11.3692 20.8511 11.3207C20.8491 11.2671 20.7147 11.0491 20.7147 11.0491C20.7147 11.0491 20.7714 11.0423 20.7892 10.9931C20.7996 10.9596 20.8017 10.922 20.795 10.8866L20.8511 10.873V10.4976L20.6364 10.7187ZM18.7827 15.9474C18.7782 15.9603 18.7758 15.9745 18.7758 15.989C18.7758 16.0034 18.7782 16.0177 18.7827 16.0306C18.7827 16.0306 18.7151 16.0007 18.6919 16.0169C18.67 16.0322 18.6919 16.4825 18.6919 16.4825C18.6919 16.4825 18.9619 16.242 18.9577 16.2081C18.9534 16.172 18.8968 16.1112 18.8968 16.1112C18.9068 16.109 18.9163 16.1035 18.9246 16.0952C18.9328 16.0869 18.9395 16.076 18.9442 16.0634C18.9531 16.0387 18.9543 15.9683 18.893 15.9241C18.8747 15.9098 18.8539 15.9032 18.833 15.905C18.8124 15.9069 18.7937 15.9227 18.7827 15.9474Z" fill="black"/>
<path d="M20.6855 10.7335L20.8132 10.8249L20.8113 10.6079L20.6855 10.7335ZM20.6362 10.8645C20.6137 10.9125 20.623 10.9771 20.657 11.0089C20.691 11.0406 20.7368 11.0275 20.7593 10.9795C20.7818 10.9316 20.7725 10.8669 20.7385 10.8352C20.7361 10.833 20.7336 10.8309 20.731 10.8291C20.7182 10.8197 20.7038 10.8154 20.6894 10.8168C20.6669 10.8182 20.6467 10.8364 20.6362 10.8645L20.6362 10.8645ZM20.4168 11.0297C20.4033 11.042 20.4216 11.2043 20.4177 11.3423C20.4141 11.4725 20.3845 11.5092 20.3684 11.5539C20.3535 11.5952 20.2998 11.644 20.2998 11.644L20.3442 11.7068C20.3442 11.7068 20.3732 11.6432 20.4187 11.517C20.4724 11.3682 20.4706 11.0987 20.4864 11.0843C20.5276 11.0638 20.5696 11.0465 20.6121 11.0324C20.6121 11.0324 20.5093 11.0245 20.4525 11.0256C20.4405 11.0246 20.4285 11.026 20.4168 11.0297V11.0297ZM20.4285 11.7792C20.4481 11.7102 20.4704 11.6428 20.4952 11.5771C20.5577 11.4038 20.6912 11.2781 20.6944 11.2468C20.6976 11.2144 20.648 11.0625 20.648 11.0625C20.648 11.0625 20.5302 11.0944 20.5135 11.1171C20.4974 11.1391 20.5045 11.3642 20.4419 11.5376C20.4187 11.605 20.3929 11.6706 20.3646 11.7341L20.4285 11.7792ZM20.7292 11.2591C20.7302 11.2854 20.575 11.442 20.5213 11.5908C20.4757 11.7169 20.4565 11.7874 20.4565 11.7874L20.5184 11.801C20.5184 11.801 20.5141 11.7112 20.529 11.67C20.5451 11.6252 20.5494 11.5705 20.6218 11.4898C20.6987 11.4042 20.8026 11.3294 20.8017 11.3068C20.8009 11.286 20.6857 11.0843 20.6857 11.0843C20.7023 11.1415 20.7169 11.1998 20.7292 11.2591ZM20.2747 12.2324C20.3679 11.974 20.3964 11.9564 20.4082 11.9239C20.4208 11.8889 20.4178 11.8418 20.3763 11.8119C20.3639 11.8022 20.3497 11.798 20.3356 11.7997C20.3267 11.8012 20.3183 11.8058 20.311 11.8132C20.3037 11.8206 20.2979 11.8305 20.2941 11.842C20.2823 11.8745 20.2887 11.9181 20.1954 12.1765L19.9836 12.7621C19.9807 12.7692 19.9788 12.777 19.9781 12.7851C19.9773 12.7932 19.9777 12.8014 19.9792 12.8093C19.9807 12.8172 19.9833 12.8245 19.9868 12.831C19.9903 12.8375 19.9947 12.8429 19.9997 12.847C20.0008 12.8479 20.0018 12.8487 20.003 12.8495C20.0127 12.8572 20.0243 12.8591 20.0351 12.8548C20.0459 12.8505 20.055 12.8403 20.0605 12.8265C20.0614 12.8242 20.0622 12.8218 20.0629 12.8194L20.2747 12.2324ZM19.9005 12.9041C19.889 12.9361 19.9088 12.9831 19.945 13.0092C19.9813 13.0353 20.0205 13.0303 20.032 12.9983C20.0436 12.9663 20.0228 12.9192 19.9866 12.8931C19.9706 12.881 19.9525 12.8753 19.9343 12.8768C19.9205 12.8769 19.9077 12.8873 19.9005 12.9041ZM19.8221 13.0706C19.8072 13.112 19.8305 13.1715 19.8744 13.2031C19.9182 13.2347 19.9658 13.2267 19.9807 13.1853C19.9957 13.1439 19.9723 13.0844 19.9285 13.0528C19.9135 13.0417 19.897 13.0352 19.8802 13.0337C19.8574 13.029 19.8347 13.0434 19.8221 13.0706ZM19.7728 13.2563C19.7613 13.2883 19.7811 13.3353 19.8173 13.3614C19.8535 13.3875 19.8928 13.3825 19.9044 13.3505C19.9159 13.3185 19.8961 13.2715 19.8599 13.2454C19.8435 13.2332 19.8251 13.2275 19.8067 13.229C19.7999 13.2291 19.7932 13.2316 19.7872 13.2364C19.7813 13.2412 19.7763 13.248 19.7728 13.2563ZM19.7409 13.4338L19.4228 14.317C19.3963 14.3904 19.2847 14.4362 19.241 14.5573C19.197 14.6791 19.2281 14.7931 19.2855 14.8344C19.3429 14.8757 19.4272 14.8457 19.4712 14.7239C19.5148 14.6028 19.4756 14.4478 19.5021 14.3744L19.8202 13.4911C19.8262 13.4772 19.8281 13.4606 19.8254 13.4448C19.8227 13.429 19.8157 13.4153 19.8059 13.4068C19.8046 13.4057 19.8032 13.4047 19.8018 13.4037C19.7936 13.3975 19.7841 13.3952 19.7748 13.3969C19.7601 13.4012 19.7476 13.4148 19.7409 13.4338V13.4338ZM19.1461 14.9504C19.1285 14.9992 19.1486 15.0643 19.1915 15.0951C19.2344 15.126 19.2842 15.1111 19.3018 15.0624C19.3194 15.0136 19.2983 14.9485 19.2554 14.9176C19.2405 14.9065 19.2238 14.9009 19.207 14.9013C19.1819 14.9006 19.1585 14.9195 19.1461 14.9504ZM18.8329 15.9484C18.8273 15.9477 18.8216 15.9491 18.8165 15.9524C18.8115 15.9558 18.8071 15.961 18.8039 15.9675C18.7949 15.9924 18.8135 16.0318 18.8454 16.0548C18.8774 16.0779 18.9109 16.0757 18.9199 16.0507C18.9289 16.0258 18.9103 15.9864 18.8783 15.9634C18.8643 15.9531 18.8487 15.9479 18.8329 15.9484ZM18.7226 16.0712V16.3934L18.9083 16.205C18.8885 16.1615 18.8609 16.1262 18.8282 16.1027C18.7956 16.0792 18.7592 16.0684 18.7226 16.0712ZM18.8402 8.89577C18.8402 8.71908 19.0045 8.54492 19.0045 8.54492H14.9955C14.9955 8.54492 15.1598 8.71905 15.1598 8.89577V13.1087C15.1584 13.2013 15.1807 13.2915 15.2227 13.3626C15.2613 13.4387 15.3434 13.5438 15.4286 13.622C15.692 13.8634 16.1322 14.118 16.4653 14.3319C16.7428 14.5101 16.8557 14.5821 17 14.8343C17.1443 14.5821 17.2582 14.5102 17.5357 14.3319C17.8687 14.118 18.309 13.8634 18.5723 13.622C18.6576 13.5438 18.7397 13.4387 18.7783 13.3626C18.8199 13.2913 18.8419 13.2011 18.8402 13.1087V8.89577Z" fill="#FFD200"/>
<path d="M15.2546 11.2794V8.89575C15.2555 8.81794 15.2386 8.74178 15.2063 8.67871H18.7938C18.7615 8.74179 18.7445 8.81793 18.7454 8.89575L18.7465 11.2794L17.0006 12.026L15.2546 11.2794H15.2546Z" fill="#CC092F"/>
<path d="M18.7464 11.2796L17.6653 11.251H16.3357L15.2546 11.2796V13.109C15.2546 13.2009 15.3222 13.4163 15.712 13.6905C16.3563 14.1438 16.8516 14.3554 17 14.6134C17.1484 14.3554 17.6437 14.1438 18.288 13.6905C18.6778 13.4163 18.7454 13.2009 18.7454 13.109L18.7464 11.2796Z" fill="#0046AE"/>
<path d="M17.6392 11.1843C17.6392 11.1843 18.2629 10.9622 18.2629 10.0211C18.2629 9.28612 17.6376 8.92148 17.6199 8.74609C17.5587 9.04959 17.8287 9.46876 17.8287 9.96516C17.8287 10.6075 17.4932 10.6382 17.4932 10.6382C17.4147 10.6382 17.3829 10.7173 17.352 10.7173C17.2859 10.7076 17.2548 10.589 17.1895 10.589C17.1282 10.589 17.0811 10.7228 17 10.7228C16.9189 10.7228 16.8728 10.589 16.8114 10.589C16.7462 10.589 16.7151 10.7076 16.649 10.7173C16.6181 10.7173 16.5863 10.6382 16.5078 10.6382C16.5078 10.6382 16.1723 10.6075 16.1723 9.96516C16.1723 9.46876 16.4423 9.04953 16.3811 8.74609C16.3634 8.92148 15.7381 9.28609 15.7381 10.0211C15.7381 10.9622 16.3618 11.1843 16.3618 11.1843L16.1839 11.6416C16.1839 11.6416 16.4416 11.6598 16.5784 11.8245C16.7434 12.0231 16.7273 12.444 16.7273 12.7501C16.7273 12.9913 16.7057 13.2458 16.6181 13.3507C16.5004 13.4916 16.4208 13.5021 16.4208 13.6675C16.4208 13.8055 16.4959 13.8331 16.6181 13.9241C16.7746 14.0408 16.7673 14.1972 17 14.1972C17.2327 14.1972 17.2264 14.0408 17.3829 13.9241C17.5051 13.8331 17.5802 13.8055 17.5802 13.6675C17.5802 13.5021 17.5006 13.4916 17.3829 13.3507C17.2953 13.2458 17.2737 12.9913 17.2737 12.7501C17.2737 12.444 17.2577 12.0231 17.4226 11.8245C17.5594 11.6598 17.8171 11.6416 17.8171 11.6416L17.6392 11.1843ZM17 8.81143L16.8916 9.24559L16.5967 9.04761L16.7369 9.46401L16.4294 9.61825L16.7369 9.77252L16.5967 10.1875L16.8916 9.98959L17 10.4237L17.1092 9.98959L17.4042 10.1875L17.264 9.77252L17.5715 9.61825L17.264 9.46401L17.4042 9.04761L17.1092 9.24559L17 8.81143ZM16.3356 11.2512C16.3356 11.2512 15.9505 11.1183 15.8067 10.8498C15.6466 11.0473 15.4583 11.194 15.2545 11.2798C15.2545 11.2798 15.5682 11.4798 15.8067 11.7344C15.9166 11.5121 16.3356 11.2512 16.3356 11.2512Z" fill="black"/>
<path d="M17.6652 11.251C17.6652 11.251 18.0843 11.5119 18.1942 11.7342C18.4326 11.4796 18.7463 11.2796 18.7463 11.2796C18.5426 11.1938 18.3543 11.0471 18.1942 10.8496C18.0503 11.118 17.6652 11.251 17.6652 11.251ZM16.4934 11.8296L16.3435 12.0412L16.4934 12.2528L16.6432 12.0412L16.4934 11.8296ZM17.5077 11.8296L17.3578 12.0412L17.5077 12.2528L17.6576 12.0412L17.5077 11.8296ZM16.4556 13.0651C16.4574 13.2016 16.4513 13.3382 16.4373 13.4733C16.4373 13.4733 16.6486 13.3855 16.6906 13.0829C16.7104 12.941 16.7323 12.4184 16.6307 12.3293L16.3551 12.2528C16.4218 12.5133 16.4558 12.7882 16.4557 13.0651H16.4556ZM17.3703 12.3293C17.2687 12.4184 17.2907 12.941 17.3104 13.0829C17.3525 13.3855 17.5637 13.4733 17.5637 13.4733C17.5498 13.3382 17.5436 13.2017 17.5454 13.0651C17.5452 12.7882 17.5793 12.5133 17.646 12.2528L17.3703 12.3293ZM15.8059 12.3444C15.7117 12.3764 15.6536 12.5102 15.6763 12.6432C15.68 12.6652 15.6859 12.6864 15.6937 12.7062C15.6797 12.6995 15.665 12.6954 15.6502 12.6939C15.6441 12.6934 15.638 12.6934 15.6318 12.6939C15.6076 12.6951 15.5837 12.7034 15.5618 12.7182C15.5398 12.733 15.5203 12.754 15.5043 12.7799C15.4884 12.8058 15.4764 12.836 15.469 12.8688C15.4617 12.9015 15.4592 12.936 15.4618 12.9701C15.4643 13.0043 15.4718 13.0373 15.4837 13.0672C15.4957 13.0971 15.5118 13.1232 15.5312 13.1439C15.5506 13.1646 15.5728 13.1794 15.5965 13.1875C15.6201 13.1956 15.6446 13.1967 15.6686 13.1908C15.66 13.2073 15.6528 13.2251 15.6473 13.2441C15.6296 13.3057 15.6298 13.3747 15.6481 13.436C15.6664 13.4973 15.7011 13.5459 15.7448 13.571C15.7884 13.5961 15.8373 13.5958 15.8807 13.57C15.9242 13.5442 15.9586 13.4951 15.9764 13.4335L15.9771 13.4311C15.9824 13.4123 15.9859 13.3925 15.9877 13.3724C15.9963 13.3891 16.0064 13.4043 16.0177 13.4174C16.0919 13.5077 16.2039 13.496 16.2679 13.3912C16.3319 13.2864 16.3235 13.1282 16.2493 13.0379C16.2372 13.0231 16.2236 13.0107 16.2091 13.0011C16.2231 12.9948 16.2364 12.9861 16.2488 12.9752C16.2887 12.9395 16.317 12.8831 16.3275 12.8181C16.338 12.7531 16.3298 12.6849 16.3048 12.6284C16.2703 12.5506 16.2082 12.506 16.1434 12.5124C16.1138 12.5152 16.0852 12.5283 16.0602 12.5506C16.0478 12.5613 16.0365 12.5741 16.0264 12.5888C16.0261 12.5219 16.0071 12.4578 15.9734 12.4106C15.9397 12.3635 15.8941 12.3372 15.8467 12.3375C15.833 12.3376 15.8193 12.3399 15.8059 12.3444V12.3444ZM17.6914 13.0734C17.7106 13.329 17.8578 13.5432 18.0395 13.6044C18.0079 13.5328 17.9881 13.4521 17.9815 13.3682C17.9587 13.065 18.1248 12.8194 18.3518 12.8194C18.387 12.8195 18.422 12.8254 18.4562 12.8372C18.3716 12.6439 18.2227 12.5253 18.0617 12.5232C17.8347 12.5232 17.6686 12.7702 17.6914 13.0733V13.0734Z" fill="black"/>
<path d="M16.0814 9.96511C16.0814 10.4485 16.264 10.7337 16.5078 10.7337C16.5543 10.7337 16.6052 10.8224 16.649 10.8224C16.7205 10.8224 16.768 10.7105 16.8115 10.7105C16.8668 10.7105 16.9041 10.8333 17 10.8333C17.096 10.8333 17.1343 10.7105 17.1896 10.7105C17.2331 10.7105 17.2806 10.8224 17.352 10.8224C17.3959 10.8224 17.4467 10.7337 17.4932 10.7337C17.7371 10.7337 17.9197 10.4485 17.9197 9.96511C17.9197 9.57087 17.6851 9.09018 17.7108 9.01221C17.7108 9.01221 18.1682 9.47538 18.1682 10.0211C18.1682 10.9001 17.5367 11.1173 17.5367 11.1173L17.6789 11.5691C17.6789 11.5691 17.4831 11.6106 17.3636 11.7466C17.2042 11.9281 17.2021 12.4184 17.2021 12.75C17.2021 13.1406 17.2124 13.3061 17.3124 13.4121C17.4178 13.5239 17.4971 13.548 17.4971 13.6619C17.4971 13.7612 17.415 13.8018 17.3085 13.8681C17.1874 13.9435 17.1753 14.0742 17 14.0742C16.8248 14.0742 16.8137 13.9435 16.6925 13.8681C16.5861 13.8018 16.504 13.7612 16.504 13.6619C16.504 13.548 16.5832 13.5239 16.6886 13.4121C16.7886 13.3061 16.7989 13.1406 16.7989 12.75C16.7989 12.4184 16.7968 11.9281 16.6374 11.7466C16.5179 11.6105 16.3222 11.5691 16.3222 11.5691L16.4643 11.1173C16.4643 11.1173 15.8329 10.9001 15.8329 10.0211C15.8329 9.47538 16.2903 9.01221 16.2903 9.01221C16.3159 9.09018 16.0814 9.57087 16.0814 9.96511ZM16.7612 13.5951C16.6371 13.5951 16.5581 13.6321 16.5581 13.6852C16.5581 13.7384 16.6372 13.774 16.7612 13.774C16.7942 13.774 16.8318 13.7468 16.8318 13.6852C16.8314 13.6607 16.8241 13.6374 16.8115 13.6205C16.7989 13.6035 16.7821 13.5943 16.7647 13.5949C16.7635 13.5949 16.7624 13.595 16.7612 13.5951ZM17.2398 13.5951C17.2312 13.5942 17.2226 13.5957 17.2144 13.5994C17.2062 13.6032 17.1987 13.6092 17.1921 13.6171C17.1856 13.625 17.1802 13.6347 17.1763 13.6455C17.1724 13.6563 17.1701 13.6681 17.1694 13.6803C17.1693 13.6819 17.1693 13.6836 17.1692 13.6852C17.1692 13.7468 17.2068 13.774 17.2398 13.774C17.3639 13.774 17.4429 13.7384 17.4429 13.6852C17.4429 13.632 17.3639 13.5951 17.2398 13.5951ZM17.0011 9.10367L17.0707 9.38085L17.2583 9.25389L17.1693 9.52007L17.3647 9.61839L17.1693 9.71669L17.2583 9.98151L17.0707 9.85591L17.0001 10.1317L16.9305 9.85591L16.7429 9.98151L16.8319 9.71669L16.6365 9.61839L16.8319 9.52007L16.7429 9.25389L16.9305 9.38085L17.0011 9.10367ZM15.4381 11.2876C15.4381 11.2876 15.6763 11.4551 15.796 11.6044L15.8027 11.6126L15.8065 11.6058C15.9196 11.4225 16.1295 11.2672 16.1295 11.2672C16.1295 11.2672 15.9279 11.1887 15.8008 10.9832C15.6664 11.1765 15.4381 11.2876 15.4381 11.2876ZM18.5626 11.2881C18.5626 11.2881 18.3244 11.4555 18.2048 11.6048L18.198 11.613L18.1942 11.6062C18.0811 11.423 17.8712 11.2676 17.8712 11.2676C17.8712 11.2676 18.0729 11.1891 18.1999 10.9837C18.3343 11.177 18.5626 11.2881 18.5626 11.2881ZM16.4933 11.9309L16.5717 12.0414L16.4933 12.1534L16.414 12.0414L16.4933 11.9309ZM17.5077 11.9309L17.587 12.0414L17.5077 12.1534L17.4294 12.0414L17.5077 11.9309ZM16.5997 12.414C16.6545 12.5207 16.6452 12.693 16.6452 12.9328C16.6468 12.9997 16.6357 13.066 16.6131 13.1248C16.5905 13.1836 16.5572 13.2328 16.5166 13.2673C16.5166 12.6861 16.4741 12.5464 16.4518 12.3704L16.5997 12.414ZM17.5492 12.3703C17.5268 12.5464 17.4844 12.6861 17.4844 13.2672C17.4438 13.2328 17.4105 13.1836 17.3879 13.1248C17.3653 13.066 17.3542 12.9997 17.3558 12.9328C17.3558 12.693 17.3465 12.5207 17.4013 12.414L17.5492 12.3703ZM15.9915 12.5903C15.995 12.6113 15.996 12.633 15.9944 12.6545C15.9931 12.6713 15.9902 12.6879 15.9857 12.7036C15.9082 12.6648 15.8218 12.6961 15.7671 12.7828C15.7575 12.7709 15.749 12.7571 15.742 12.7418C15.7337 12.7243 15.7275 12.7049 15.7236 12.6845C15.7148 12.6343 15.7205 12.5813 15.7394 12.537C15.7583 12.4928 15.7888 12.4609 15.8243 12.4484C15.8598 12.436 15.8974 12.444 15.9287 12.4706C15.96 12.4972 15.9826 12.5402 15.9915 12.5903ZM16.1976 12.9545C16.1846 12.9657 16.1703 12.9738 16.1553 12.9782C16.1435 12.9817 16.1315 12.9829 16.1195 12.9817C16.1217 12.8657 16.0739 12.7594 15.9986 12.7128C16.0037 12.6961 16.0104 12.6805 16.0185 12.6664C16.0277 12.6498 16.0388 12.6354 16.0514 12.624C16.0825 12.5966 16.1199 12.5878 16.1556 12.5994C16.1912 12.611 16.2222 12.6422 16.2416 12.686C16.261 12.7298 16.2672 12.7827 16.259 12.8331C16.2507 12.8834 16.2287 12.9271 16.1976 12.9545V12.9545ZM16.016 13.3438C16.0044 13.3298 15.9946 13.313 15.9869 13.2943C15.9809 13.2796 15.9764 13.2638 15.9735 13.2474C16.0523 13.2144 16.1092 13.1174 16.1173 13.0019C16.1302 13.0036 16.1427 13.0077 16.1547 13.0142C16.1688 13.0215 16.1819 13.032 16.1935 13.0454C16.2214 13.0787 16.2389 13.1263 16.242 13.1778C16.245 13.2293 16.2335 13.2804 16.2099 13.3199C16.1864 13.3593 16.1528 13.3838 16.1165 13.3883C16.0801 13.3928 16.044 13.3768 16.016 13.3438ZM15.6976 13.2203C15.7035 13.2003 15.7117 13.182 15.722 13.1659C15.73 13.1534 15.7393 13.1424 15.7494 13.1334C15.796 13.2291 15.8789 13.2754 15.9592 13.2507C15.9621 13.2684 15.9632 13.2865 15.9625 13.3047C15.9619 13.3258 15.9589 13.3466 15.9535 13.3663C15.9397 13.4142 15.9131 13.4524 15.8794 13.4725C15.8457 13.4927 15.8077 13.4931 15.7738 13.4738C15.7399 13.4544 15.7128 13.4168 15.6985 13.3692C15.6843 13.3217 15.6839 13.2681 15.6976 13.2202V13.2203ZM15.6824 12.7546C15.6977 12.7563 15.7126 12.7617 15.7266 12.7705C15.7375 12.7774 15.7477 12.7864 15.757 12.7974C15.7069 12.8894 15.7013 13.0151 15.7428 13.1153C15.7317 13.1246 15.7198 13.1317 15.7074 13.1363C15.693 13.1421 15.6781 13.1444 15.6631 13.1433C15.6266 13.1396 15.5926 13.1156 15.5687 13.0766C15.5447 13.0376 15.5327 12.9867 15.5352 12.9352C15.5378 12.8837 15.5548 12.8358 15.5824 12.8019C15.61 12.7681 15.646 12.751 15.6824 12.7546V12.7546Z" fill="#FFD200"/>
<path d="M15.917 13.161C15.9907 13.161 16.0505 13.0766 16.0505 12.9726C16.0505 12.8685 15.9907 12.7842 15.917 12.7842C15.8433 12.7842 15.7836 12.8685 15.7836 12.9726C15.7836 13.0766 15.8433 13.161 15.917 13.161Z" fill="#FFD200"/>
<path d="M18.2599 12.7186C18.0384 12.7791 17.8789 13.0554 17.9021 13.378C17.8315 13.2955 17.7799 13.1843 17.7706 13.0613C17.7527 12.8219 17.8759 12.6367 18.0617 12.6367C18.1319 12.6376 18.2005 12.666 18.2599 12.7186Z" fill="#FFD200"/>
<path d="M18.9262 8.58711H15.0738C15.1249 8.65972 15.1898 8.77556 15.1898 8.89561V12.5543H15.1897V13.1086H15.1898C15.1892 13.152 15.1941 13.1952 15.2044 13.2361C15.2143 13.2724 15.2281 13.3064 15.2453 13.3367L15.246 13.338C15.2836 13.4056 15.3272 13.466 15.3758 13.5177C15.3868 13.5298 15.398 13.5417 15.4094 13.5532C15.4206 13.5646 15.4321 13.5757 15.4437 13.5863L15.444 13.5866C15.649 13.7745 15.9648 13.972 16.2518 14.1515L16.4765 14.2931L16.4766 14.2933V14.2933L16.483 14.2973H16.4831C16.7457 14.466 16.8628 14.5413 17 14.768C17.1375 14.5404 17.2543 14.4655 17.5193 14.2952L17.5193 14.2952L17.5223 14.2932L17.7471 14.1516C18.034 13.9722 18.3499 13.7746 18.5549 13.5867L18.5551 13.5865C18.6126 13.5337 18.6659 13.4721 18.7139 13.4029C18.7215 13.3919 18.7287 13.3806 18.7358 13.3689C18.742 13.3585 18.7478 13.3482 18.7529 13.3381L18.7534 13.3374L18.7535 13.3372L18.7537 13.3367C18.7711 13.3062 18.7851 13.2722 18.7953 13.2358C18.8057 13.1951 18.8108 13.1519 18.8102 13.1086H18.8104V12.5543H18.8102V8.89561C18.8102 8.77556 18.8751 8.65975 18.9262 8.58711ZM18.8702 8.89561V12.5543H18.8701V13.1086H18.8702C18.8708 13.1621 18.8643 13.2153 18.8513 13.2656C18.8391 13.3094 18.8223 13.3504 18.8016 13.3873L18.8016 13.3874C18.7953 13.3998 18.7885 13.4119 18.7815 13.4235C18.7736 13.4365 18.7655 13.4492 18.7571 13.4615C18.7058 13.5353 18.649 13.601 18.5877 13.6573L18.5875 13.6575C18.378 13.8495 18.0601 14.0484 17.7712 14.229L17.5472 14.3703L17.5442 14.3723H17.5441C17.2733 14.5462 17.1626 14.6173 17.0233 14.8607L17 14.9014L16.9767 14.8607C16.8381 14.6184 16.7267 14.5469 16.4582 14.3745L16.4583 14.3744L16.452 14.3704L16.4517 14.3702L16.4517 14.3702L16.4516 14.3703L16.2276 14.2289C15.9388 14.0483 15.6208 13.8494 15.4113 13.6574L15.4106 13.6567L15.4104 13.6565C15.3986 13.6457 15.3865 13.634 15.3744 13.6217C15.3623 13.6095 15.3505 13.5969 15.339 13.5842C15.2859 13.5275 15.2382 13.4612 15.1973 13.3871H15.1973C15.1766 13.3503 15.16 13.3092 15.1481 13.2653C15.1354 13.2151 15.1292 13.162 15.1298 13.1087H15.1299V12.5544H15.1298V8.89561C15.1298 8.73985 14.9779 8.57897 14.9774 8.57852V8.50244H19.0225V8.57852C19.0221 8.57897 18.8702 8.73985 18.8702 8.89561H18.8702ZM18.7795 8.63639L18.7796 8.63623H18.7938L18.8559 8.6362L18.8171 8.70489C18.789 8.76042 18.7743 8.82736 18.7755 8.89564V12.5543H18.7753V13.1086H18.7755C18.7755 13.1836 18.7383 13.3283 18.5633 13.5087L18.5633 13.5088C18.5306 13.5425 18.4928 13.5779 18.4494 13.6145C18.4056 13.6513 18.3566 13.6892 18.302 13.7276L18.302 13.7275L18.3014 13.7279V13.7281C18.0676 13.8925 17.8517 14.0263 17.6653 14.1417C17.3451 14.3399 17.1132 14.4835 17.0233 14.6395L17.0228 14.6403L17.0227 14.6405L16.9994 14.6789L16.9768 14.6396C16.887 14.4835 16.655 14.3399 16.3347 14.1416C16.1484 14.0262 15.9326 13.8926 15.699 13.7283V13.7282L15.6986 13.7279L15.6986 13.728C15.5328 13.6115 15.4238 13.5045 15.353 13.4127C15.3399 13.3958 15.3273 13.3782 15.3152 13.3599C15.2433 13.2508 15.2247 13.1626 15.2247 13.1087H15.2246V13.1086H15.2247V12.5543H15.2246V8.89561C15.2257 8.82734 15.2111 8.76039 15.1829 8.70487L15.1441 8.63639H15.2729V8.63623H18.7271V8.63639H18.7794H18.7795ZM18.7271 8.72073V8.72089H15.2729V8.72073H15.258C15.2755 8.77571 15.2846 8.83532 15.2845 8.89561V12.5543H15.2844V13.1086H15.2845V13.1087H15.2844C15.2844 13.1468 15.2998 13.2124 15.3591 13.3024C15.3693 13.3179 15.3808 13.334 15.3935 13.3505C15.4606 13.4375 15.5649 13.5395 15.7253 13.6523V13.6524L15.7257 13.6527L15.7258 13.6526C15.9608 13.8179 16.1742 13.95 16.3586 14.0641C16.6634 14.2528 16.89 14.3932 17 14.55C17.1101 14.3932 17.3367 14.2529 17.6414 14.0642C17.8259 13.95 18.0396 13.8177 18.2747 13.6523L18.2748 13.6524L18.2754 13.652V13.6518C18.3298 13.6136 18.3773 13.5769 18.4187 13.542C18.4604 13.5069 18.4966 13.473 18.528 13.4407H18.5281C18.6827 13.2813 18.7155 13.1659 18.7155 13.1086H18.7156V12.5543H18.7155V8.89561C18.7155 8.83532 18.7245 8.77571 18.742 8.72073H18.7271Z" fill="black"/>
</g>
</g>
<defs>
<clipPath id="clip0_2001_749">
<path d="M0 4C0 1.79086 1.79086 0 4 0H30C32.2091 0 34 1.79086 34 4V20C34 22.2091 32.2091 24 30 24H4C1.79086 24 0 22.2091 0 20V4Z" fill="white"/>
</clipPath>
<clipPath id="clip1_2001_749">
<rect width="36" height="24" fill="white" transform="translate(-1)"/>
</clipPath>
<clipPath id="clip2_2001_749">
<rect width="34" height="24" fill="white"/>
</clipPath>
</defs>
</svg>
