<svg width="34" height="24" viewBox="0 0 34 24" fill="none" xmlns="http://www.w3.org/2000/svg">
<mask id="mask0_2001_406" style="mask-type:alpha" maskUnits="userSpaceOnUse" x="0" y="0" width="34" height="24">
<path d="M0 4C0 1.79086 1.79086 0 4 0H30C32.2091 0 34 1.79086 34 4V20C34 22.2091 32.2091 24 30 24H4C1.79086 24 0 22.2091 0 20V4Z" fill="#D9D9D9"/>
</mask>
<g mask="url(#mask0_2001_406)">
<g clip-path="url(#clip0_2001_406)">
<path d="M0 0H48V24H0V0Z" fill="#F2A800"/>
<path d="M0 0H48V16H0V0Z" fill="#0033A0"/>
<path d="M0 0H48V8H0V0Z" fill="#D90012"/>
</g>
<g clip-path="url(#clip1_2001_406)">
<path d="M-1 0H35V24H-1V0Z" fill="white"/>
<path d="M14.6 0H19.4V24H14.6V0ZM-1 9.6H35V14.4H-1V9.6Z" fill="#FF0000"/>
<path d="M5.95615 2.34473C6.5163 2.4183 7.08367 2.4183 7.64383 2.34473C7.31864 3.96538 7.31864 5.63448 7.64383 7.25513C7.08367 7.18156 6.5163 7.18156 5.95615 7.25513C6.28133 5.63448 6.28133 3.96538 5.95615 2.34473Z" fill="#FF0000"/>
<path d="M9.25519 3.95605C9.18162 4.51621 9.18162 5.08358 9.25519 5.64373C7.63454 5.31855 5.96544 5.31855 4.34479 5.64373C4.41836 5.08358 4.41836 4.51621 4.34479 3.95605C5.96544 4.28124 7.63454 4.28124 9.25519 3.95605Z" fill="#FF0000"/>
<path d="M26.3561 2.34473C26.9163 2.4183 27.4837 2.4183 28.0438 2.34473C27.7186 3.96538 27.7186 5.63448 28.0438 7.25513C27.4837 7.18156 26.9163 7.18156 26.3561 7.25513C26.6813 5.63448 26.6813 3.96538 26.3561 2.34473Z" fill="#FF0000"/>
<path d="M29.6552 3.95605C29.5816 4.51621 29.5816 5.08358 29.6552 5.64373C28.0345 5.31855 26.3654 5.31855 24.7448 5.64373C24.8184 5.08358 24.8184 4.51621 24.7448 3.95605C26.3654 4.28124 28.0345 4.28124 29.6552 3.95605Z" fill="#FF0000"/>
<path d="M5.95615 16.7446C6.5163 16.8182 7.08367 16.8182 7.64383 16.7446C7.31864 18.3653 7.31864 20.0344 7.64383 21.655C7.08367 21.5815 6.5163 21.5815 5.95615 21.655C6.28133 20.0344 6.28133 18.3653 5.95615 16.7446Z" fill="#FF0000"/>
<path d="M9.25519 18.356C9.18162 18.9161 9.18162 19.4835 9.25519 20.0436C7.63454 19.7185 5.96544 19.7185 4.34479 20.0436C4.41836 19.4835 4.41836 18.9161 4.34479 18.356C5.96544 18.6811 7.63454 18.6811 9.25519 18.356Z" fill="#FF0000"/>
<path d="M26.3561 16.7446C26.9163 16.8182 27.4837 16.8182 28.0438 16.7446C27.7186 18.3653 27.7186 20.0344 28.0438 21.655C27.4837 21.5815 26.9163 21.5815 26.3561 21.655C26.6813 20.0344 26.6813 18.3653 26.3561 16.7446Z" fill="#FF0000"/>
<path d="M29.6552 18.356C29.5816 18.9161 29.5816 19.4835 29.6552 20.0436C28.0345 19.7185 26.3654 19.7185 24.7448 20.0436C24.8184 19.4835 24.8184 18.9161 24.7448 18.356C26.3654 18.6811 28.0345 18.6811 29.6552 18.356Z" fill="#FF0000"/>
</g>
<g clip-path="url(#clip2_2001_406)">
<path d="M34 0H0V24H34V0Z" fill="#0057B7"/>
<path d="M34 12H0V24H34V12Z" fill="#FFD700"/>
</g>
</g>
<defs>
<clipPath id="clip0_2001_406">
<path d="M0 4C0 1.79086 1.79086 0 4 0H30C32.2091 0 34 1.79086 34 4V20C34 22.2091 32.2091 24 30 24H4C1.79086 24 0 22.2091 0 20V4Z" fill="white"/>
</clipPath>
<clipPath id="clip1_2001_406">
<rect width="36" height="24" fill="white" transform="translate(-1)"/>
</clipPath>
<clipPath id="clip2_2001_406">
<rect width="34" height="24" fill="white"/>
</clipPath>
</defs>
</svg>
