<svg width="37" height="26" viewBox="0 0 37 26" fill="none" xmlns="http://www.w3.org/2000/svg">
<path d="M5.33331 0.5C2.84803 0.5 0.833313 2.51472 0.833313 5V21C0.833313 23.4853 2.84803 25.5 5.33331 25.5H31.3333C33.8186 25.5 35.8333 23.4853 35.8333 21V5C35.8333 2.51472 33.8186 0.5 31.3333 0.5H5.33331Z" stroke="#D8D8D8"/>
<mask id="mask0_2001_2150" style="mask-type:alpha" maskUnits="userSpaceOnUse" x="1" y="1" width="35" height="24">
<path d="M1.83331 5C1.83331 3.067 3.40032 1.5 5.33331 1.5H31.3333C33.2663 1.5 34.8333 3.067 34.8333 5V21C34.8333 22.933 33.2663 24.5 31.3333 24.5H5.33331C3.40032 24.5 1.83331 22.933 1.83331 21V5Z" fill="#D9D9D9" stroke="black"/>
</mask>
<g mask="url(#mask0_2001_2150)">
<g clip-path="url(#clip0_2001_2150)">
<path d="M1.33331 1H49.3333V25H1.33331V1Z" fill="#F2A800"/>
<path d="M1.33331 1H49.3333V17H1.33331V1Z" fill="#0033A0"/>
<path d="M1.33331 1H49.3333V9H1.33331V1Z" fill="#D90012"/>
</g>
<g clip-path="url(#clip1_2001_2150)">
<path d="M0.333313 1H36.3333V25H0.333313V1Z" fill="white"/>
<path d="M15.9333 1H20.7333V25H15.9333V1ZM0.333313 10.6H36.3333V15.4H0.333313V10.6Z" fill="#FF0000"/>
<path d="M7.28946 3.34473C7.84961 3.4183 8.41698 3.4183 8.97714 3.34473C8.65195 4.96538 8.65195 6.63448 8.97714 8.25513C8.41698 8.18156 7.84961 8.18156 7.28946 8.25513C7.61465 6.63448 7.61465 4.96538 7.28946 3.34473Z" fill="#FF0000"/>
<path d="M10.5885 4.95605C10.5149 5.51621 10.5149 6.08358 10.5885 6.64373C8.96785 6.31855 7.29875 6.31855 5.6781 6.64373C5.75167 6.08358 5.75167 5.51621 5.6781 4.95605C7.29875 5.28124 8.96785 5.28124 10.5885 4.95605Z" fill="#FF0000"/>
<path d="M27.6895 3.34473C28.2496 3.4183 28.817 3.4183 29.3771 3.34473C29.0519 4.96538 29.0519 6.63448 29.3771 8.25513C28.817 8.18156 28.2496 8.18156 27.6895 8.25513C28.0146 6.63448 28.0146 4.96538 27.6895 3.34473Z" fill="#FF0000"/>
<path d="M30.9885 4.95605C30.9149 5.51621 30.9149 6.08358 30.9885 6.64373C29.3678 6.31855 27.6987 6.31855 26.0781 6.64373C26.1517 6.08358 26.1517 5.51621 26.0781 4.95605C27.6987 5.28124 29.3678 5.28124 30.9885 4.95605Z" fill="#FF0000"/>
<path d="M7.28946 17.7449C7.84961 17.8184 8.41698 17.8184 8.97714 17.7449C8.65195 19.3655 8.65195 21.0346 8.97714 22.6553C8.41698 22.5817 7.84961 22.5817 7.28946 22.6553C7.61465 21.0346 7.61465 19.3655 7.28946 17.7449Z" fill="#FF0000"/>
<path d="M10.5885 19.3562C10.5149 19.9164 10.5149 20.4837 10.5885 21.0439C8.96785 20.7187 7.29875 20.7187 5.6781 21.0439C5.75167 20.4837 5.75167 19.9164 5.6781 19.3562C7.29875 19.6814 8.96785 19.6814 10.5885 19.3562Z" fill="#FF0000"/>
<path d="M27.6895 17.7449C28.2496 17.8184 28.817 17.8184 29.3771 17.7449C29.0519 19.3655 29.0519 21.0346 29.3771 22.6553C28.817 22.5817 28.2496 22.5817 27.6895 22.6553C28.0146 21.0346 28.0146 19.3655 27.6895 17.7449Z" fill="#FF0000"/>
<path d="M30.9885 19.3562C30.9149 19.9164 30.9149 20.4837 30.9885 21.0439C29.3678 20.7187 27.6987 20.7187 26.0781 21.0439C26.1517 20.4837 26.1517 19.9164 26.0781 19.3562C27.6987 19.6814 29.3678 19.6814 30.9885 19.3562Z" fill="#FF0000"/>
</g>
<rect x="-0.166687" y="0.5" width="37" height="25" stroke="black"/>
</g>
<defs>
<clipPath id="clip0_2001_2150">
<path d="M1.33331 5C1.33331 2.79086 3.12417 1 5.33331 1H31.3333C33.5425 1 35.3333 2.79086 35.3333 5V21C35.3333 23.2091 33.5425 25 31.3333 25H5.33331C3.12417 25 1.33331 23.2091 1.33331 21V5Z" fill="white"/>
</clipPath>
<clipPath id="clip1_2001_2150">
<rect x="0.333313" y="1" width="36" height="24" fill="white"/>
</clipPath>
</defs>
</svg>
