<svg width="52" height="52" viewBox="0 0 52 52" fill="none" xmlns="http://www.w3.org/2000/svg">
<g opacity="0.5">
<path d="M9.75 42.25H3.25C2.81902 42.25 2.4057 42.0788 2.10095 41.774C1.7962 41.4693 1.625 41.056 1.625 40.625V32.5C1.625 32.069 1.7962 31.6557 2.10095 31.351C2.4057 31.0462 2.81902 30.875 3.25 30.875H9.75" stroke="#7F52FF" stroke-width="2.8" stroke-linecap="round" stroke-linejoin="round"/>
<path d="M22.75 32.5H29.25L42.8594 29.3699C43.3597 29.2327 43.885 29.2129 44.3942 29.3118C44.9035 29.4106 45.3832 29.6257 45.7958 29.9401C46.2085 30.2545 46.5431 30.6598 46.7736 31.1246C47.0042 31.5894 47.1244 32.1011 47.125 32.6199C47.1253 33.2463 46.9509 33.8604 46.6215 34.3932C46.2921 34.926 45.8208 35.3565 45.2603 35.6363L37.375 39L24.375 42.25H9.75V30.875L14.8281 25.7969C15.282 25.3446 15.8206 24.9862 16.4131 24.7422C17.0057 24.4982 17.6405 24.3734 18.2812 24.375H28.4375C29.5149 24.375 30.5483 24.803 31.3101 25.5649C32.072 26.3268 32.5 27.3601 32.5 28.4375C32.5 29.515 32.072 30.5483 31.3101 31.3101C30.5483 32.072 29.5149 32.5 28.4375 32.5H22.75Z" stroke="#7F52FF" stroke-width="2.8" stroke-linecap="round" stroke-linejoin="round"/>
<path d="M19.6483 24.3751C17.6719 21.8807 16.25 19.2076 16.25 16.2501C16.25 11.8443 19.8392 8.12506 24.2653 8.12506C25.8472 8.1065 27.3986 8.56054 28.7209 9.42904C30.0432 10.2975 31.0762 11.541 31.6875 13.0001C32.2988 11.541 33.3318 10.2975 34.6541 9.42904C35.9764 8.56054 37.5278 8.1065 39.1097 8.12506C43.5358 8.12506 47.125 11.8443 47.125 16.2501C47.125 22.1874 41.4009 27.4362 36.9241 30.7369" stroke="#7F52FF" stroke-width="2.8" stroke-linecap="round" stroke-linejoin="round"/>
</g>
</svg>
