<svg width="120" height="36" viewBox="0 0 120 36" fill="none" xmlns="http://www.w3.org/2000/svg">
<g clip-path="url(#clip0_339_2783)">
<path d="M12.9963 6.08386V15.6782H4.18196V6.08386H7.62939e-05V28.9869H4.18309V19.7039H12.9952V28.9869H17.1793V6.08386H12.9963ZM30.5684 21.5842C30.5684 22.5022 30.2037 23.3826 29.5546 24.0318C28.9055 24.6809 28.0251 25.0456 27.1071 25.0456C26.1891 25.0456 25.3087 24.6809 24.6595 24.0318C24.0104 23.3826 23.6457 22.5022 23.6457 21.5842V11.7737H19.6778V21.5842C19.6778 23.5526 20.4598 25.4404 21.8516 26.8323C23.2435 28.2242 25.1313 29.0061 27.0997 29.0061C29.0681 29.0061 30.9559 28.2242 32.3478 26.8323C33.7396 25.4404 34.5216 23.5526 34.5216 21.5842V11.7737H30.5684V21.5842ZM59.9695 12.7846C59.9695 10.7729 61.2997 10.1356 62.7567 10.1356C63.9318 10.1356 65.4827 11.0299 66.4982 12.1144L69.0963 9.05103C67.7989 7.29631 65.168 6.08386 63.0137 6.08386C58.7084 6.08386 55.5952 8.60499 55.5952 12.7846C55.5952 20.5393 65.0729 18.0782 65.0729 22.4186C65.0729 23.7567 63.7733 24.9386 62.2857 24.9386C59.9389 24.9386 59.1782 23.7918 58.1004 22.5782L55.2159 25.5771C57.0612 27.8412 59.3367 28.9914 62.0616 28.9914C66.1518 28.9914 69.4416 26.4397 69.4416 22.4503C69.4416 13.842 59.9627 16.5171 59.9627 12.7846M118.604 25.328C116.26 25.328 115.593 24.3137 115.593 22.7605V15.8831H119.238V12.3986H115.593V7.80122L111.57 9.60688V23.6152C111.57 27.1982 114.042 29.0039 117.431 29.0039C117.963 29.0129 118.496 28.9699 119.019 28.8771L120 25.2635C119.557 25.2941 119.049 25.3246 118.604 25.3246M45.6725 11.888C43.7072 11.888 42.3352 12.4586 41.0084 13.7593V6.22084H37.0348V20.194C37.0348 25.4242 40.8159 29.0084 45.0657 29.0084C49.7797 29.0084 53.9265 25.3608 53.9265 20.4499C53.9265 15.6001 50.1103 11.8914 45.6725 11.8914M45.6476 25.0088C45.0554 25.0088 44.469 24.8921 43.9219 24.6655C43.3747 24.4389 42.8776 24.1067 42.4588 23.6879C42.0401 23.2692 41.7079 22.772 41.4813 22.2249C41.2546 21.6778 41.138 21.0914 41.138 20.4991C41.138 19.9069 41.2546 19.3205 41.4813 18.7734C41.7079 18.2263 42.0401 17.7291 42.4588 17.3104C42.8776 16.8916 43.3747 16.5594 43.9219 16.3328C44.469 16.1062 45.0554 15.9895 45.6476 15.9895C46.8436 15.9895 47.9907 16.4646 48.8364 17.3104C49.6821 18.1561 50.1572 19.3031 50.1572 20.4991C50.1572 21.6952 49.6821 22.8422 48.8364 23.6879C47.9907 24.5336 46.8436 25.0088 45.6476 25.0088ZM88.8272 20.2416C88.8272 15.3216 84.6895 11.6831 79.9665 11.6831C75.7178 11.6831 71.9355 15.2661 71.9355 20.4974V34.4786H75.9091V26.9299C77.2337 28.2284 78.608 28.8012 80.571 28.8012C85.0088 28.8012 88.8272 25.0925 88.8272 20.2416ZM85.0642 20.1918C85.0642 21.3878 84.5891 22.5349 83.7434 23.3806C82.8977 24.2263 81.7506 24.7014 80.5546 24.7014C79.3586 24.7014 78.2115 24.2263 77.3658 23.3806C76.5201 22.5349 76.045 21.3878 76.045 20.1918C76.045 18.9958 76.5201 17.8487 77.3658 17.003C78.2115 16.1573 79.3586 15.6822 80.5546 15.6822C81.7506 15.6822 82.8977 16.1573 83.7434 17.003C84.5891 17.8487 85.0642 18.9958 85.0642 20.1918Z" fill="#33475B"/>
<path d="M101.667 11.4906V7.49773C102.195 7.25113 102.642 6.85974 102.955 6.36912C103.269 5.8785 103.437 5.30882 103.44 4.72641V4.63471C103.44 2.9366 102.063 1.55999 100.365 1.55999H100.274C99.4581 1.55999 98.6761 1.88394 98.0994 2.46056C97.5228 3.03718 97.1989 3.81925 97.1989 4.63471V4.72641C97.2016 5.30882 97.3696 5.8785 97.6835 6.36912C97.9973 6.85974 98.4441 7.25113 98.9717 7.49773V11.4906C97.4552 11.7228 96.027 12.3515 94.8317 13.3132L83.8812 4.78415C83.9593 4.50226 84 4.21245 84.0045 3.9215C84.0059 3.23626 83.804 2.56602 83.4243 1.99555C83.0447 1.42508 82.5044 0.980011 81.8718 0.716644C81.2392 0.453276 80.5427 0.383441 79.8704 0.515971C79.1981 0.648502 78.5802 0.977444 78.0949 1.46119C77.6096 1.94493 77.2786 2.56175 77.1439 3.23362C77.0091 3.90548 77.0767 4.60221 77.338 5.23568C77.5993 5.86914 78.0426 6.41088 78.6118 6.79237C79.181 7.17386 79.8506 7.37797 80.5359 7.37886C81.1354 7.37604 81.7236 7.216 82.2419 6.91471L93.0249 15.3057C92.0562 16.7691 91.5509 18.4903 91.5747 20.2451C91.5985 21.9999 92.1504 23.7068 93.1585 25.1434L89.8789 28.4241C89.6138 28.3394 89.3376 28.2943 89.0593 28.2906C88.4968 28.291 87.9471 28.4582 87.4796 28.771C87.0121 29.0837 86.6478 29.5281 86.4327 30.0478C86.2177 30.5676 86.1616 31.1394 86.2714 31.691C86.3812 32.2427 86.6521 32.7494 87.0499 33.1471C87.4476 33.5448 87.9543 33.8158 88.506 33.9256C89.0576 34.0354 89.6294 33.9793 90.1492 33.7643C90.6689 33.5492 91.1133 33.1849 91.426 32.7174C91.7388 32.2499 91.906 31.7002 91.9064 31.1377C91.9028 30.8594 91.8578 30.5832 91.7729 30.3181L95.0174 27.0724C96.0754 27.887 97.3058 28.4485 98.6144 28.7141C99.923 28.9796 101.275 28.9421 102.567 28.6045C103.859 28.2668 105.056 27.6379 106.067 26.766C107.079 25.8941 107.877 24.8022 108.401 23.5742C108.925 22.3461 109.161 21.0143 109.091 19.6809C109.021 18.3475 108.646 17.0479 107.997 15.8815C107.347 14.7151 106.438 13.713 105.341 12.9519C104.244 12.1908 102.987 11.6909 101.667 11.4906ZM100.322 24.6226C99.7227 24.6391 99.1258 24.5353 98.567 24.3172C98.0082 24.0991 97.4988 23.7713 97.0688 23.353C96.6389 22.9347 96.2971 22.4345 96.0637 21.8819C95.8304 21.3293 95.7101 20.7355 95.7101 20.1357C95.7101 19.5358 95.8304 18.942 96.0637 18.3894C96.2971 17.8368 96.6389 17.3366 97.0688 16.9183C97.4988 16.5 98.0082 16.1722 98.567 15.9541C99.1258 15.736 99.7227 15.6322 100.322 15.6487C101.484 15.6894 102.585 16.1795 103.393 17.0158C104.201 17.8522 104.653 18.9695 104.654 20.1323C104.654 21.2952 104.204 22.4129 103.397 23.2501C102.589 24.0873 101.489 24.5785 100.327 24.6204" fill="#FF7A59"/>
</g>
<defs>
<clipPath id="clip0_339_2783">
<rect width="120" height="35.0943" fill="white" transform="translate(0 0.452881)"/>
</clipPath>
</defs>
</svg>
