<svg width="41" height="40" viewBox="0 0 41 40" fill="none" xmlns="http://www.w3.org/2000/svg">
<path d="M18.6572 1.61924C19.3448 -0.0111196 21.6552 -0.0111191 22.3428 1.61924L26.5685 11.6383C26.8572 12.3227 27.5014 12.7908 28.2416 12.8538L39.076 13.7766C40.8391 13.9268 41.553 16.1241 40.2149 17.2819L31.9921 24.3968C31.4304 24.8828 31.1843 25.6402 31.353 26.3636L33.8234 36.953C34.2254 38.6761 32.3563 40.0341 30.8417 39.1193L21.534 33.4975C20.8982 33.1135 20.1018 33.1135 19.466 33.4975L10.1583 39.1193C8.64369 40.0341 6.77458 38.6761 7.17658 36.953L9.64696 26.3636C9.81572 25.6402 9.56964 24.8828 9.00791 24.3968L0.785051 17.2819C-0.553021 16.1241 0.160913 13.9268 1.92396 13.7766L12.7584 12.8538C13.4986 12.7908 14.1428 12.3227 14.4315 11.6383L18.6572 1.61924Z" fill="#F7CE3C"/>
</svg>
