<svg width="160" height="34" viewBox="0 0 160 34" fill="none" xmlns="http://www.w3.org/2000/svg">
<path fill-rule="evenodd" clip-rule="evenodd" d="M49.1457 0.869385H5.03009C2.23823 0.869385 -0.0218368 3.15161 0.000159205 5.9213V22.761C0.000159205 25.5528 2.26039 27.8129 5.05225 27.8129H25.9468L35.4968 33.1307L33.3253 27.8129H49.1457C51.9377 27.8129 54.1976 25.5528 54.1976 22.761V5.9213C54.1976 3.12945 51.9377 0.869385 49.1457 0.869385ZM4.09957 4.7691C3.47915 4.81342 3.01383 5.035 2.70363 5.45599C2.39343 5.85482 2.28265 6.36444 2.34911 6.94054C3.65641 15.2497 4.87507 20.8555 6.00511 23.7581C6.44827 24.8216 6.95789 25.3314 7.55615 25.2871C8.48675 25.2205 9.59463 23.9354 10.9019 21.4316C11.5888 20.0134 12.6524 17.8864 14.0926 15.0502C15.2891 19.2379 16.9287 22.3844 18.9895 24.4893C19.5656 25.0876 20.1638 25.3535 20.7398 25.3091C21.2496 25.2648 21.6483 24.9989 21.9142 24.5114C22.1358 24.0905 22.2244 23.603 22.1801 23.049C22.0471 21.0328 22.2467 18.2187 22.8006 14.6071C23.3766 10.8846 24.0857 8.20352 24.9498 6.60818C25.1271 6.27582 25.1935 5.94345 25.1714 5.54462C25.1271 5.03499 24.9055 4.614 24.4845 4.28164C24.0636 3.94928 23.5982 3.79418 23.0886 3.83849C22.446 3.8828 21.9585 4.19301 21.6262 4.81342C20.2525 7.31722 19.2775 11.3721 18.7015 17.0001C17.8594 14.873 17.1503 12.3691 16.5964 9.42218C16.3527 8.1149 15.7545 7.49448 14.7795 7.56096C14.1148 7.60526 13.5608 8.04842 13.1177 8.8904L8.26519 18.1301C7.46751 14.9173 6.71415 10.9954 6.02727 6.36444C5.87217 5.21226 5.22959 4.68047 4.09957 4.7691ZM46.7971 6.36452C48.3704 6.69689 49.5447 7.53887 50.3423 8.93479C51.0514 10.1313 51.4058 11.5715 51.4058 13.2998C51.4058 15.582 50.8298 17.6648 49.6776 19.5704C48.3481 21.7862 46.6199 22.894 44.4706 22.894C44.094 22.894 43.6951 22.8497 43.274 22.761C41.7009 22.4287 40.5266 21.5868 39.7288 20.1909C39.0199 18.9722 38.6653 17.5098 38.6653 15.8036C38.6653 13.5214 39.2415 11.4386 40.3936 9.55521C41.7453 7.33945 43.4735 6.23157 45.6007 6.23157C45.9773 6.23157 46.3762 6.27589 46.7971 6.36452ZM45.8666 18.3517C46.6864 17.6205 47.2403 16.5348 47.5506 15.0724C47.6392 14.5628 47.7056 14.0089 47.7056 13.4328C47.7056 12.7902 47.5726 12.1033 47.3067 11.4164C46.9744 10.5523 46.5312 10.087 45.9994 9.97619C45.2018 9.82109 44.4263 10.2642 43.6951 11.35C43.0969 12.1919 42.7201 13.0782 42.5208 13.9867C42.4099 14.4963 42.3656 15.0503 42.3656 15.6042C42.3656 16.2468 42.4985 16.9337 42.7644 17.6205C43.0969 18.4847 43.5399 18.9499 44.0718 19.0608C44.6257 19.1715 45.2239 18.9278 45.8666 18.3517ZM36.4495 8.93479C35.6518 7.53887 34.4553 6.69689 32.9043 6.36452C32.4832 6.27589 32.0845 6.23157 31.7077 6.23157C29.5807 6.23157 27.8524 7.33945 26.5008 9.55521C25.3485 11.4386 24.7725 13.5214 24.7725 15.8036C24.7725 17.5098 25.1271 18.9722 25.836 20.1909C26.6338 21.5868 27.8081 22.4287 29.3812 22.761C29.8022 22.8497 30.201 22.894 30.5778 22.894C32.7271 22.894 34.4553 21.7862 35.7848 19.5704C36.937 17.6648 37.513 15.582 37.513 13.2998C37.513 11.5715 37.1585 10.1313 36.4495 8.93479ZM33.6576 15.0724C33.3475 16.5348 32.7935 17.6205 31.9737 18.3517C31.3311 18.9278 30.7329 19.1715 30.179 19.0608C29.6471 18.9499 29.204 18.4847 28.8716 17.6205C28.6057 16.9337 28.4728 16.2468 28.4728 15.6042C28.4728 15.0503 28.5171 14.4963 28.628 13.9867C28.8273 13.0782 29.204 12.1919 29.8022 11.35C30.5335 10.2642 31.309 9.82109 32.1066 9.97619C32.6384 10.087 33.0816 10.5523 33.4139 11.4164C33.6798 12.1033 33.8128 12.7902 33.8128 13.4328C33.8128 14.0089 33.7685 14.5628 33.6576 15.0724Z" fill="#7F54B3"/>
<path fill-rule="evenodd" clip-rule="evenodd" d="M59.8035 8.73512C58.3189 10.1975 57.5877 12.0587 57.5877 14.3188C57.5877 16.734 58.3189 18.706 59.7814 20.1906C61.2438 21.6752 63.1494 22.4284 65.5202 22.4284C66.2071 22.4284 66.9826 22.3177 67.8246 22.0739V18.4844C67.0491 18.706 66.3843 18.8168 65.8082 18.8168C64.6338 18.8168 63.7033 18.418 62.9942 17.6425C62.2852 16.8447 61.9307 15.7812 61.9307 14.4296C61.9307 13.1666 62.2852 12.1252 62.9721 11.3275C63.681 10.5077 64.5452 10.1089 65.6088 10.1089C66.2957 10.1089 67.0269 10.2197 67.8246 10.4412V6.85172C67.0934 6.6523 66.2736 6.56366 65.4093 6.56366C63.1494 6.5415 61.2881 7.27272 59.8035 8.73512ZM75.1809 6.5415C73.1424 6.5415 71.5471 7.2284 70.3948 8.58C69.2427 9.93162 68.6888 11.8372 68.6888 14.2745C68.6888 16.9113 69.2648 18.9276 70.3948 20.3235C71.5249 21.7195 73.1867 22.4284 75.3582 22.4284C77.4631 22.4284 79.0805 21.7195 80.2106 20.3235C81.3406 18.9276 81.9168 16.9556 81.9168 14.4296C81.9168 11.9036 81.3406 9.95378 80.1885 8.58C79.0141 7.2284 77.3522 6.5415 75.1809 6.5415ZM76.9313 18.0634C76.5324 18.6839 75.9342 18.9941 75.1809 18.9941C74.4718 18.9941 73.94 18.6839 73.5634 18.0634C73.1867 17.443 73.0095 16.2022 73.0095 14.3188C73.0095 11.4162 73.7406 9.97592 75.2252 9.97592C76.7762 9.97592 77.5738 11.4383 77.5738 14.3853C77.5518 16.2022 77.3302 17.443 76.9313 18.0634ZM92.8626 6.9625L92.0649 10.3526C91.8655 11.2168 91.6661 12.1031 91.4889 13.0115L91.0457 15.3603C90.6247 13.0115 90.0486 10.2197 89.3174 6.9625H84.1769L82.2491 22.0518H86.1045L87.1459 11.6599L89.7827 22.0518H92.5303L95.0562 11.6821L96.1419 22.0518H100.175L98.1361 6.9625H92.8626ZM111.32 6.9625L110.522 10.3526C110.323 11.2168 110.123 12.1031 109.946 13.0115L109.503 15.3603C109.082 13.0115 108.506 10.2197 107.775 6.9625H102.634L100.706 22.0518H104.562L105.603 11.6599L108.24 22.0518H110.987L113.491 11.6821L114.577 22.0518H118.61L116.571 6.9625H111.32ZM123.861 16.0915H127.473V12.9672H123.861V10.1975H128.027V6.98466H119.784V22.0739H128.049V18.8612H123.861V16.0915ZM139.526 13.6984C139.947 13.0115 140.169 12.3025 140.169 11.5713C140.169 10.1532 139.615 9.02316 138.507 8.20332C137.399 7.3835 135.87 6.9625 133.965 6.9625H129.223V22.0518H133.3V15.183H133.367L136.668 22.0518H140.967L137.709 15.2494C138.485 14.8949 139.105 14.3853 139.526 13.6984ZM133.278 13.4547V9.86514C134.253 9.8873 134.94 10.0424 135.361 10.3526C135.782 10.6628 135.981 11.1503 135.981 11.8593C135.981 12.9007 135.073 13.4325 133.278 13.4547ZM142.561 8.73512C141.077 10.1975 140.346 12.0587 140.346 14.3188C140.346 16.734 141.077 18.706 142.54 20.1906C144.003 21.6752 145.907 22.4284 148.279 22.4284C148.966 22.4284 149.742 22.3177 150.583 22.0739V18.4844C149.808 18.706 149.143 18.8168 148.566 18.8168C147.393 18.8168 146.462 18.418 145.753 17.6425C145.044 16.8447 144.69 15.7812 144.69 14.4296C144.69 13.1666 145.044 12.1252 145.73 11.3275C146.44 10.5077 147.303 10.1089 148.367 10.1089C149.053 10.1089 149.785 10.2197 150.583 10.4412V6.85172C149.852 6.6523 149.032 6.56366 148.168 6.56366C145.93 6.5415 144.047 7.27272 142.561 8.73512ZM155.79 18.8168V16.0692H159.401V12.945H155.79V10.1754H159.977V6.9625H151.735V22.0518H160V18.8389H155.79V18.8168Z" fill="black"/>
</svg>
