<svg width="170" height="40" viewBox="0 0 170 40" fill="none" xmlns="http://www.w3.org/2000/svg">
<g clip-path="url(#clip0_339_2889)">
<path d="M98.5968 15.6465H91.9048V16.3564C93.998 16.3564 94.3346 16.805 94.3346 19.4595V24.245C94.3346 26.8992 93.9983 27.3853 91.9048 27.3853C90.2977 27.1611 89.2131 26.3011 87.7178 24.6562L85.9983 22.7871C88.3159 22.3753 89.5494 20.9177 89.5494 19.2725C89.5494 17.2168 87.7927 15.6465 84.5026 15.6465H77.9229V16.3564C80.0161 16.3564 80.3527 16.805 80.3527 19.4595V24.245C80.3527 26.8992 80.0161 27.3853 77.9229 27.3853V28.0955H85.3623V27.3853C83.2691 27.3853 82.9326 26.8992 82.9326 24.245V22.8995H83.5679L87.7178 28.0955H98.5968C103.943 28.0955 106.261 25.2546 106.261 21.8521C106.261 18.4502 103.943 15.6465 98.5968 15.6465ZM82.9329 21.7397V16.7682H84.4654C86.1475 16.7682 86.8955 17.927 86.8955 19.2728C86.8955 20.5815 86.1475 21.74 84.4654 21.74L82.9329 21.7397ZM98.7092 26.9367H98.4473C97.1018 26.9367 96.9148 26.6005 96.9148 24.8806V16.7682C96.9148 16.7682 98.5597 16.7682 98.7092 16.7682C102.597 16.7682 103.307 19.6091 103.307 21.815C103.307 24.0952 102.597 26.9367 98.7092 26.9367Z" fill="#00749A"/>
<path d="M57.1005 23.1236L59.6801 15.4966C60.4281 13.291 60.0916 12.6557 57.699 12.6557V11.9077H64.7272V12.6557C62.3721 12.6557 61.8114 13.2164 60.8767 15.9455L56.6144 28.7311H56.1287L52.315 17.0294L48.4274 28.7311H47.9413L43.7917 15.9455C42.8945 13.2164 42.2963 12.6557 40.1279 12.6557V11.9077H48.4274V12.6557C46.2215 12.6557 45.623 13.1789 46.4085 15.4966L48.9131 23.1236L52.689 11.9077H53.3995L57.1005 23.1236Z" fill="#00749A"/>
<path d="M69.8108 28.5812C65.6987 28.5812 62.3339 25.5533 62.3339 21.8517C62.3339 18.1882 65.699 15.1597 69.8108 15.1597C73.9232 15.1597 77.2876 18.1882 77.2876 21.8517C77.2876 25.5533 73.9232 28.5812 69.8108 28.5812ZM69.8108 16.3194C66.3717 16.3194 65.1751 19.4219 65.1751 21.852C65.1751 24.3198 66.3717 27.3852 69.8108 27.3852C73.2879 27.3852 74.4842 24.3198 74.4842 21.852C74.4842 19.4219 73.2879 16.3194 69.8108 16.3194Z" fill="#00749A"/>
<path d="M115.494 27.3479V28.0956H106.933V27.3479C109.438 27.3479 109.887 26.7126 109.887 22.9735V16.9924C109.887 13.2533 109.438 12.6555 106.933 12.6555V11.9075H114.672C118.522 11.9075 120.654 13.8889 120.654 16.5437C120.654 19.1233 118.522 21.1419 114.672 21.1419H112.541V22.9732C112.541 26.7126 112.989 27.3479 115.494 27.3479ZM114.672 13.2533H112.541V19.7586H114.672C116.765 19.7586 117.737 18.3007 117.737 16.5437C117.737 14.7493 116.765 13.2533 114.672 13.2533Z" fill="#464342"/>
<path d="M146.336 24.5816L146.149 25.2543C145.813 26.4881 145.401 26.9367 142.747 26.9367H142.224C140.28 26.9367 139.943 26.4881 139.943 23.8339V22.1144C142.859 22.1144 143.084 22.3757 143.084 24.3199H143.794V18.7493H143.084C143.084 20.6933 142.859 20.9549 139.943 20.9549V16.7682H141.999C144.654 16.7682 145.065 17.2168 145.401 18.4505L145.589 19.1604H146.186L145.925 15.6465H134.934V16.3564C137.027 16.3564 137.364 16.805 137.364 19.4595V24.245C137.364 26.6732 137.078 27.2849 135.427 27.3721C133.859 27.1325 132.782 26.2768 131.308 24.6562L129.588 22.7871C131.906 22.3753 133.14 20.9177 133.14 19.2725C133.14 17.2168 131.383 15.6465 128.093 15.6465H121.513V16.3564C123.607 16.3564 123.943 16.805 123.943 19.4595V24.245C123.943 26.8992 123.607 27.3853 121.513 27.3853V28.0955H128.953V27.3853C126.86 27.3853 126.523 26.8992 126.523 24.245V22.8995H127.159L131.308 28.0955H146.673L146.898 24.5819L146.336 24.5816ZM126.523 21.7397V16.7682H128.055C129.738 16.7682 130.486 17.927 130.486 19.2728C130.486 20.5815 129.738 21.74 128.055 21.74L126.523 21.7397Z" fill="#464342"/>
<path d="M153.925 28.5813C152.43 28.5813 151.121 27.7965 150.561 27.3101C150.374 27.4974 150.037 28.0581 149.963 28.5813H149.252V23.4228H150C150.299 25.89 152.018 27.3479 154.224 27.3479C155.421 27.3479 156.393 26.6751 156.393 25.5538C156.393 24.5819 155.533 23.8339 154 23.1237L151.869 22.1144C150.374 21.4036 149.252 20.1698 149.252 18.5252C149.252 16.7308 150.935 15.1982 153.253 15.1982C154.486 15.1982 155.533 15.6469 156.169 16.1701C156.355 16.0205 156.542 15.6091 156.655 15.1602H157.365V19.572H156.58C156.318 17.8147 155.346 16.3568 153.365 16.3568C152.318 16.3568 151.346 16.9549 151.346 17.8899C151.346 18.8617 152.131 19.385 153.926 20.2076L155.981 21.2169C157.776 22.0766 158.486 23.4606 158.486 24.5819C158.486 26.9367 156.43 28.5813 153.925 28.5813Z" fill="#464342"/>
<path d="M165.439 28.5813C163.944 28.5813 162.635 27.7965 162.075 27.3101C161.888 27.4974 161.552 28.0581 161.477 28.5813H160.766V23.4228H161.514C161.813 25.89 163.533 27.3479 165.739 27.3479C166.935 27.3479 167.907 26.6751 167.907 25.5538C167.907 24.5819 167.047 23.8339 165.514 23.1237L163.383 22.1144C161.888 21.4036 160.766 20.1698 160.766 18.5252C160.766 16.7308 162.448 15.1982 164.766 15.1982C166 15.1982 167.047 15.6469 167.683 16.1701C167.869 16.0205 168.056 15.6091 168.168 15.1602H168.879V19.572H168.094C167.832 17.8147 166.86 16.3568 164.879 16.3568C163.832 16.3568 162.86 16.9549 162.86 17.8899C162.86 18.8617 163.645 19.385 165.439 20.2076L167.495 21.2169C169.29 22.0766 170 23.4606 170 24.5819C170 26.9367 167.944 28.5813 165.439 28.5813Z" fill="#464342"/>
<path d="M2.74139 19.7494C2.74139 26.2981 6.54719 31.9576 12.0659 34.6395L4.1738 13.0161C3.2558 15.0737 2.74139 17.3508 2.74139 19.7494Z" fill="#464342"/>
<path d="M30.4552 18.9146C30.4552 16.8699 29.7207 15.4538 29.0908 14.3517C28.2521 12.9888 27.466 11.8347 27.466 10.4719C27.466 8.95101 28.6195 7.53528 30.2442 7.53528C30.3176 7.53528 30.3872 7.54441 30.4586 7.54851C27.5151 4.8518 23.5935 3.20532 19.2862 3.20532C13.5062 3.20532 8.42096 6.17088 5.46265 10.6627C5.85081 10.6743 6.21663 10.6825 6.52735 10.6825C8.25789 10.6825 10.9366 10.4725 10.9366 10.4725C11.8285 10.4199 11.9337 11.7299 11.0427 11.8353C11.0427 11.8353 10.1465 11.9408 9.14913 11.9931L15.1741 29.9139L18.7947 19.055L16.217 11.9924C15.3261 11.9402 14.4821 11.8347 14.4821 11.8347C13.5905 11.7825 13.6951 10.4193 14.5866 10.4719C14.5866 10.4719 17.3189 10.6819 18.9446 10.6819C20.6748 10.6819 23.3539 10.4719 23.3539 10.4719C24.2464 10.4193 24.3512 11.7292 23.46 11.8347C23.46 11.8347 22.5618 11.9402 21.5664 11.9924L27.5453 29.7776L29.1956 24.263C29.9109 21.9746 30.4552 20.3309 30.4552 18.9146Z" fill="#464342"/>
<path d="M19.5764 21.1965L14.6124 35.621C16.0945 36.0567 17.662 36.2951 19.2861 36.2951C21.2128 36.2951 23.0605 35.962 24.7803 35.3572C24.7359 35.2864 24.6956 35.2111 24.6625 35.1293L19.5764 21.1965Z" fill="#464342"/>
<path d="M33.8035 11.8118C33.8747 12.3388 33.915 12.9045 33.915 13.513C33.915 15.1919 33.6014 17.0792 32.657 19.4391L27.6033 34.0506C32.5219 31.1823 35.8303 25.8535 35.8303 19.7498C35.8306 16.8734 35.0959 14.1685 33.8035 11.8118Z" fill="#464342"/>
<path d="M19.2862 0.463867C8.65206 0.463867 0 9.11529 0 19.7494C0 30.3848 8.65206 39.0359 19.2862 39.0359C29.92 39.0359 38.5733 30.3848 38.5733 19.7494C38.573 9.11529 29.92 0.463867 19.2862 0.463867ZM19.2862 38.1519C9.1397 38.1519 0.884315 29.8965 0.884315 19.7494C0.884315 9.60294 9.13939 1.34818 19.2862 1.34818C29.4324 1.34818 37.6871 9.60294 37.6871 19.7494C37.6871 29.8965 29.4324 38.1519 19.2862 38.1519Z" fill="#464342"/>
</g>
<defs>
<clipPath id="clip0_339_2889">
<rect width="170" height="38.5721" fill="white" transform="translate(0 0.463867)"/>
</clipPath>
</defs>
</svg>
